<?xml version="1.0" encoding="utf-8"?>
<!-- Generator: Adobe Illustrator 15.1.0, SVG Export Plug-In . SVG Version: 6.00 Build 0)  -->
<!DOCTYPE svg PUBLIC "-//W3C//DTD SVG 1.1//EN" "http://www.w3.org/Graphics/SVG/1.1/DTD/svg11.dtd">
<svg version="1.1" id="Layer_1" xmlns="http://www.w3.org/2000/svg" xmlns:xlink="http://www.w3.org/1999/xlink" x="0px" y="0px"
	 width="36.754px" height="35.901px" viewBox="0 0 36.754 35.901" enable-background="new 0 0 36.754 35.901" xml:space="preserve">
<g>
	<path fill="#073763" d="M24.764,33.969H0.004v-4.233c-0.058-2.428,0.488-4.711,1.64-6.851c1.077-1.917,2.602-3.363,4.573-4.338
		c0.294,0.325,0.604,0.633,0.931,0.925c0.326,0.292,0.667,0.566,1.021,0.823c0.355,0.257,0.723,0.494,1.103,0.712
		s0.77,0.416,1.171,0.594c0.4,0.178,0.809,0.333,1.226,0.469c0.417,0.135,0.84,0.248,1.268,0.338
		c0.429,0.09,0.861,0.159,1.297,0.205c0.436,0.045,0.872,0.068,1.311,0.068s0.875-0.023,1.311-0.068
		c0.436-0.046,0.868-0.114,1.297-0.205c0.428-0.091,0.851-0.204,1.268-0.338c0.417-0.135,0.825-0.291,1.226-0.469
		s0.791-0.375,1.171-0.594s0.747-0.456,1.103-0.712c0.354-0.257,0.695-0.531,1.021-0.823c0.326-0.292,0.637-0.601,0.931-0.925
		c1.816,0.899,3.261,2.209,4.333,3.928c-0.306,0.05-0.607,0.12-0.903,0.21c-0.297,0.089-0.587,0.198-0.869,0.325
		c-0.283,0.127-0.556,0.272-0.819,0.435c-0.264,0.163-0.517,0.342-0.757,0.538c-0.24,0.195-0.467,0.406-0.68,0.63
		c-0.214,0.225-0.411,0.463-0.594,0.714c-0.182,0.25-0.347,0.512-0.495,0.784c-0.148,0.272-0.278,0.553-0.39,0.842
		s-0.204,0.584-0.277,0.885s-0.127,0.606-0.16,0.914c-0.033,0.308-0.047,0.617-0.04,0.927c0.006,0.31,0.032,0.618,0.079,0.924
		c0.047,0.307,0.113,0.608,0.199,0.906s0.19,0.588,0.314,0.873s0.266,0.559,0.425,0.825C24.396,33.472,24.571,33.726,24.764,33.969
		L24.764,33.969z M27.47,30.339h2.476v2.472h1.238v-2.472h2.476v-1.237h-2.476V26.63h-1.238v2.472H27.47V30.339z M24.375,29.72
		c-0.001-0.406,0.038-0.809,0.117-1.208c0.079-0.398,0.195-0.786,0.351-1.162c0.155-0.376,0.346-0.733,0.571-1.071
		s0.481-0.651,0.769-0.939c0.287-0.288,0.6-0.545,0.938-0.771c0.338-0.226,0.694-0.417,1.069-0.573
		c0.376-0.156,0.763-0.274,1.161-0.354c0.399-0.08,0.802-0.12,1.208-0.12s0.81,0.039,1.208,0.118s0.786,0.196,1.162,0.352
		s0.732,0.346,1.07,0.571c0.339,0.226,0.651,0.482,0.939,0.769c0.287,0.287,0.544,0.6,0.771,0.938
		c0.226,0.338,0.417,0.695,0.572,1.07c0.156,0.375,0.273,0.763,0.354,1.161c0.079,0.399,0.119,0.802,0.119,1.208
		c0.001,0.407-0.039,0.809-0.118,1.208s-0.196,0.786-0.352,1.162s-0.347,0.732-0.572,1.071c-0.226,0.338-0.482,0.651-0.77,0.938
		c-0.287,0.287-0.6,0.544-0.938,0.77c-0.338,0.226-0.694,0.417-1.07,0.572c-0.375,0.156-0.763,0.273-1.161,0.353
		c-0.398,0.079-0.802,0.119-1.208,0.119s-0.809-0.039-1.207-0.118c-0.397-0.079-0.785-0.196-1.16-0.351s-0.731-0.346-1.069-0.571
		c-0.338-0.226-0.65-0.481-0.938-0.769c-0.287-0.287-0.544-0.599-0.77-0.937c-0.226-0.337-0.417-0.693-0.572-1.069
		c-0.156-0.375-0.273-0.762-0.353-1.16C24.415,30.529,24.375,30.126,24.375,29.72z"/>
	<circle fill="#073763" cx="15.708" cy="9.958" r="9.958"/>
</g>
</svg>
