<?xml version="1.0" encoding="utf-8"?>
<!-- Generator: Adobe Illustrator 15.1.0, SVG Export Plug-In . SVG Version: 6.00 Build 0)  -->
<!DOCTYPE svg PUBLIC "-//W3C//DTD SVG 1.1//EN" "http://www.w3.org/Graphics/SVG/1.1/DTD/svg11.dtd">
<svg version="1.1" id="Layer_1" xmlns="http://www.w3.org/2000/svg" xmlns:xlink="http://www.w3.org/1999/xlink" x="0px" y="0px"
	 width="61.799px" height="46.704px" viewBox="0 0 61.799 46.704" enable-background="new 0 0 61.799 46.704" xml:space="preserve">
<g>
	<g>
		<path fill="#183960" d="M46.286,25.503c0.454-0.454,0.962-0.871,1.509-1.237c0.534-0.357,1.112-0.667,1.72-0.921
			c0.609-0.252,1.238-0.442,1.874-0.568c0.489-0.097,0.983-0.145,1.478-0.167V2.835C52.866,1.27,51.597,0,50.031,0H2.835
			C1.27,0,0,1.27,0,2.835v25.187h44.465c0.177-0.347,0.367-0.687,0.582-1.008C45.415,26.464,45.832,25.955,46.286,25.503z"/>
		<g>
			<path fill="#183960" d="M39.027,43.523h-6.135v-4.569h12.81c-0.234-0.278-0.456-0.565-0.656-0.865
				c-0.362-0.543-0.672-1.122-0.921-1.724c-0.245-0.59-0.437-1.219-0.567-1.866c-0.127-0.646-0.191-1.299-0.191-1.947
				c0-0.646,0.064-1.3,0.19-1.942c0.108-0.546,0.272-1.077,0.47-1.594H0v7.104c0,1.565,1.27,2.835,2.835,2.835h17.139v4.569h-6.135
				c-0.782,0-1.417,0.635-1.417,1.417v0.347c0,0.782,0.635,1.417,1.417,1.417h25.188c0.782,0,1.417-0.635,1.417-1.417V44.94
				C40.444,44.158,39.81,43.523,39.027,43.523z M26.434,35.289c-0.604,0-1.093-0.489-1.093-1.093s0.489-1.093,1.093-1.093
				s1.093,0.489,1.093,1.093S27.037,35.289,26.434,35.289z"/>
		</g>
	</g>
	<g>
		<path fill="#183960" d="M58.864,29.711l-6.954,6.947l-4.108-4.106c-0.143-0.146-0.213-0.322-0.211-0.526
			c0.001-0.205,0.076-0.379,0.219-0.523c0.145-0.145,0.319-0.218,0.522-0.219c0.204-0.002,0.382,0.068,0.528,0.211l3.061,3.059
			l5.894-5.891c0.146-0.142,0.322-0.212,0.526-0.21c0.204,0.001,0.379,0.075,0.523,0.219c0.146,0.145,0.218,0.319,0.22,0.523
			c0.001,0.204-0.069,0.381-0.21,0.526L58.864,29.711z M53.333,24.085c-0.556,0-1.106,0.055-1.651,0.162
			c-0.545,0.108-1.075,0.27-1.589,0.481c-0.512,0.214-1.002,0.475-1.463,0.783c-0.462,0.31-0.892,0.66-1.284,1.053
			c-0.394,0.393-0.743,0.822-1.053,1.284c-0.309,0.461-0.569,0.951-0.781,1.463c-0.214,0.514-0.375,1.044-0.483,1.588
			c-0.107,0.546-0.162,1.097-0.162,1.652s0.055,1.107,0.162,1.65c0.11,0.547,0.27,1.076,0.483,1.59
			c0.212,0.513,0.473,1.001,0.781,1.463c0.31,0.463,0.66,0.89,1.053,1.284c0.393,0.393,0.822,0.743,1.284,1.053
			c0.461,0.309,0.951,0.57,1.462,0.782c0.515,0.212,1.045,0.373,1.59,0.482s1.096,0.162,1.65,0.162c0.556,0,1.108-0.053,1.652-0.162
			c0.545-0.109,1.074-0.268,1.588-0.482c0.514-0.212,1.001-0.474,1.463-0.782c0.462-0.31,0.891-0.66,1.284-1.053
			c0.393-0.392,0.743-0.821,1.053-1.283c0.309-0.461,0.569-0.951,0.781-1.462c0.212-0.516,0.373-1.045,0.482-1.589
			c0.108-0.546,0.163-1.096,0.163-1.652s-0.055-1.106-0.163-1.651c-0.109-0.545-0.27-1.075-0.482-1.59
			c-0.21-0.512-0.47-1.002-0.78-1.463c-0.309-0.462-0.658-0.892-1.052-1.284c-0.393-0.393-0.821-0.743-1.284-1.053
			c-0.461-0.309-0.95-0.569-1.462-0.783c-0.515-0.212-1.045-0.373-1.589-0.481C54.44,24.14,53.889,24.085,53.333,24.085z"/>
	</g>
</g>
</svg>
