<?xml version="1.0" encoding="utf-8"?>
<!-- Generator: Adobe Illustrator 15.1.0, SVG Export Plug-In . SVG Version: 6.00 Build 0)  -->
<!DOCTYPE svg PUBLIC "-//W3C//DTD SVG 1.1//EN" "http://www.w3.org/Graphics/SVG/1.1/DTD/svg11.dtd">
<svg version="1.1" id="Layer_1" xmlns="http://www.w3.org/2000/svg" xmlns:xlink="http://www.w3.org/1999/xlink" x="0px" y="0px"
	 width="16.428px" height="16.428px" viewBox="0 0 16.428 16.428" enable-background="new 0 0 16.428 16.428" xml:space="preserve">
<g>
	<path fill="#62BFB6" d="M15.337,4.107c-0.77-1.284-1.776-2.289-3.016-3.016C11.08,0.385,9.711,0.022,8.214,0
		C6.716,0.022,5.347,0.385,4.107,1.091C2.866,1.818,1.861,2.823,1.091,4.107C0.363,5.412,0,6.781,0,8.214
		c0,1.434,0.363,2.802,1.091,4.107c0.77,1.283,1.775,2.289,3.016,3.016c1.24,0.706,2.609,1.069,4.107,1.091
		c1.497-0.022,2.866-0.385,4.107-1.091c1.24-0.728,2.246-1.733,3.016-3.016c0.727-1.305,1.091-2.673,1.091-4.107
		C16.428,6.781,16.064,5.412,15.337,4.107z M11.78,8.703l-4.14,4.08c-0.144,0.128-0.309,0.191-0.496,0.191s-0.352-0.063-0.496-0.191
		c-0.129-0.142-0.194-0.305-0.194-0.488c0-0.185,0.065-0.347,0.194-0.489l3.666-3.591L6.648,4.623
		C6.519,4.481,6.454,4.318,6.454,4.134s0.065-0.347,0.194-0.489c0.144-0.127,0.309-0.191,0.496-0.191S7.496,3.518,7.64,3.646
		l4.14,4.08c0.129,0.142,0.194,0.305,0.194,0.489C11.974,8.398,11.91,8.561,11.78,8.703z"/>
</g>
</svg>
