<?xml version="1.0" encoding="utf-8"?>
<!-- Generator: Adobe Illustrator 15.1.0, SVG Export Plug-In . SVG Version: 6.00 Build 0)  -->
<!DOCTYPE svg PUBLIC "-//W3C//DTD SVG 1.1//EN" "http://www.w3.org/Graphics/SVG/1.1/DTD/svg11.dtd">
<svg version="1.1" id="Layer_1" xmlns="http://www.w3.org/2000/svg" xmlns:xlink="http://www.w3.org/1999/xlink" x="0px" y="0px"
	 width="79.221px" height="14.173px" viewBox="0 0 79.221 14.173" enable-background="new 0 0 79.221 14.173" xml:space="preserve">
<g>
	<g>
		<g>
			<path fill="#646363" d="M30.508,14.173H7.086C3.179,14.173,0,10.994,0,7.087C0,3.179,3.179,0,7.086,0h23.422
				c3.908,0,7.086,3.179,7.086,7.087C37.595,10.994,34.416,14.173,30.508,14.173z M7.086,0.961c-3.377,0-6.125,2.748-6.125,6.126
				s2.748,6.126,6.125,6.126h23.422c3.377,0,6.125-2.748,6.125-6.126s-2.748-6.126-6.125-6.126H7.086z"/>
		</g>
		<circle fill="#646363" cx="7.104" cy="7.087" r="5.662"/>
	</g>
	<g>
		<path d="M50.119,10.607h-1.572l-0.625-1.626H45.06l-0.591,1.626h-1.533l2.788-7.158h1.528L50.119,10.607z M47.458,7.775
			l-0.986-2.656l-0.967,2.656H47.458z"/>
		<path d="M52.189,10.607h-1.372V5.422h1.274v0.737c0.218-0.349,0.414-0.578,0.588-0.688c0.174-0.111,0.372-0.166,0.593-0.166
			c0.313,0,0.614,0.086,0.903,0.259L53.751,6.76c-0.231-0.15-0.446-0.225-0.645-0.225c-0.192,0-0.355,0.053-0.488,0.158
			C52.485,6.8,52.38,6.99,52.304,7.268c-0.077,0.276-0.115,0.855-0.115,1.738V10.607z"/>
		<path d="M59.289,6.955l-1.353,0.244c-0.045-0.271-0.149-0.474-0.31-0.61s-0.37-0.205-0.627-0.205
			c-0.342,0-0.614,0.118-0.818,0.354c-0.204,0.236-0.305,0.631-0.305,1.185c0,0.615,0.104,1.05,0.31,1.304s0.484,0.381,0.833,0.381
			c0.26,0,0.474-0.074,0.64-0.223c0.166-0.147,0.283-0.402,0.352-0.764l1.348,0.229c-0.14,0.618-0.409,1.085-0.806,1.401
			c-0.397,0.315-0.929,0.474-1.597,0.474c-0.758,0-1.363-0.239-1.814-0.718s-0.676-1.142-0.676-1.987c0-0.856,0.226-1.522,0.679-2
			c0.453-0.477,1.064-0.715,1.836-0.715c0.631,0,1.134,0.136,1.506,0.407C58.858,5.984,59.126,6.398,59.289,6.955z"/>
		<path d="M61.696,3.449v2.632c0.443-0.518,0.972-0.776,1.587-0.776c0.316,0,0.601,0.059,0.854,0.176s0.445,0.267,0.574,0.449
			c0.128,0.182,0.216,0.384,0.264,0.605c0.047,0.221,0.071,0.564,0.071,1.03v3.042h-1.372V7.868c0-0.544-0.026-0.889-0.078-1.035
			s-0.144-0.263-0.276-0.35c-0.132-0.086-0.297-0.129-0.496-0.129c-0.228,0-0.431,0.055-0.61,0.166
			c-0.179,0.11-0.31,0.277-0.393,0.5c-0.083,0.224-0.125,0.553-0.125,0.989v2.598h-1.372V3.449H61.696z"/>
		<path d="M66.437,4.719v-1.27h1.372v1.27H66.437z M66.437,10.607V5.422h1.372v5.186H66.437z"/>
		<path d="M70.641,10.607l-2.09-5.186h1.44l0.977,2.646l0.283,0.884c0.075-0.225,0.122-0.373,0.142-0.444
			c0.045-0.146,0.094-0.293,0.146-0.439l0.986-2.646h1.411l-2.061,5.186H70.641z"/>
		<path d="M77.78,8.957l1.368,0.229c-0.176,0.501-0.453,0.883-0.833,1.145c-0.379,0.263-0.854,0.394-1.423,0.394
			c-0.902,0-1.569-0.295-2.002-0.884c-0.342-0.473-0.513-1.068-0.513-1.787c0-0.859,0.225-1.532,0.674-2.02
			c0.449-0.486,1.017-0.729,1.704-0.729c0.771,0,1.38,0.255,1.827,0.764c0.445,0.51,0.658,1.29,0.639,2.342h-3.437
			c0.01,0.406,0.121,0.724,0.332,0.949c0.211,0.227,0.475,0.34,0.791,0.34c0.215,0,0.396-0.059,0.542-0.176
			S77.705,9.217,77.78,8.957z M77.858,7.57c-0.01-0.397-0.112-0.699-0.308-0.906c-0.195-0.206-0.433-0.31-0.713-0.31
			c-0.299,0-0.547,0.108-0.742,0.327C75.9,6.899,75.804,7.195,75.807,7.57H77.858z"/>
	</g>
</g>
</svg>
