<?xml version="1.0" encoding="utf-8"?>
<!-- Generator: Adobe Illustrator 15.1.0, SVG Export Plug-In . SVG Version: 6.00 Build 0)  -->
<!DOCTYPE svg PUBLIC "-//W3C//DTD SVG 1.1//EN" "http://www.w3.org/Graphics/SVG/1.1/DTD/svg11.dtd">
<svg version="1.1" id="Layer_1" xmlns="http://www.w3.org/2000/svg" xmlns:xlink="http://www.w3.org/1999/xlink" x="0px" y="0px"
	 width="42.184px" height="23.44px" viewBox="0 0 42.184 23.44" enable-background="new 0 0 42.184 23.44" xml:space="preserve">
<g>
	<g>
		<path fill="#62BFB6" d="M19.238,0.211c0.141,0.141,0.211,0.32,0.211,0.539V1.5h3V0.75c0-0.219,0.07-0.398,0.211-0.539
			S22.98,0,23.199,0s0.398,0.07,0.539,0.211s0.211,0.32,0.211,0.539V1.5h1.125c0.313,0.016,0.578,0.125,0.797,0.328
			c0.203,0.219,0.313,0.484,0.328,0.797V3.75h-10.5V2.625c0.016-0.313,0.125-0.578,0.328-0.797c0.219-0.203,0.484-0.313,0.797-0.328
			h1.125V0.75c0-0.219,0.07-0.398,0.211-0.539S18.48,0,18.699,0S19.098,0.07,19.238,0.211z M26.199,4.5h-10.5H26.199v6.375
			c-0.016,0.313-0.125,0.578-0.328,0.797c-0.219,0.203-0.484,0.313-0.797,0.328h-8.25c-0.313-0.016-0.578-0.125-0.797-0.328
			c-0.203-0.219-0.313-0.484-0.328-0.797V4.5H26.199z M23.41,6.352c-0.266-0.219-0.531-0.219-0.797,0l-2.227,2.227l-1.102-1.102
			c-0.266-0.219-0.531-0.219-0.797,0c-0.219,0.266-0.219,0.531,0,0.797l1.5,1.5c0.266,0.219,0.531,0.219,0.797,0l2.625-2.625
			C23.629,6.883,23.629,6.618,23.41,6.352z"/>
	</g>
	<g>
		<path fill="#636466" d="M0,21.85v-5.727h1.973c0.445,0,0.785,0.027,1.02,0.082c0.328,0.075,0.608,0.212,0.84,0.41
			c0.302,0.255,0.528,0.581,0.678,0.979s0.225,0.851,0.225,1.361c0,0.435-0.051,0.82-0.152,1.156s-0.232,0.614-0.391,0.834
			s-0.333,0.394-0.521,0.52s-0.417,0.222-0.684,0.287s-0.574,0.098-0.92,0.098H0z M0.758,21.174H1.98
			c0.377,0,0.674-0.035,0.889-0.105s0.386-0.169,0.514-0.297c0.18-0.18,0.32-0.421,0.42-0.725s0.15-0.671,0.15-1.104
			c0-0.599-0.098-1.06-0.295-1.381s-0.436-0.537-0.717-0.646c-0.203-0.078-0.53-0.117-0.98-0.117H0.758V21.174z"/>
		<path fill="#636466" d="M5.691,16.932v-0.809h0.703v0.809H5.691z M5.691,21.85v-4.148h0.703v4.148H5.691z"/>
		<path fill="#636466" d="M7.184,20.612l0.695-0.109c0.039,0.278,0.148,0.492,0.326,0.641s0.428,0.223,0.748,0.223
			c0.323,0,0.563-0.065,0.719-0.197s0.234-0.286,0.234-0.463c0-0.159-0.069-0.284-0.207-0.375c-0.096-0.063-0.336-0.142-0.719-0.238
			c-0.516-0.13-0.873-0.243-1.072-0.338s-0.35-0.227-0.453-0.395s-0.154-0.354-0.154-0.557c0-0.185,0.042-0.356,0.127-0.514
			s0.2-0.288,0.346-0.393c0.109-0.081,0.258-0.149,0.447-0.205s0.391-0.084,0.607-0.084c0.326,0,0.611,0.047,0.857,0.141
			s0.428,0.221,0.545,0.381s0.198,0.374,0.242,0.643l-0.688,0.094c-0.031-0.214-0.122-0.38-0.271-0.5s-0.361-0.18-0.635-0.18
			c-0.323,0-0.553,0.054-0.691,0.16S7.98,18.578,7.98,18.721c0,0.091,0.029,0.173,0.086,0.246c0.057,0.075,0.147,0.138,0.27,0.188
			c0.07,0.026,0.277,0.086,0.621,0.18c0.498,0.133,0.844,0.241,1.041,0.326s0.351,0.208,0.463,0.369s0.168,0.362,0.168,0.602
			c0,0.234-0.068,0.455-0.205,0.662s-0.334,0.367-0.592,0.48s-0.549,0.17-0.875,0.17c-0.539,0-0.95-0.112-1.232-0.336
			S7.262,21.052,7.184,20.612z"/>
		<path fill="#636466" d="M11.465,23.44v-5.738h0.641v0.539c0.151-0.211,0.322-0.369,0.512-0.475s0.42-0.158,0.691-0.158
			c0.354,0,0.667,0.091,0.938,0.273s0.475,0.439,0.613,0.771s0.207,0.696,0.207,1.092c0,0.425-0.076,0.807-0.229,1.146
			s-0.374,0.601-0.664,0.781s-0.596,0.271-0.916,0.271c-0.234,0-0.445-0.05-0.631-0.148s-0.339-0.224-0.459-0.375v2.02H11.465z
			 M12.102,19.799c0,0.534,0.108,0.929,0.324,1.184s0.478,0.383,0.785,0.383c0.313,0,0.58-0.132,0.803-0.396
			s0.334-0.674,0.334-1.229c0-0.528-0.109-0.925-0.326-1.188s-0.477-0.395-0.779-0.395c-0.299,0-0.564,0.14-0.795,0.42
			S12.102,19.265,12.102,19.799z"/>
		<path fill="#636466" d="M15.652,19.776c0-0.769,0.213-1.337,0.641-1.707c0.357-0.308,0.792-0.461,1.305-0.461
			c0.57,0,1.037,0.187,1.398,0.561s0.543,0.89,0.543,1.549c0,0.534-0.08,0.954-0.24,1.26s-0.393,0.544-0.699,0.713
			s-0.64,0.254-1.002,0.254c-0.581,0-1.05-0.187-1.408-0.559S15.652,20.476,15.652,19.776z M16.375,19.776
			c0,0.531,0.116,0.929,0.348,1.193s0.523,0.396,0.875,0.396c0.349,0,0.639-0.133,0.871-0.398s0.348-0.671,0.348-1.215
			c0-0.513-0.117-0.901-0.35-1.166s-0.523-0.396-0.869-0.396c-0.352,0-0.643,0.132-0.875,0.395S16.375,19.245,16.375,19.776z"/>
		<path fill="#636466" d="M20.363,21.85v-4.148h0.633v0.59c0.305-0.456,0.745-0.684,1.32-0.684c0.25,0,0.48,0.045,0.689,0.135
			s0.367,0.208,0.471,0.354s0.177,0.319,0.219,0.52c0.026,0.13,0.039,0.358,0.039,0.684v2.551h-0.703v-2.523
			c0-0.286-0.027-0.501-0.082-0.643s-0.152-0.255-0.291-0.34s-0.303-0.127-0.49-0.127c-0.299,0-0.558,0.095-0.775,0.285
			s-0.326,0.551-0.326,1.082v2.266H20.363z"/>
		<path fill="#636466" d="M24.816,16.932v-0.809h0.703v0.809H24.816z M24.816,21.85v-4.148h0.703v4.148H24.816z"/>
		<path fill="#636466" d="M27.238,21.85h-0.652v-5.727h0.703v2.043c0.297-0.372,0.676-0.559,1.137-0.559
			c0.255,0,0.497,0.052,0.725,0.154s0.416,0.247,0.563,0.434s0.262,0.411,0.346,0.674s0.125,0.544,0.125,0.844
			c0,0.711-0.176,1.261-0.527,1.648s-0.773,0.582-1.266,0.582c-0.49,0-0.874-0.204-1.152-0.613V21.85z M27.23,19.745
			c0,0.497,0.068,0.856,0.203,1.078c0.221,0.362,0.521,0.543,0.898,0.543c0.307,0,0.573-0.134,0.797-0.4s0.336-0.665,0.336-1.193
			c0-0.542-0.107-0.941-0.322-1.199s-0.475-0.387-0.779-0.387c-0.307,0-0.573,0.134-0.797,0.4S27.23,19.24,27.23,19.745z"/>
		<path fill="#636466" d="M31.043,16.932v-0.809h0.703v0.809H31.043z M31.043,21.85v-4.148h0.703v4.148H31.043z"/>
		<path fill="#636466" d="M32.801,21.85v-5.727h0.703v5.727H32.801z"/>
		<path fill="#636466" d="M34.598,16.932v-0.809h0.703v0.809H34.598z M34.598,21.85v-4.148h0.703v4.148H34.598z"/>
		<path fill="#636466" d="M37.906,21.221l0.102,0.621c-0.198,0.042-0.375,0.063-0.531,0.063c-0.255,0-0.453-0.04-0.594-0.121
			s-0.24-0.187-0.297-0.318s-0.086-0.408-0.086-0.83v-2.387h-0.516v-0.547H36.5v-1.027l0.699-0.422v1.449h0.707v0.547h-0.707v2.426
			c0,0.2,0.012,0.329,0.037,0.387s0.065,0.103,0.121,0.137s0.136,0.051,0.24,0.051C37.676,21.249,37.779,21.24,37.906,21.221z"/>
		<path fill="#636466" d="M41.434,20.514l0.727,0.09c-0.115,0.425-0.327,0.754-0.637,0.988s-0.706,0.352-1.188,0.352
			c-0.607,0-1.088-0.187-1.443-0.561s-0.533-0.897-0.533-1.572c0-0.698,0.18-1.239,0.539-1.625s0.826-0.578,1.398-0.578
			c0.555,0,1.008,0.188,1.359,0.566s0.527,0.909,0.527,1.594c0,0.042-0.001,0.104-0.004,0.188h-3.094
			c0.026,0.456,0.155,0.805,0.387,1.047s0.521,0.363,0.867,0.363c0.258,0,0.478-0.067,0.66-0.203S41.327,20.811,41.434,20.514z
			 M39.125,19.377h2.316c-0.031-0.349-0.12-0.61-0.266-0.785c-0.224-0.271-0.514-0.406-0.871-0.406
			c-0.323,0-0.594,0.108-0.814,0.324S39.148,19.015,39.125,19.377z M39.883,17.186l0.52-1.094h0.922l-0.859,1.094H39.883z"/>
	</g>
</g>
</svg>
