<?xml version="1.0" encoding="utf-8"?>
<!-- Generator: Adobe Illustrator 15.1.0, SVG Export Plug-In . SVG Version: 6.00 Build 0)  -->
<!DOCTYPE svg PUBLIC "-//W3C//DTD SVG 1.1//EN" "http://www.w3.org/Graphics/SVG/1.1/DTD/svg11.dtd">
<svg version="1.1" id="Layer_1" xmlns="http://www.w3.org/2000/svg" xmlns:xlink="http://www.w3.org/1999/xlink" x="0px" y="0px"
	 width="83.693px" height="20.34px" viewBox="0 0 83.693 20.34" enable-background="new 0 0 83.693 20.34" xml:space="preserve">
<g>
	<rect fill="#62BFB6" width="83.693" height="20.34"/>
	<g>
		<path d="M6.795,13.853v-8.59h2.959c0.668,0,1.178,0.041,1.529,0.123c0.492,0.113,0.912,0.318,1.26,0.615
			c0.453,0.383,0.792,0.872,1.017,1.468s0.337,1.276,0.337,2.042c0,0.652-0.076,1.23-0.229,1.734s-0.348,0.921-0.586,1.251
			s-0.499,0.59-0.782,0.779s-0.625,0.333-1.025,0.431s-0.86,0.146-1.38,0.146H6.795z M7.932,12.839h1.834
			c0.566,0,1.011-0.053,1.333-0.158s0.579-0.254,0.771-0.445c0.27-0.27,0.479-0.632,0.63-1.087s0.226-1.007,0.226-1.655
			c0-0.898-0.147-1.589-0.442-2.071s-0.653-0.806-1.075-0.97c-0.305-0.117-0.795-0.176-1.471-0.176H7.932V12.839z"/>
		<path d="M15.333,6.476V5.263h1.055v1.213H15.333z M15.333,13.853V7.63h1.055v6.223H15.333z"/>
		<path d="M17.571,11.995l1.043-0.164c0.059,0.418,0.222,0.738,0.489,0.961s0.642,0.334,1.122,0.334
			c0.484,0,0.844-0.099,1.078-0.296s0.352-0.429,0.352-0.694c0-0.238-0.104-0.426-0.311-0.563c-0.145-0.094-0.504-0.213-1.078-0.357
			c-0.773-0.195-1.31-0.364-1.608-0.507s-0.525-0.34-0.68-0.592s-0.231-0.53-0.231-0.835c0-0.277,0.063-0.534,0.19-0.771
			s0.3-0.433,0.519-0.589c0.164-0.121,0.388-0.224,0.671-0.308s0.587-0.126,0.911-0.126c0.488,0,0.917,0.07,1.286,0.211
			s0.642,0.331,0.817,0.571s0.297,0.562,0.363,0.964l-1.031,0.141c-0.047-0.32-0.183-0.57-0.407-0.75s-0.542-0.27-0.952-0.27
			c-0.484,0-0.83,0.08-1.037,0.24s-0.311,0.348-0.311,0.563c0,0.137,0.043,0.26,0.129,0.369c0.086,0.113,0.221,0.207,0.404,0.281
			c0.105,0.039,0.416,0.129,0.932,0.27c0.746,0.199,1.267,0.362,1.562,0.489s0.526,0.312,0.694,0.554s0.252,0.543,0.252,0.902
			c0,0.352-0.103,0.683-0.308,0.993s-0.501,0.551-0.888,0.721s-0.824,0.255-1.313,0.255c-0.809,0-1.425-0.168-1.849-0.504
			S17.688,12.655,17.571,11.995z"/>
		<path d="M23.993,16.237V7.63h0.961v0.809c0.227-0.316,0.482-0.554,0.768-0.712s0.631-0.237,1.037-0.237
			c0.531,0,1,0.137,1.406,0.41s0.713,0.659,0.92,1.157s0.311,1.044,0.311,1.638c0,0.637-0.114,1.21-0.343,1.72
			s-0.561,0.9-0.996,1.172s-0.894,0.407-1.374,0.407c-0.352,0-0.667-0.074-0.946-0.223s-0.509-0.336-0.688-0.563v3.029H23.993z
			 M24.948,10.776c0,0.801,0.162,1.393,0.486,1.775s0.717,0.574,1.178,0.574c0.469,0,0.87-0.198,1.204-0.595
			s0.501-1.011,0.501-1.843c0-0.793-0.163-1.387-0.489-1.781s-0.716-0.592-1.169-0.592c-0.449,0-0.847,0.21-1.192,0.63
			S24.948,9.976,24.948,10.776z"/>
		<path d="M30.274,10.741c0-1.152,0.32-2.006,0.961-2.561c0.535-0.461,1.188-0.691,1.957-0.691c0.855,0,1.555,0.28,2.098,0.841
			s0.814,1.335,0.814,2.323c0,0.801-0.12,1.431-0.36,1.89s-0.59,0.815-1.049,1.069s-0.96,0.381-1.503,0.381
			c-0.871,0-1.575-0.279-2.112-0.838S30.274,11.792,30.274,10.741z M31.358,10.741c0,0.797,0.174,1.394,0.521,1.79
			s0.785,0.595,1.313,0.595c0.523,0,0.959-0.199,1.307-0.598s0.521-1.006,0.521-1.822c0-0.77-0.175-1.353-0.524-1.749
			s-0.784-0.595-1.304-0.595c-0.527,0-0.965,0.197-1.313,0.592S31.358,9.944,31.358,10.741z"/>
		<path d="M37.34,13.853V7.63h0.949v0.885c0.457-0.684,1.117-1.025,1.98-1.025c0.375,0,0.72,0.067,1.034,0.202
			s0.55,0.312,0.706,0.53s0.266,0.479,0.328,0.779c0.039,0.195,0.059,0.537,0.059,1.025v3.826h-1.055v-3.785
			c0-0.43-0.041-0.751-0.123-0.964s-0.228-0.383-0.437-0.51s-0.454-0.19-0.735-0.19c-0.449,0-0.837,0.143-1.163,0.428
			s-0.489,0.826-0.489,1.623v3.398H37.34z"/>
		<path d="M44.02,6.476V5.263h1.055v1.213H44.02z M44.02,13.853V7.63h1.055v6.223H44.02z"/>
		<path d="M46.657,13.853v-8.59h1.055v8.59H46.657z"/>
		<path d="M49.352,6.476V5.263h1.055v1.213H49.352z M49.352,13.853V7.63h1.055v6.223H49.352z"/>
		<path d="M54.315,12.909l0.152,0.932c-0.297,0.063-0.563,0.094-0.797,0.094c-0.383,0-0.68-0.061-0.891-0.182
			s-0.359-0.28-0.445-0.478s-0.129-0.612-0.129-1.245V8.45h-0.773V7.63h0.773V6.089l1.049-0.633V7.63h1.061v0.82h-1.061v3.639
			c0,0.301,0.019,0.494,0.056,0.58s0.098,0.154,0.182,0.205s0.204,0.076,0.36,0.076C53.969,12.95,54.124,12.937,54.315,12.909z"/>
		<path d="M59.606,11.849l1.09,0.135c-0.172,0.637-0.49,1.131-0.955,1.482s-1.059,0.527-1.781,0.527c-0.91,0-1.632-0.28-2.165-0.841
			s-0.8-1.347-0.8-2.358c0-1.047,0.27-1.859,0.809-2.438s1.238-0.867,2.098-0.867c0.832,0,1.512,0.283,2.039,0.85
			s0.791,1.363,0.791,2.391c0,0.063-0.002,0.156-0.006,0.281h-4.641c0.039,0.684,0.232,1.207,0.58,1.57s0.781,0.545,1.301,0.545
			c0.387,0,0.717-0.102,0.99-0.305S59.446,12.294,59.606,11.849z M56.143,10.144h3.475c-0.047-0.523-0.18-0.916-0.398-1.178
			c-0.336-0.406-0.771-0.609-1.307-0.609c-0.484,0-0.892,0.162-1.222,0.486S56.178,9.601,56.143,10.144z M57.28,6.856l0.779-1.641
			h1.383l-1.289,1.641H57.28z"/>
		<path d="M71.858,14.392l-3.75-3.75c-0.141-0.156-0.211-0.336-0.211-0.539s0.07-0.383,0.211-0.539
			c0.156-0.141,0.336-0.211,0.539-0.211s0.383,0.07,0.539,0.211l2.461,2.484V4.853c0-0.219,0.07-0.398,0.211-0.539
			s0.32-0.211,0.539-0.211s0.398,0.07,0.539,0.211s0.211,0.32,0.211,0.539v7.195l2.461-2.484c0.156-0.141,0.336-0.211,0.539-0.211
			s0.383,0.07,0.539,0.211c0.141,0.156,0.211,0.336,0.211,0.539s-0.07,0.383-0.211,0.539l-3.75,3.75
			c-0.156,0.141-0.336,0.211-0.539,0.211S72.014,14.532,71.858,14.392z"/>
	</g>
</g>
<g>
	<g>
		<path fill="#FFFFFF" d="M57.104,10.199c-0.1-0.372,0.024-0.642,0.371-0.809c0.154-0.058,0.309-0.057,0.467,0.001l9.337,3.619
			c0.164,0.075,0.278,0.198,0.341,0.369c0.093,0.354-0.025,0.612-0.354,0.773l-3.024,1.124l2.521,2.389
			c0.179,0.166,0.272,0.365,0.28,0.596c0.007,0.23-0.069,0.443-0.229,0.64c-0.174,0.161-0.375,0.246-0.606,0.254
			s-0.444-0.068-0.639-0.229l-2.591-2.42l-1.197,3.215c-0.075,0.165-0.198,0.278-0.369,0.342c-0.354,0.094-0.612-0.025-0.773-0.354
			L57.104,10.199l3.533,9.509L57.104,10.199z"/>
		<path d="M66.584,19.334c-0.116,0.043-0.24,0.066-0.369,0.071c-0.293,0.009-0.564-0.087-0.807-0.286l-2.329-2.176l-1.066,2.865
			c-0.111,0.242-0.282,0.4-0.517,0.488c-0.495,0.131-0.871-0.041-1.085-0.479l-3.542-9.533c-0.138-0.51,0.041-0.9,0.496-1.12
			c0.002-0.001,0.004-0.001,0.005-0.003c0.23-0.084,0.444-0.084,0.657-0.006l9.341,3.621c0.24,0.11,0.398,0.281,0.485,0.516
			c0.131,0.494-0.042,0.871-0.479,1.084l-2.671,0.994l2.229,2.113c0.227,0.211,0.348,0.471,0.358,0.77
			c0.009,0.291-0.087,0.563-0.286,0.806C66.863,19.196,66.729,19.279,66.584,19.334z M62.873,16.066l2.865,2.678
			c0.136,0.11,0.291,0.167,0.461,0.162c0.168-0.006,0.313-0.067,0.443-0.188c0.098-0.125,0.155-0.279,0.149-0.449
			c-0.005-0.162-0.071-0.301-0.201-0.421l-2.813-2.666l3.401-1.264c0.2-0.099,0.263-0.235,0.2-0.476
			c-0.033-0.085-0.1-0.157-0.204-0.205l-9.323-3.613c-0.098-0.037-0.191-0.037-0.29,0c-0.212,0.104-0.282,0.251-0.219,0.498
			l3.528,9.498c0.1,0.201,0.235,0.263,0.475,0.199c0.085-0.033,0.158-0.1,0.206-0.203L62.873,16.066z"/>
	</g>
</g>
</svg>
