<?xml version="1.0" encoding="utf-8"?>
<!-- Generator: Adobe Illustrator 15.1.0, SVG Export Plug-In . SVG Version: 6.00 Build 0)  -->
<!DOCTYPE svg PUBLIC "-//W3C//DTD SVG 1.1//EN" "http://www.w3.org/Graphics/SVG/1.1/DTD/svg11.dtd">
<svg version="1.1" id="Layer_1" xmlns="http://www.w3.org/2000/svg" xmlns:xlink="http://www.w3.org/1999/xlink" x="0px" y="0px"
	 width="168.571px" height="14.172px" viewBox="0 0 168.571 14.172" enable-background="new 0 0 168.571 14.172"
	 xml:space="preserve">
<g>
	<path fill="#183860" d="M18.304,10.761c2.026,0,3.675-1.649,3.675-3.676c0-2.027-1.649-3.675-3.675-3.675H4.252
		c-2.026,0-3.675,1.648-3.675,3.675c0,2.026,1.649,3.676,3.675,3.676H18.304z"/>
	<g>
		<g>
			<g>
				<path fill="#62BFB6" d="M4.252,2.835h14.052c2.345,0,4.252,1.906,4.252,4.25c0,2.345-1.907,4.253-4.252,4.253H4.252
					C1.906,11.338,0,9.43,0,7.085C-0.001,4.741,1.906,2.835,4.252,2.835z M18.304,10.761c2.026,0,3.675-1.649,3.675-3.676
					c0-2.027-1.649-3.675-3.675-3.675H4.252c-2.026,0-3.675,1.648-3.675,3.675c0,2.026,1.649,3.676,3.675,3.676H18.304z"/>
			</g>
			<circle fill="#FFFFFF" cx="18.294" cy="7.086" r="3.397"/>
		</g>
	</g>
	<g>
		<path d="M25.169,9.198V4.903h0.867v4.294H25.169z"/>
		<path d="M29.687,9.198h-0.822V7.61c0-0.335-0.018-0.552-0.053-0.651c-0.035-0.098-0.093-0.175-0.172-0.23
			c-0.079-0.054-0.174-0.082-0.285-0.082c-0.143,0-0.271,0.04-0.385,0.117c-0.113,0.079-0.191,0.182-0.232,0.311
			s-0.063,0.367-0.063,0.715v1.408h-0.824V6.087h0.766v0.457c0.271-0.352,0.613-0.527,1.025-0.527c0.182,0,0.347,0.033,0.498,0.098
			c0.15,0.066,0.264,0.149,0.341,0.25c0.077,0.102,0.131,0.217,0.161,0.346s0.045,0.313,0.045,0.554V9.198z"/>
		<path d="M33.376,9.198h-0.766V8.741c-0.126,0.178-0.277,0.311-0.45,0.397s-0.347,0.13-0.523,0.13
			c-0.357,0-0.664-0.145-0.918-0.432s-0.382-0.689-0.382-1.205c0-0.528,0.125-0.928,0.373-1.203
			c0.248-0.274,0.561-0.412,0.939-0.412c0.348,0,0.649,0.145,0.902,0.434V4.903h0.824V9.198z M31.179,7.575
			c0,0.333,0.045,0.573,0.137,0.721c0.133,0.216,0.319,0.322,0.557,0.322c0.19,0,0.351-0.08,0.484-0.241
			c0.132-0.161,0.199-0.401,0.199-0.722c0-0.358-0.064-0.615-0.193-0.772c-0.129-0.157-0.294-0.236-0.496-0.236
			c-0.195,0-0.359,0.078-0.491,0.233S31.179,7.267,31.179,7.575z"/>
		<path d="M34.187,5.665V4.903h0.824v0.762H34.187z M34.187,9.198V6.087h0.824v3.111H34.187z"/>
		<path d="M37.887,10.381V8.817c-0.108,0.14-0.242,0.248-0.402,0.33c-0.161,0.082-0.333,0.121-0.518,0.121
			c-0.354,0-0.645-0.133-0.873-0.398c-0.269-0.311-0.404-0.73-0.404-1.262c0-0.5,0.126-0.89,0.378-1.171
			c0.252-0.28,0.567-0.42,0.942-0.42c0.207,0,0.387,0.044,0.538,0.132c0.151,0.088,0.286,0.221,0.403,0.398v-0.46h0.758v4.294
			H37.887z M37.913,7.604c0-0.318-0.064-0.555-0.195-0.71c-0.13-0.155-0.292-0.233-0.487-0.233c-0.199,0-0.366,0.079-0.5,0.237
			c-0.134,0.158-0.201,0.41-0.201,0.752c0,0.342,0.064,0.588,0.193,0.74s0.288,0.227,0.478,0.227c0.189,0,0.354-0.084,0.498-0.254
			C37.842,8.194,37.913,7.94,37.913,7.604z"/>
		<path d="M41.568,9.198V8.733c-0.114,0.165-0.264,0.297-0.448,0.393c-0.185,0.095-0.378,0.143-0.583,0.143
			c-0.21,0-0.397-0.045-0.563-0.137c-0.167-0.093-0.287-0.222-0.361-0.387c-0.074-0.166-0.111-0.396-0.111-0.689V6.087h0.824v1.429
			c0,0.438,0.015,0.705,0.044,0.805c0.03,0.1,0.086,0.176,0.167,0.234c0.079,0.059,0.182,0.086,0.305,0.086
			c0.141,0,0.266-0.039,0.377-0.115s0.188-0.173,0.229-0.287s0.063-0.395,0.063-0.84V6.087h0.822v3.111H41.568z"/>
		<path d="M44.986,8.208l0.82,0.139c-0.105,0.3-0.272,0.529-0.5,0.687c-0.227,0.157-0.512,0.235-0.854,0.235
			c-0.541,0-0.941-0.177-1.201-0.529c-0.205-0.283-0.308-0.641-0.308-1.072c0-0.516,0.135-0.919,0.404-1.212
			c0.27-0.292,0.61-0.438,1.022-0.438c0.463,0,0.828,0.153,1.096,0.458c0.268,0.306,0.396,0.774,0.384,1.404h-2.063
			c0.006,0.245,0.072,0.436,0.199,0.57s0.285,0.203,0.475,0.203c0.129,0,0.237-0.035,0.325-0.105S44.941,8.365,44.986,8.208z
			 M45.032,7.376c-0.006-0.238-0.067-0.419-0.185-0.543c-0.117-0.124-0.26-0.186-0.428-0.186c-0.18,0-0.328,0.066-0.445,0.196
			c-0.117,0.131-0.175,0.309-0.173,0.533H45.032z"/>
		<path d="M46.19,9.198V8.557l1.166-1.339C47.547,7,47.689,6.844,47.781,6.752c-0.096,0.006-0.222,0.01-0.378,0.012L46.304,6.77
			V6.087h2.572V6.67l-1.189,1.372l-0.419,0.453c0.229-0.013,0.37-0.02,0.425-0.02h1.274v0.723H46.19z"/>
		<path d="M52.043,9.198l-1.254-3.111h0.864l0.586,1.587l0.17,0.531c0.044-0.135,0.073-0.225,0.085-0.268
			c0.026-0.088,0.056-0.176,0.088-0.264l0.592-1.587h0.846l-1.236,3.111H52.043z"/>
		<path d="M54.334,7.598c0-0.272,0.066-0.537,0.201-0.793c0.135-0.255,0.326-0.451,0.573-0.586s0.522-0.202,0.827-0.202
			c0.472,0,0.856,0.153,1.158,0.458c0.3,0.306,0.451,0.692,0.451,1.158c0,0.471-0.152,0.861-0.456,1.171s-0.686,0.464-1.147,0.464
			c-0.284,0-0.557-0.064-0.815-0.193s-0.456-0.317-0.591-0.566S54.334,7.956,54.334,7.598z M55.178,7.643
			c0,0.309,0.072,0.545,0.219,0.709s0.327,0.246,0.543,0.246c0.214,0,0.395-0.082,0.54-0.246s0.218-0.403,0.218-0.715
			c0-0.305-0.072-0.54-0.218-0.704s-0.326-0.246-0.54-0.246c-0.216,0-0.396,0.082-0.543,0.246S55.178,7.334,55.178,7.643z"/>
		<path d="M57.899,8.311l0.826-0.127c0.035,0.16,0.106,0.283,0.215,0.365c0.106,0.082,0.258,0.125,0.451,0.125
			c0.212,0,0.372-0.04,0.479-0.117c0.072-0.055,0.108-0.128,0.108-0.221c0-0.063-0.019-0.113-0.059-0.154
			c-0.041-0.04-0.132-0.075-0.275-0.109c-0.663-0.146-1.085-0.279-1.262-0.4c-0.246-0.168-0.369-0.402-0.369-0.701
			c0-0.27,0.106-0.496,0.318-0.68c0.214-0.183,0.544-0.275,0.99-0.275c0.427,0,0.743,0.07,0.949,0.208
			c0.208,0.139,0.351,0.344,0.428,0.615l-0.776,0.144c-0.033-0.121-0.096-0.214-0.189-0.278c-0.092-0.064-0.225-0.097-0.396-0.097
			c-0.217,0-0.373,0.031-0.467,0.091c-0.062,0.043-0.094,0.099-0.094,0.167c0,0.059,0.028,0.108,0.082,0.149
			c0.075,0.055,0.331,0.132,0.769,0.231c0.439,0.1,0.746,0.222,0.919,0.367c0.173,0.146,0.258,0.35,0.258,0.611
			c0,0.286-0.118,0.531-0.357,0.736c-0.237,0.205-0.591,0.307-1.057,0.307c-0.425,0-0.76-0.086-1.007-0.258
			C58.137,8.839,57.975,8.605,57.899,8.311z"/>
		<path d="M66.046,9.198h-0.765V8.741c-0.127,0.178-0.276,0.311-0.45,0.397c-0.172,0.087-0.347,0.13-0.522,0.13
			c-0.357,0-0.663-0.145-0.919-0.432c-0.254-0.287-0.382-0.689-0.382-1.205c0-0.528,0.124-0.928,0.372-1.203
			c0.248-0.274,0.562-0.412,0.94-0.412c0.348,0,0.649,0.145,0.902,0.434V4.903h0.823V9.198z M63.849,7.575
			c0,0.333,0.046,0.573,0.138,0.721c0.134,0.216,0.318,0.322,0.557,0.322c0.189,0,0.351-0.08,0.483-0.241s0.199-0.401,0.199-0.722
			c0-0.358-0.064-0.615-0.193-0.772c-0.129-0.157-0.294-0.236-0.495-0.236c-0.194,0-0.358,0.078-0.491,0.233
			C63.915,7.035,63.849,7.267,63.849,7.575z"/>
		<path d="M66.858,5.665V4.903h0.823v0.762H66.858z M66.858,9.198V6.087h0.823v3.111H66.858z"/>
		<path d="M68.235,8.311l0.826-0.127c0.035,0.16,0.106,0.283,0.214,0.365s0.258,0.125,0.451,0.125c0.213,0,0.373-0.04,0.48-0.117
			c0.072-0.055,0.108-0.128,0.108-0.221c0-0.063-0.019-0.113-0.059-0.154c-0.041-0.04-0.133-0.075-0.275-0.109
			c-0.663-0.146-1.085-0.279-1.263-0.4c-0.246-0.168-0.369-0.402-0.369-0.701c0-0.27,0.107-0.496,0.319-0.68
			c0.213-0.183,0.544-0.275,0.99-0.275c0.427,0,0.743,0.07,0.949,0.208c0.207,0.139,0.351,0.344,0.428,0.615l-0.776,0.144
			c-0.033-0.121-0.096-0.214-0.189-0.278c-0.093-0.064-0.225-0.097-0.396-0.097c-0.217,0-0.372,0.031-0.466,0.091
			c-0.063,0.043-0.094,0.099-0.094,0.167c0,0.059,0.028,0.108,0.082,0.149c0.075,0.055,0.33,0.132,0.769,0.231
			c0.439,0.1,0.745,0.222,0.919,0.367c0.172,0.146,0.258,0.35,0.258,0.611c0,0.286-0.118,0.531-0.357,0.736
			c-0.238,0.205-0.591,0.307-1.058,0.307c-0.424,0-0.759-0.086-1.006-0.258C68.472,8.839,68.311,8.605,68.235,8.311z"/>
		<path d="M71.837,6.087h0.768v0.457c0.1-0.156,0.234-0.283,0.404-0.381c0.17-0.097,0.359-0.146,0.566-0.146
			c0.361,0,0.668,0.142,0.92,0.425c0.252,0.284,0.377,0.678,0.377,1.184c0,0.52-0.126,0.924-0.381,1.211
			c-0.253,0.287-0.561,0.432-0.922,0.432c-0.172,0-0.328-0.033-0.468-0.102c-0.14-0.069-0.287-0.187-0.44-0.352v1.566h-0.824V6.087z
			 M72.652,7.59c0,0.35,0.069,0.607,0.209,0.774c0.139,0.167,0.307,0.251,0.506,0.251c0.192,0,0.351-0.078,0.479-0.23
			c0.127-0.152,0.189-0.404,0.189-0.754c0-0.326-0.065-0.569-0.195-0.727c-0.131-0.158-0.293-0.237-0.486-0.237
			c-0.201,0-0.368,0.078-0.502,0.233C72.719,7.055,72.652,7.285,72.652,7.59z"/>
		<path d="M75.335,7.598c0-0.272,0.068-0.537,0.203-0.793c0.135-0.255,0.326-0.451,0.572-0.586c0.247-0.135,0.523-0.202,0.828-0.202
			c0.47,0,0.856,0.153,1.156,0.458c0.302,0.306,0.451,0.692,0.451,1.158c0,0.471-0.15,0.861-0.455,1.171
			c-0.304,0.31-0.686,0.464-1.146,0.464c-0.286,0-0.558-0.064-0.816-0.193c-0.258-0.129-0.455-0.317-0.59-0.566
			S75.335,7.956,75.335,7.598z M76.179,7.643c0,0.309,0.074,0.545,0.221,0.709s0.327,0.246,0.541,0.246
			c0.216,0,0.396-0.082,0.541-0.246C77.628,8.188,77.7,7.949,77.7,7.637c0-0.305-0.072-0.54-0.219-0.704
			c-0.146-0.164-0.325-0.246-0.541-0.246c-0.214,0-0.395,0.082-0.541,0.246S76.179,7.334,76.179,7.643z"/>
		<path d="M82.021,9.198h-0.822V7.61c0-0.335-0.018-0.552-0.053-0.651c-0.035-0.098-0.093-0.175-0.172-0.23
			c-0.079-0.054-0.174-0.082-0.285-0.082c-0.143,0-0.271,0.04-0.385,0.117c-0.112,0.079-0.19,0.182-0.232,0.311
			c-0.041,0.129-0.063,0.367-0.063,0.715v1.408h-0.824V6.087h0.766v0.457c0.271-0.352,0.613-0.527,1.025-0.527
			c0.182,0,0.347,0.033,0.498,0.098c0.149,0.066,0.264,0.149,0.341,0.25c0.077,0.102,0.131,0.217,0.16,0.346
			c0.031,0.129,0.046,0.313,0.046,0.554V9.198z"/>
		<path d="M82.857,5.665V4.903h0.822v0.762H82.857z M82.857,9.198V6.087h0.822v3.111H82.857z"/>
		<path d="M84.488,9.198V4.903h0.824V6.45c0.253-0.289,0.554-0.434,0.902-0.434c0.378,0,0.692,0.138,0.939,0.412
			c0.248,0.275,0.373,0.669,0.373,1.182c0,0.532-0.127,0.941-0.38,1.229s-0.561,0.43-0.921,0.43c-0.179,0-0.354-0.045-0.526-0.133
			c-0.174-0.088-0.322-0.22-0.446-0.395v0.457H84.488z M85.306,7.575c0,0.322,0.05,0.562,0.152,0.715
			c0.142,0.219,0.331,0.328,0.568,0.328c0.182,0,0.336-0.077,0.464-0.232s0.192-0.4,0.192-0.734c0-0.354-0.064-0.611-0.193-0.769
			c-0.129-0.157-0.295-0.236-0.496-0.236c-0.197,0-0.361,0.077-0.492,0.23C85.371,7.03,85.306,7.263,85.306,7.575z"/>
		<path d="M88.189,5.665V4.903h0.822v0.762H88.189z M88.189,9.198V6.087h0.822v3.111H88.189z"/>
		<path d="M89.855,9.198V4.903h0.824v4.294H89.855z"/>
		<path d="M91.522,5.665V4.903h0.823v0.762H91.522z M91.522,9.198V6.087h0.823v3.111H91.522z"/>
		<path d="M94.615,6.087v0.656h-0.563v1.253c0,0.254,0.005,0.402,0.016,0.444c0.012,0.042,0.035,0.076,0.074,0.104
			c0.037,0.027,0.084,0.041,0.139,0.041c0.076,0,0.187-0.027,0.331-0.08l0.07,0.639c-0.191,0.082-0.408,0.123-0.65,0.123
			c-0.147,0-0.282-0.024-0.401-0.074S93.424,9.08,93.369,9c-0.057-0.079-0.094-0.186-0.116-0.32
			c-0.018-0.096-0.026-0.289-0.026-0.58V6.743h-0.378V6.087h0.378V5.469l0.826-0.48v1.099H94.615z"/>
		<path d="M96.989,8.208l0.82,0.139c-0.105,0.3-0.271,0.529-0.5,0.687c-0.228,0.157-0.513,0.235-0.854,0.235
			c-0.541,0-0.942-0.177-1.201-0.529c-0.205-0.283-0.308-0.641-0.308-1.072c0-0.516,0.135-0.919,0.404-1.212
			c0.27-0.292,0.61-0.438,1.022-0.438c0.463,0,0.827,0.153,1.096,0.458c0.268,0.306,0.396,0.774,0.384,1.404H95.79
			c0.006,0.245,0.072,0.436,0.199,0.57s0.285,0.203,0.475,0.203c0.129,0,0.237-0.035,0.325-0.105S96.943,8.365,96.989,8.208z
			 M97.035,7.376c-0.006-0.238-0.067-0.419-0.185-0.543c-0.117-0.124-0.26-0.186-0.428-0.186c-0.18,0-0.328,0.066-0.445,0.196
			c-0.117,0.131-0.175,0.309-0.173,0.533H97.035z M95.984,5.706l0.404-0.876h0.923l-0.806,0.876H95.984z"/>
		<path d="M98.234,8.311l0.826-0.127c0.035,0.16,0.106,0.283,0.214,0.365c0.106,0.082,0.258,0.125,0.451,0.125
			c0.212,0,0.373-0.04,0.48-0.117c0.071-0.055,0.107-0.128,0.107-0.221c0-0.063-0.019-0.113-0.059-0.154
			c-0.041-0.04-0.132-0.075-0.275-0.109c-0.663-0.146-1.085-0.279-1.262-0.4c-0.246-0.168-0.369-0.402-0.369-0.701
			c0-0.27,0.106-0.496,0.319-0.68c0.213-0.183,0.543-0.275,0.99-0.275c0.426,0,0.742,0.07,0.948,0.208
			c0.208,0.139,0.351,0.344,0.428,0.615l-0.775,0.144c-0.034-0.121-0.096-0.214-0.189-0.278c-0.093-0.064-0.226-0.097-0.396-0.097
			c-0.217,0-0.372,0.031-0.466,0.091c-0.063,0.043-0.094,0.099-0.094,0.167c0,0.059,0.027,0.108,0.082,0.149
			c0.074,0.055,0.33,0.132,0.769,0.231c0.439,0.1,0.745,0.222,0.918,0.367c0.173,0.146,0.258,0.35,0.258,0.611
			c0,0.286-0.118,0.531-0.357,0.736c-0.237,0.205-0.59,0.307-1.057,0.307c-0.424,0-0.759-0.086-1.007-0.258
			C98.471,8.839,98.31,8.605,98.234,8.311z"/>
	</g>
</g>
</svg>
