<?xml version="1.0" encoding="utf-8"?>
<!-- Generator: Adobe Illustrator 15.1.0, SVG Export Plug-In . SVG Version: 6.00 Build 0)  -->
<!DOCTYPE svg PUBLIC "-//W3C//DTD SVG 1.1//EN" "http://www.w3.org/Graphics/SVG/1.1/DTD/svg11.dtd">
<svg version="1.1" id="Layer_1" xmlns="http://www.w3.org/2000/svg" xmlns:xlink="http://www.w3.org/1999/xlink" x="0px" y="0px"
	 width="22.5px" height="22.5px" viewBox="0 0 22.5 22.5" enable-background="new 0 0 22.5 22.5" xml:space="preserve">
<g>
	<path d="M18.6,7.475l-9.241,9.231L3.9,11.25c-0.189-0.195-0.282-0.428-0.28-0.7s0.1-0.503,0.291-0.695
		c0.192-0.192,0.424-0.289,0.695-0.291s0.505,0.091,0.7,0.28l4.068,4.064l7.831-7.826c0.194-0.189,0.428-0.282,0.699-0.28
		c0.271,0.002,0.503,0.1,0.695,0.292s0.289,0.423,0.291,0.695c0.003,0.271-0.091,0.505-0.279,0.7L18.6,7.475z M11.25,0
		c-0.738,0-1.471,0.072-2.195,0.216c-0.724,0.144-1.428,0.357-2.11,0.64C6.263,1.139,5.614,1.486,5,1.896
		C4.386,2.307,3.817,2.773,3.295,3.295C2.772,3.817,2.307,4.386,1.896,5c-0.41,0.614-0.757,1.263-1.039,1.945
		C0.573,7.627,0.36,8.331,0.216,9.055C0.072,9.78,0,10.511,0,11.25c0,0.739,0.072,1.47,0.216,2.194
		c0.145,0.725,0.357,1.429,0.641,2.111c0.282,0.682,0.629,1.33,1.039,1.944c0.411,0.614,0.877,1.183,1.399,1.705
		S4.386,20.194,5,20.604s1.263,0.757,1.944,1.039c0.683,0.283,1.387,0.496,2.11,0.641c0.725,0.145,1.457,0.216,2.195,0.216
		s1.471-0.071,2.194-0.216c0.725-0.145,1.429-0.357,2.11-0.641c0.683-0.282,1.331-0.629,1.945-1.039s1.183-0.877,1.705-1.399
		s0.988-1.091,1.398-1.705c0.411-0.614,0.758-1.263,1.04-1.944c0.282-0.683,0.496-1.387,0.641-2.111
		c0.144-0.725,0.216-1.455,0.216-2.194c0-0.739-0.072-1.47-0.216-2.195c-0.145-0.724-0.358-1.428-0.641-2.11
		C21.361,6.263,21.015,5.614,20.604,5c-0.41-0.614-0.876-1.183-1.398-1.705c-0.522-0.522-1.091-0.988-1.705-1.399
		c-0.614-0.41-1.263-0.757-1.945-1.04c-0.682-0.283-1.386-0.496-2.11-0.64C12.721,0.072,11.988,0,11.25,0z"/>
</g>
</svg>
