<?xml version="1.0" encoding="utf-8"?>
<!-- Generator: Adobe Illustrator 15.1.0, SVG Export Plug-In . SVG Version: 6.00 Build 0)  -->
<!DOCTYPE svg PUBLIC "-//W3C//DTD SVG 1.1//EN" "http://www.w3.org/Graphics/SVG/1.1/DTD/svg11.dtd">
<svg version="1.1" id="Layer_1" xmlns="http://www.w3.org/2000/svg" xmlns:xlink="http://www.w3.org/1999/xlink" x="0px" y="0px"
	 width="69.5px" height="36.75px" viewBox="0 0 69.5 36.75" enable-background="new 0 0 69.5 36.75" xml:space="preserve">
<g>
	<rect x="0.5" y="0.5" fill="#FFFFFF" width="68.5" height="35.75"/>
	<g>
		<g>
			<path fill="#292929" d="M14.558,25.222c0.001-0.005,0.001-0.01,0-0.016C14.559,25.212,14.562,25.233,14.558,25.222z"/>
			<path fill="#292929" d="M12.692,25.313c-0.017,0-0.034-0.004-0.051-0.006L12.692,25.313z M10.789,25.805l0.065-0.05
				C10.833,25.771,10.809,25.788,10.789,25.805L10.789,25.805z M14.271,30.381l0.027-0.035L14.271,30.381z M12.212,31.445
				c-0.303-0.007-0.6-0.054-0.891-0.138c-0.583-0.174-1.093-0.47-1.529-0.889c-0.218-0.212-0.411-0.443-0.578-0.696
				c-0.171-0.261-0.312-0.538-0.421-0.83c-0.01-0.025-0.02-0.051-0.029-0.077H7.415c-0.153-0.002-0.283-0.057-0.392-0.161
				c-0.107-0.108-0.161-0.237-0.161-0.388s0.054-0.28,0.161-0.388c0.108-0.105,0.239-0.159,0.392-0.161h0.009
				c0.206,0,0.412,0,0.621,0h0.482c-0.021-0.203-0.025-0.406-0.015-0.609c0.003-0.063,0.008-0.125,0.014-0.187H7.415
				c-0.152-0.002-0.282-0.055-0.392-0.159c-0.107-0.107-0.161-0.236-0.161-0.387s0.054-0.281,0.161-0.388
				c0.108-0.104,0.239-0.158,0.392-0.161h0.009c0.206,0,0.412,0,0.621,0h0.721c0.067-0.192,0.148-0.379,0.243-0.56
				c0.274-0.526,0.647-0.968,1.121-1.329c0.741-0.578,1.581-0.82,2.52-0.726c0.195,0.021,0.387,0.057,0.577,0.105
				c0.182,0.053,0.36,0.118,0.533,0.195c0.31,0.141,0.596,0.321,0.857,0.542c0.264,0.222,0.495,0.474,0.694,0.755
				c0.125,0.212,0.111,0.416-0.042,0.61c-0.151,0.194-0.347,0.259-0.586,0.194c-0.072-0.014-0.135-0.047-0.189-0.097
				c-0.061-0.039-0.108-0.089-0.143-0.153l-0.035-0.047c-0.154-0.188-0.326-0.359-0.516-0.511c-0.18-0.13-0.372-0.241-0.573-0.332
				c-0.396-0.165-0.806-0.221-1.231-0.166c-0.213,0.033-0.421,0.089-0.622,0.166c-0.21,0.093-0.407,0.208-0.591,0.345
				c-0.183,0.15-0.349,0.315-0.498,0.499c-0.122,0.163-0.229,0.334-0.322,0.514h2.571c0.153,0.002,0.284,0.056,0.393,0.161
				c0.108,0.107,0.162,0.236,0.162,0.387c-0.002,0.151-0.056,0.28-0.162,0.388c-0.109,0.105-0.24,0.159-0.393,0.159h-0.009
				c-0.208,0-0.414,0-0.621,0h-2.27c-0.025,0.265-0.025,0.53,0,0.796h2.9c0.152,0.002,0.283,0.056,0.392,0.162
				c0.108,0.107,0.162,0.236,0.163,0.388c-0.002,0.151-0.056,0.279-0.164,0.386c-0.107,0.106-0.237,0.161-0.39,0.162h-0.008
				c-0.208,0-0.414,0-0.621,0H9.963c0.092,0.179,0.198,0.349,0.318,0.51c0.151,0.187,0.319,0.354,0.507,0.505
				c0.182,0.137,0.378,0.251,0.587,0.342c0.197,0.078,0.401,0.133,0.611,0.166c0.207,0.021,0.413,0.021,0.619,0
				c0.208-0.032,0.408-0.086,0.603-0.16c0.219-0.097,0.424-0.217,0.616-0.36c0.186-0.152,0.354-0.322,0.504-0.509l0.02-0.027
				c0.05-0.083,0.117-0.151,0.2-0.204c0.045-0.017,0.088-0.036,0.133-0.055c0.146-0.042,0.287-0.025,0.421,0.05
				c0.132,0.075,0.22,0.186,0.26,0.333c0.025,0.072,0.029,0.146,0.01,0.222c-0.002,0.074-0.023,0.142-0.064,0.203
				c-0.111,0.155-0.231,0.303-0.36,0.443c-0.234,0.248-0.497,0.463-0.789,0.643c-0.125,0.077-0.254,0.145-0.389,0.203
				c-0.172,0.08-0.35,0.146-0.533,0.2c-0.19,0.049-0.382,0.084-0.577,0.104c-0.119,0.016-0.239,0.023-0.358,0.022L12.212,31.445z"/>
		</g>
		<g>
			<g>
				<path fill="#212529" d="M18.301,27.224c0-0.711,0.073-1.283,0.219-1.717c0.146-0.433,0.364-0.768,0.652-1.002
					c0.289-0.235,0.651-0.353,1.089-0.353c0.323,0,0.606,0.065,0.849,0.195s0.444,0.317,0.603,0.562s0.283,0.543,0.373,0.894
					c0.09,0.352,0.135,0.825,0.135,1.421c0,0.706-0.072,1.275-0.217,1.708c-0.145,0.434-0.361,0.769-0.65,1.005
					c-0.289,0.237-0.653,0.355-1.093,0.355c-0.58,0-1.035-0.208-1.366-0.624C18.499,29.168,18.301,28.354,18.301,27.224z
					 M19.06,27.224c0,0.987,0.116,1.644,0.347,1.971s0.516,0.49,0.855,0.49c0.339,0,0.624-0.164,0.855-0.492
					c0.231-0.328,0.346-0.984,0.346-1.969c0-0.99-0.115-1.647-0.346-1.973c-0.231-0.325-0.519-0.488-0.864-0.488
					c-0.339,0-0.609,0.144-0.812,0.431C19.187,25.56,19.06,26.237,19.06,27.224z"/>
			</g>
		</g>
		<g>
			<path fill="#292929" d="M36.615,24.878c0,0.101,0.048,0.151,0.144,0.15h1.352c0.097,0.001,0.145-0.049,0.144-0.15
				c0-0.102-0.048-0.153-0.144-0.153h-1.352C36.663,24.725,36.614,24.777,36.615,24.878L36.615,24.878z M36.615,26.074
				c-0.001,0.103,0.046,0.153,0.144,0.151h4.497c0.095,0,0.143-0.051,0.142-0.151c0-0.1-0.047-0.149-0.142-0.151h-4.497
				C36.663,25.922,36.614,25.973,36.615,26.074L36.615,26.074z M36.615,26.965c0,0.101,0.048,0.15,0.144,0.15h4.497
				c0.094-0.001,0.141-0.051,0.142-0.15c0-0.099-0.047-0.15-0.142-0.15h-4.497C36.663,26.812,36.614,26.863,36.615,26.965
				L36.615,26.965z M36.615,27.853c0,0.101,0.047,0.153,0.144,0.153h4.497c0.096,0,0.144-0.052,0.142-0.153
				c0-0.1-0.047-0.148-0.142-0.149h-4.497C36.664,27.703,36.615,27.752,36.615,27.853L36.615,27.853z M36.615,28.746
				c0,0.101,0.048,0.15,0.144,0.148h4.497c0.095,0,0.142-0.049,0.142-0.148c0-0.099-0.047-0.149-0.142-0.15h-4.497
				C36.663,28.594,36.614,28.644,36.615,28.746L36.615,28.746z M35.392,31.898v-9.207h7.02v6.833
				c-0.157-0.041-0.316-0.061-0.478-0.06c-0.259-0.002-0.509,0.049-0.749,0.152c-0.24,0.102-0.453,0.248-0.638,0.438
				c-0.185,0.191-0.328,0.414-0.429,0.665c-0.101,0.251-0.153,0.513-0.156,0.786c0,0.132,0.012,0.264,0.036,0.394L35.392,31.898z
				 M42.261,30.639v1.414c0,0.106,0.05,0.159,0.15,0.158h0.909c0.101,0.002,0.152-0.051,0.152-0.158s-0.051-0.159-0.152-0.157
				h-0.757v-1.256c-0.001-0.106-0.052-0.159-0.152-0.158C42.311,30.481,42.261,30.534,42.261,30.639L42.261,30.639z M40.443,31.896
				c0.002-0.273,0.053-0.535,0.155-0.787c0.101-0.25,0.244-0.473,0.429-0.664c0.185-0.192,0.397-0.338,0.638-0.44
				c0.241-0.103,0.49-0.153,0.75-0.15c0.259-0.002,0.509,0.049,0.75,0.151c0.241,0.102,0.453,0.249,0.638,0.439
				c0.185,0.192,0.328,0.414,0.429,0.665c0.101,0.251,0.153,0.513,0.155,0.786c-0.002,0.273-0.054,0.536-0.154,0.788
				c-0.102,0.251-0.244,0.474-0.429,0.665c-0.185,0.191-0.397,0.339-0.638,0.44c-0.24,0.103-0.49,0.153-0.75,0.15
				c-0.259,0.002-0.509-0.048-0.75-0.15c-0.24-0.103-0.453-0.25-0.638-0.44c-0.185-0.192-0.328-0.414-0.429-0.666
				C40.496,32.431,40.444,32.169,40.443,31.896z"/>
		</g>
		<g>
			<g>
				<path fill="#212529" d="M48.425,26.929c-0.306-0.112-0.533-0.272-0.681-0.48c-0.147-0.208-0.221-0.457-0.221-0.747
					c0-0.438,0.157-0.805,0.472-1.103c0.314-0.298,0.733-0.447,1.255-0.447c0.525,0,0.948,0.152,1.268,0.458
					c0.32,0.305,0.48,0.676,0.48,1.113c0,0.279-0.073,0.522-0.22,0.728c-0.146,0.207-0.368,0.366-0.667,0.478
					c0.369,0.12,0.65,0.314,0.843,0.583c0.193,0.268,0.29,0.588,0.29,0.959c0,0.514-0.182,0.946-0.546,1.296
					c-0.363,0.35-0.842,0.525-1.436,0.525c-0.593,0-1.072-0.176-1.436-0.527c-0.363-0.352-0.545-0.79-0.545-1.315
					c0-0.391,0.099-0.718,0.297-0.982C47.776,27.204,48.059,27.024,48.425,26.929z M48.04,28.455c0,0.21,0.05,0.414,0.15,0.611
					c0.1,0.197,0.248,0.35,0.445,0.458s0.409,0.162,0.636,0.162c0.353,0,0.644-0.114,0.874-0.34c0.23-0.227,0.345-0.516,0.345-0.866
					c0-0.355-0.118-0.649-0.355-0.882c-0.236-0.232-0.532-0.349-0.888-0.349c-0.347,0-0.635,0.115-0.863,0.345
					C48.154,27.823,48.04,28.11,48.04,28.455z M48.277,25.678c0,0.284,0.092,0.517,0.275,0.697s0.421,0.271,0.714,0.271
					c0.284,0,0.518-0.089,0.699-0.269s0.273-0.398,0.273-0.658c0-0.271-0.094-0.499-0.281-0.683
					c-0.187-0.185-0.42-0.277-0.699-0.277c-0.282,0-0.516,0.09-0.701,0.271C48.371,25.21,48.277,25.426,48.277,25.678z"/>
			</g>
			<g>
				<path fill="#212529" d="M52.359,30.189v-0.841H53.2v0.841c0,0.309-0.055,0.559-0.164,0.749s-0.283,0.337-0.521,0.441
					l-0.205-0.316c0.156-0.068,0.271-0.169,0.345-0.301c0.074-0.133,0.115-0.323,0.123-0.572H52.359z"/>
			</g>
			<g>
				<path fill="#212529" d="M54.295,27.224c0-0.711,0.073-1.283,0.219-1.717c0.146-0.433,0.364-0.768,0.652-1.002
					c0.289-0.235,0.651-0.353,1.089-0.353c0.323,0,0.606,0.065,0.849,0.195s0.444,0.317,0.603,0.562s0.283,0.543,0.373,0.894
					c0.09,0.352,0.135,0.825,0.135,1.421c0,0.706-0.072,1.275-0.217,1.708c-0.145,0.434-0.361,0.769-0.65,1.005
					c-0.289,0.237-0.653,0.355-1.093,0.355c-0.58,0-1.035-0.208-1.366-0.624C54.493,29.168,54.295,28.354,54.295,27.224z
					 M55.054,27.224c0,0.987,0.116,1.644,0.347,1.971s0.516,0.49,0.855,0.49c0.339,0,0.624-0.164,0.855-0.492
					c0.231-0.328,0.346-0.984,0.346-1.969c0-0.99-0.115-1.647-0.346-1.973c-0.231-0.325-0.519-0.488-0.864-0.488
					c-0.339,0-0.609,0.144-0.812,0.431C55.181,25.56,55.054,26.237,55.054,27.224z"/>
			</g>
			<g>
				<path fill="#212529" d="M58.966,27.224c0-0.711,0.073-1.283,0.219-1.717c0.146-0.433,0.364-0.768,0.652-1.002
					c0.289-0.235,0.651-0.353,1.089-0.353c0.323,0,0.606,0.065,0.849,0.195s0.444,0.317,0.603,0.562s0.283,0.543,0.373,0.894
					c0.09,0.352,0.135,0.825,0.135,1.421c0,0.706-0.072,1.275-0.217,1.708c-0.145,0.434-0.361,0.769-0.65,1.005
					c-0.289,0.237-0.653,0.355-1.093,0.355c-0.58,0-1.035-0.208-1.366-0.624C59.164,29.168,58.966,28.354,58.966,27.224z
					 M59.725,27.224c0,0.987,0.116,1.644,0.347,1.971s0.516,0.49,0.855,0.49c0.339,0,0.624-0.164,0.855-0.492
					c0.231-0.328,0.346-0.984,0.346-1.969c0-0.99-0.115-1.647-0.346-1.973c-0.231-0.325-0.519-0.488-0.864-0.488
					c-0.339,0-0.609,0.144-0.812,0.431C59.852,25.56,59.725,26.237,59.725,27.224z"/>
			</g>
		</g>
	</g>
	<g>
		<g>
			<g>
				<path fill="#212529" d="M19.851,10.139c0-0.711,0.073-1.283,0.219-1.717c0.146-0.433,0.364-0.768,0.652-1.002
					c0.289-0.235,0.651-0.353,1.089-0.353c0.323,0,0.606,0.065,0.849,0.195s0.444,0.317,0.603,0.562s0.283,0.543,0.373,0.894
					c0.09,0.352,0.135,0.825,0.135,1.421c0,0.706-0.072,1.275-0.217,1.708c-0.145,0.434-0.361,0.769-0.65,1.005
					c-0.289,0.237-0.653,0.355-1.093,0.355c-0.58,0-1.035-0.208-1.366-0.624C20.049,12.083,19.851,11.268,19.851,10.139z
					 M20.61,10.139c0,0.987,0.116,1.644,0.347,1.971s0.516,0.49,0.855,0.49c0.339,0,0.624-0.164,0.855-0.492
					c0.231-0.328,0.346-0.984,0.346-1.969c0-0.99-0.115-1.647-0.346-1.973c-0.231-0.325-0.519-0.488-0.864-0.488
					c-0.339,0-0.609,0.144-0.812,0.431C20.737,8.475,20.61,9.151,20.61,10.139z"/>
			</g>
			<g>
				<path fill="#212529" d="M25.659,9.843c-0.306-0.112-0.533-0.272-0.681-0.48c-0.147-0.208-0.221-0.457-0.221-0.747
					c0-0.438,0.157-0.805,0.472-1.103c0.314-0.298,0.733-0.447,1.255-0.447c0.525,0,0.948,0.152,1.268,0.458
					c0.32,0.305,0.48,0.676,0.48,1.113c0,0.279-0.073,0.522-0.22,0.728c-0.146,0.207-0.368,0.366-0.667,0.478
					c0.369,0.12,0.65,0.314,0.843,0.583c0.193,0.268,0.29,0.588,0.29,0.959c0,0.514-0.182,0.946-0.546,1.296
					c-0.363,0.35-0.842,0.525-1.436,0.525c-0.593,0-1.072-0.176-1.436-0.527c-0.363-0.352-0.545-0.79-0.545-1.315
					c0-0.391,0.099-0.718,0.297-0.982C25.01,10.119,25.292,9.939,25.659,9.843z M25.273,11.369c0,0.21,0.05,0.414,0.15,0.611
					c0.1,0.197,0.248,0.35,0.445,0.458s0.409,0.162,0.636,0.162c0.353,0,0.644-0.114,0.874-0.34c0.23-0.227,0.345-0.516,0.345-0.866
					c0-0.355-0.118-0.649-0.355-0.882c-0.236-0.232-0.532-0.349-0.888-0.349c-0.347,0-0.635,0.115-0.863,0.345
					C25.388,10.737,25.273,11.024,25.273,11.369z M25.511,8.592c0,0.284,0.092,0.517,0.275,0.697S26.208,9.56,26.5,9.56
					c0.284,0,0.518-0.089,0.699-0.269s0.273-0.398,0.273-0.658c0-0.271-0.094-0.499-0.281-0.683
					c-0.187-0.185-0.42-0.277-0.699-0.277c-0.282,0-0.516,0.09-0.701,0.271C25.604,8.125,25.511,8.341,25.511,8.592z"/>
			</g>
			<g>
				<path fill="#212529" d="M29.605,9.589V8.748h0.841v0.841H29.605z M29.605,13.104v-0.841h0.841v0.841H29.605z"/>
			</g>
			<g>
				<path fill="#212529" d="M31.532,11.517l0.738-0.098c0.085,0.418,0.229,0.72,0.433,0.904c0.204,0.185,0.452,0.277,0.744,0.277
					c0.347,0,0.641-0.121,0.88-0.361c0.239-0.241,0.359-0.539,0.359-0.895c0-0.339-0.111-0.619-0.332-0.838
					c-0.222-0.22-0.503-0.331-0.845-0.331c-0.139,0-0.313,0.027-0.521,0.082l0.082-0.648c0.049,0.005,0.089,0.008,0.119,0.008
					c0.314,0,0.598-0.082,0.849-0.246s0.377-0.417,0.377-0.759c0-0.271-0.092-0.495-0.275-0.673s-0.42-0.267-0.709-0.267
					c-0.287,0-0.526,0.09-0.718,0.271c-0.191,0.18-0.314,0.451-0.369,0.812l-0.738-0.131c0.09-0.495,0.295-0.878,0.615-1.15
					c0.32-0.272,0.718-0.408,1.193-0.408c0.328,0,0.63,0.07,0.906,0.211c0.276,0.141,0.488,0.333,0.634,0.576
					c0.146,0.243,0.22,0.502,0.22,0.775c0,0.26-0.07,0.496-0.209,0.709c-0.139,0.213-0.346,0.383-0.619,0.508
					c0.355,0.082,0.631,0.252,0.829,0.511c0.197,0.258,0.295,0.582,0.295,0.97c0,0.525-0.191,0.97-0.574,1.335
					s-0.867,0.547-1.452,0.547c-0.528,0-0.966-0.157-1.314-0.472S31.581,12.017,31.532,11.517z"/>
			</g>
			<g>
				<path fill="#212529" d="M36.201,10.139c0-0.711,0.073-1.283,0.219-1.717c0.146-0.433,0.364-0.768,0.652-1.002
					c0.289-0.235,0.651-0.353,1.089-0.353c0.323,0,0.606,0.065,0.849,0.195s0.444,0.317,0.603,0.562s0.283,0.543,0.373,0.894
					c0.09,0.352,0.135,0.825,0.135,1.421c0,0.706-0.072,1.275-0.217,1.708c-0.145,0.434-0.361,0.769-0.65,1.005
					c-0.289,0.237-0.653,0.355-1.093,0.355c-0.58,0-1.035-0.208-1.366-0.624C36.399,12.083,36.201,11.268,36.201,10.139z
					 M36.959,10.139c0,0.987,0.116,1.644,0.347,1.971s0.516,0.49,0.855,0.49c0.339,0,0.624-0.164,0.855-0.492
					c0.231-0.328,0.346-0.984,0.346-1.969c0-0.99-0.115-1.647-0.346-1.973c-0.231-0.325-0.519-0.488-0.864-0.488
					c-0.339,0-0.609,0.144-0.812,0.431C37.086,8.475,36.959,9.151,36.959,10.139z"/>
			</g>
			<g>
			</g>
			<g>
				<path fill="#212529" d="M45.986,13.104h-0.738V8.399c-0.178,0.169-0.411,0.339-0.699,0.509s-0.547,0.296-0.777,0.381V8.576
					c0.413-0.194,0.774-0.429,1.083-0.705c0.309-0.276,0.528-0.544,0.656-0.804h0.476V13.104z"/>
			</g>
			<g>
				<path fill="#212529" d="M47.927,7.878V7.169h3.892v0.574c-0.383,0.408-0.762,0.949-1.138,1.625
					c-0.376,0.675-0.667,1.37-0.872,2.083c-0.147,0.503-0.242,1.054-0.283,1.653h-0.759c0.008-0.473,0.101-1.044,0.279-1.714
					s0.433-1.316,0.765-1.938c0.332-0.622,0.686-1.146,1.06-1.573H47.927z"/>
			</g>
			<g>
				<path fill="#212529" d="M52.958,9.589V8.748h0.841v0.841H52.958z M52.958,13.104v-0.841h0.841v0.841H52.958z"/>
			</g>
			<g>
				<path fill="#212529" d="M54.882,10.139c0-0.711,0.073-1.283,0.219-1.717c0.146-0.433,0.364-0.768,0.652-1.002
					c0.289-0.235,0.651-0.353,1.089-0.353c0.323,0,0.606,0.065,0.849,0.195s0.444,0.317,0.603,0.562s0.283,0.543,0.373,0.894
					c0.09,0.352,0.135,0.825,0.135,1.421c0,0.706-0.072,1.275-0.217,1.708c-0.145,0.434-0.361,0.769-0.65,1.005
					c-0.289,0.237-0.653,0.355-1.093,0.355c-0.58,0-1.035-0.208-1.366-0.624C55.081,12.083,54.882,11.268,54.882,10.139z
					 M55.641,10.139c0,0.987,0.116,1.644,0.347,1.971s0.516,0.49,0.855,0.49c0.339,0,0.624-0.164,0.855-0.492
					c0.231-0.328,0.346-0.984,0.346-1.969c0-0.99-0.115-1.647-0.346-1.973c-0.231-0.325-0.519-0.488-0.864-0.488
					c-0.339,0-0.609,0.144-0.812,0.431C55.768,8.475,55.641,9.151,55.641,10.139z"/>
			</g>
			<g>
				<path fill="#212529" d="M59.554,10.139c0-0.711,0.073-1.283,0.219-1.717c0.146-0.433,0.364-0.768,0.652-1.002
					c0.289-0.235,0.651-0.353,1.089-0.353c0.323,0,0.606,0.065,0.849,0.195s0.444,0.317,0.603,0.562s0.283,0.543,0.373,0.894
					c0.09,0.352,0.135,0.825,0.135,1.421c0,0.706-0.072,1.275-0.217,1.708c-0.145,0.434-0.361,0.769-0.65,1.005
					c-0.289,0.237-0.653,0.355-1.093,0.355c-0.58,0-1.035-0.208-1.366-0.624C59.752,12.083,59.554,11.268,59.554,10.139z
					 M60.313,10.139c0,0.987,0.116,1.644,0.347,1.971s0.516,0.49,0.855,0.49c0.339,0,0.624-0.164,0.855-0.492
					c0.231-0.328,0.346-0.984,0.346-1.969c0-0.99-0.115-1.647-0.346-1.973c-0.231-0.325-0.519-0.488-0.864-0.488
					c-0.339,0-0.609,0.144-0.812,0.431C60.44,8.475,60.313,9.151,60.313,10.139z"/>
			</g>
		</g>
		<g>
			<path fill="#292929" d="M12.325,10.382H10.25c-0.095,0.001-0.176-0.033-0.243-0.1c-0.068-0.067-0.102-0.149-0.103-0.246V6.92
				c0-0.097,0.034-0.18,0.101-0.248c0.068-0.069,0.149-0.103,0.245-0.103c0.096,0,0.177,0.034,0.245,0.103
				c0.068,0.068,0.102,0.151,0.102,0.248v2.768h1.729c0.097-0.004,0.18,0.028,0.25,0.096c0.07,0.068,0.105,0.151,0.105,0.25
				c0,0.098-0.035,0.182-0.105,0.25c-0.07,0.068-0.153,0.101-0.25,0.097V10.382z M10.25,5.19C9.957,5.188,9.666,5.215,9.378,5.271
				C9.091,5.327,8.811,5.411,8.54,5.522c-0.272,0.112-0.53,0.25-0.775,0.413c-0.245,0.164-0.472,0.35-0.68,0.559
				c-0.209,0.209-0.396,0.437-0.56,0.683C6.36,7.423,6.22,7.684,6.106,7.958c-0.114,0.274-0.201,0.557-0.26,0.849
				C5.787,9.098,5.756,9.392,5.753,9.69c0.002,0.298,0.033,0.592,0.092,0.884c0.06,0.292,0.146,0.574,0.26,0.849
				s0.254,0.534,0.418,0.781c0.165,0.246,0.351,0.474,0.56,0.683c0.208,0.209,0.436,0.395,0.68,0.559
				c0.245,0.163,0.503,0.301,0.775,0.413c0.271,0.112,0.551,0.196,0.839,0.251c0.288,0.056,0.578,0.083,0.871,0.081
				c0.293,0.002,0.583-0.024,0.872-0.081c0.288-0.056,0.567-0.14,0.839-0.251c0.271-0.112,0.53-0.25,0.775-0.413
				c0.245-0.164,0.472-0.35,0.68-0.559c0.209-0.209,0.396-0.437,0.56-0.683c0.165-0.247,0.304-0.506,0.418-0.781
				c0.114-0.274,0.201-0.557,0.26-0.849c0.06-0.292,0.09-0.586,0.093-0.884c-0.002-0.298-0.033-0.592-0.093-0.884
				c-0.059-0.292-0.146-0.574-0.26-0.849c-0.114-0.274-0.254-0.534-0.418-0.781c-0.165-0.246-0.351-0.474-0.56-0.683
				c-0.208-0.209-0.436-0.395-0.68-0.559c-0.245-0.164-0.503-0.301-0.775-0.413s-0.551-0.196-0.839-0.252
				C10.833,5.215,10.543,5.188,10.25,5.19z"/>
		</g>
	</g>
	<path fill="#DEE2E6" d="M0,0v36.75h69.5V0H0z M68.5,1v17H1V1H68.5z M1,35.75v-17h67.5v17H1z"/>
</g>
</svg>
