<?xml version="1.0" encoding="utf-8"?>
<!-- Generator: Adobe Illustrator 15.1.0, SVG Export Plug-In . SVG Version: 6.00 Build 0)  -->
<!DOCTYPE svg PUBLIC "-//W3C//DTD SVG 1.1//EN" "http://www.w3.org/Graphics/SVG/1.1/DTD/svg11.dtd">
<svg version="1.1" id="Layer_1" xmlns="http://www.w3.org/2000/svg" xmlns:xlink="http://www.w3.org/1999/xlink" x="0px" y="0px"
	 width="234.581px" height="164.271px" viewBox="0 0 234.581 164.271" enable-background="new 0 0 234.581 164.271"
	 xml:space="preserve">
<g>
	<g>
		<circle fill="#E4E6E6" cx="29.197" cy="29.197" r="29.197"/>
		<g>
			<g>
				<path fill="#AFB4B7" d="M23.285,33.173c1.785,1.047,3.757,1.57,5.912,1.57s4.127-0.523,5.912-1.57
					c1.786-1.047,3.234-2.494,4.343-4.342c1.046-1.848,1.57-3.818,1.57-5.913s-0.524-4.064-1.57-5.912
					c-1.108-1.848-2.557-3.295-4.343-4.342c-1.785-1.047-3.757-1.57-5.912-1.57s-4.127,0.523-5.912,1.57
					c-1.786,1.047-3.234,2.494-4.343,4.342c-1.046,1.848-1.57,3.818-1.57,5.912s0.524,4.065,1.57,5.913
					C20.051,30.679,21.499,32.126,23.285,33.173z"/>
				<path fill="#AFB4B7" d="M45.087,43.982c-3.141-3.079-7.021-4.681-11.64-4.804h-8.5c-4.618,0.123-8.499,1.725-11.64,4.804
					c-1.884,1.921-3.207,4.122-3.984,6.595c5.212,4.847,12.194,7.816,19.874,7.816c7.679,0,14.662-2.969,19.874-7.817
					C48.294,48.103,46.971,45.903,45.087,43.982z"/>
			</g>
		</g>
	</g>
	<path fill="#FFFFFF" d="M234.081,160.937c0,1.565-1.27,2.834-2.835,2.834H29.125c-1.565,0-2.835-1.269-2.835-2.834V55.498
		c0-1.565,1.27-2.834,2.835-2.834h202.121c1.565,0,2.835,1.269,2.835,2.834V160.937z"/>
	<g>
		<path fill="#D3ECE4" d="M29.125,163.771h202.121c1.565,0,2.835-1.269,2.835-2.834v-35.897H26.29v35.897
			C26.29,162.502,27.56,163.771,29.125,163.771z"/>
	</g>
	<g>
		<path d="M84.007,30.924v-17.18h6.48c1.141,0,2.012,0.055,2.613,0.164c0.844,0.141,1.551,0.408,2.121,0.803
			s1.029,0.947,1.377,1.658s0.521,1.492,0.521,2.344c0,1.461-0.465,2.697-1.395,3.709s-2.609,1.518-5.039,1.518H86.28v6.984H84.007z
			 M86.28,21.912h4.441c1.469,0,2.512-0.273,3.129-0.82s0.926-1.316,0.926-2.309c0-0.719-0.182-1.334-0.545-1.846
			s-0.842-0.85-1.436-1.014c-0.383-0.102-1.09-0.152-2.121-0.152H86.28V21.912z"/>
		<path d="M99.722,30.924V18.479h1.898v1.887c0.484-0.883,0.932-1.465,1.342-1.746s0.861-0.422,1.354-0.422
			c0.711,0,1.434,0.227,2.168,0.68l-0.727,1.957c-0.516-0.305-1.031-0.457-1.547-0.457c-0.461,0-0.875,0.139-1.242,0.416
			s-0.629,0.662-0.785,1.154c-0.234,0.75-0.352,1.57-0.352,2.461v6.516H99.722z"/>
		<path d="M106.952,24.701c0-2.305,0.641-4.012,1.922-5.121c1.07-0.922,2.375-1.383,3.914-1.383c1.711,0,3.109,0.561,4.195,1.682
			s1.629,2.67,1.629,4.646c0,1.602-0.24,2.861-0.721,3.779s-1.18,1.631-2.098,2.139s-1.92,0.762-3.006,0.762
			c-1.742,0-3.15-0.559-4.225-1.676S106.952,26.803,106.952,24.701z M109.12,24.701c0,1.594,0.348,2.787,1.043,3.58
			s1.57,1.189,2.625,1.189c1.047,0,1.918-0.398,2.613-1.195s1.043-2.012,1.043-3.645c0-1.539-0.35-2.705-1.049-3.498
			s-1.568-1.189-2.607-1.189c-1.055,0-1.93,0.395-2.625,1.184S109.12,23.107,109.12,24.701z"/>
		<path d="M121.589,30.924V20.119h-1.863v-1.641h1.863v-1.324c0-0.836,0.074-1.457,0.223-1.863c0.203-0.547,0.561-0.99,1.072-1.33
			s1.229-0.51,2.15-0.51c0.594,0,1.25,0.07,1.969,0.211l-0.316,1.84c-0.438-0.078-0.852-0.117-1.242-0.117
			c-0.641,0-1.094,0.137-1.359,0.41s-0.398,0.785-0.398,1.535v1.148h2.426v1.641h-2.426v10.805H121.589z"/>
		<path d="M127.765,16.17v-2.426h2.109v2.426H127.765z M127.765,30.924V18.479h2.109v12.445H127.765z"/>
		<path d="M133.038,30.924v-17.18h2.109v17.18H133.038z"/>
		<path fill="#173862" d="M177.241,28.357l-5.625-5.625c-0.211-0.234-0.316-0.504-0.316-0.809c0-0.304,0.105-0.574,0.316-0.809
			c0.234-0.211,0.504-0.316,0.809-0.316s0.574,0.105,0.809,0.316l4.816,4.852l4.816-4.852c0.234-0.211,0.504-0.316,0.809-0.316
			s0.574,0.105,0.809,0.316c0.211,0.234,0.316,0.504,0.316,0.809c0,0.305-0.105,0.575-0.316,0.809l-5.625,5.625
			c-0.234,0.211-0.504,0.316-0.809,0.316S177.476,28.568,177.241,28.357z"/>
	</g>
	<g>
		<path d="M50.407,76.749V63.864h2.566l3.05,9.123c0.281,0.85,0.486,1.485,0.615,1.907c0.146-0.469,0.375-1.157,0.686-2.065
			l3.085-8.965h2.294v12.885H61.06V65.965l-3.744,10.784h-1.538L52.051,65.78v10.969H50.407z"/>
		<path d="M64.663,72.082c0-1.729,0.48-3.009,1.441-3.841c0.803-0.691,1.781-1.037,2.936-1.037c1.283,0,2.332,0.42,3.146,1.261
			s1.222,2.002,1.222,3.485c0,1.201-0.181,2.146-0.54,2.834c-0.361,0.688-0.886,1.223-1.574,1.604s-1.439,0.571-2.254,0.571
			c-1.307,0-2.363-0.419-3.168-1.257C65.065,74.865,64.663,73.658,64.663,72.082z M66.289,72.082c0,1.195,0.261,2.09,0.782,2.685
			s1.178,0.892,1.969,0.892c0.785,0,1.438-0.299,1.96-0.896s0.782-1.509,0.782-2.733c0-1.154-0.263-2.029-0.787-2.624
			s-1.176-0.892-1.955-0.892c-0.791,0-1.447,0.296-1.969,0.888S66.289,70.887,66.289,72.082z"/>
		<path d="M75.263,76.749v-9.334h1.424v1.327c0.686-1.025,1.676-1.538,2.971-1.538c0.563,0,1.079,0.101,1.551,0.303
			s0.825,0.467,1.06,0.795s0.398,0.718,0.492,1.169c0.059,0.293,0.088,0.806,0.088,1.538v5.739h-1.582v-5.678
			c0-0.645-0.062-1.126-0.185-1.446s-0.342-0.574-0.654-0.765c-0.314-0.19-0.682-0.286-1.104-0.286
			c-0.674,0-1.256,0.214-1.744,0.642c-0.49,0.428-0.734,1.239-0.734,2.435v5.098H75.263z"/>
		<path d="M90.274,80.326V67.415h1.441v1.213c0.34-0.475,0.724-0.831,1.151-1.068s0.946-0.356,1.556-0.356
			c0.797,0,1.5,0.205,2.109,0.615s1.069,0.989,1.38,1.736s0.466,1.566,0.466,2.457c0,0.955-0.172,1.815-0.514,2.58
			c-0.344,0.765-0.842,1.351-1.494,1.758c-0.654,0.407-1.341,0.611-2.062,0.611c-0.527,0-1.001-0.111-1.419-0.334
			c-0.42-0.223-0.764-0.504-1.033-0.844v4.544H90.274z M91.707,72.135c0,1.201,0.243,2.089,0.729,2.663s1.075,0.861,1.767,0.861
			c0.703,0,1.306-0.297,1.806-0.892c0.502-0.595,0.752-1.516,0.752-2.764c0-1.189-0.245-2.08-0.734-2.672s-1.073-0.888-1.753-0.888
			c-0.674,0-1.271,0.315-1.788,0.945C91.966,70.018,91.707,70.934,91.707,72.135z"/>
		<path d="M100.268,76.749v-9.334h1.424v1.415c0.363-0.662,0.698-1.099,1.007-1.31c0.307-0.211,0.646-0.316,1.015-0.316
			c0.533,0,1.075,0.17,1.626,0.51l-0.545,1.468c-0.387-0.229-0.773-0.343-1.16-0.343c-0.346,0-0.656,0.104-0.932,0.312
			s-0.472,0.497-0.589,0.866c-0.176,0.563-0.264,1.178-0.264,1.846v4.887H100.268z"/>
		<path d="M105.69,72.082c0-1.729,0.48-3.009,1.441-3.841c0.803-0.691,1.781-1.037,2.936-1.037c1.283,0,2.332,0.42,3.146,1.261
			s1.222,2.002,1.222,3.485c0,1.201-0.181,2.146-0.54,2.834c-0.361,0.688-0.886,1.223-1.574,1.604s-1.439,0.571-2.254,0.571
			c-1.307,0-2.363-0.419-3.168-1.257C106.093,74.865,105.69,73.658,105.69,72.082z M107.316,72.082c0,1.195,0.261,2.09,0.782,2.685
			s1.178,0.892,1.969,0.892c0.785,0,1.438-0.299,1.96-0.896s0.782-1.509,0.782-2.733c0-1.154-0.263-2.029-0.787-2.624
			s-1.176-0.892-1.955-0.892c-0.791,0-1.447,0.296-1.969,0.888S107.316,70.887,107.316,72.082z"/>
		<path d="M116.668,76.749v-8.104h-1.397v-1.23h1.397v-0.993c0-0.627,0.056-1.093,0.167-1.397c0.152-0.41,0.42-0.743,0.805-0.998
			c0.383-0.255,0.921-0.382,1.612-0.382c0.445,0,0.938,0.053,1.477,0.158l-0.237,1.38c-0.328-0.059-0.639-0.088-0.932-0.088
			c-0.48,0-0.82,0.103-1.02,0.308s-0.299,0.589-0.299,1.151v0.861h1.819v1.23h-1.819v8.104H116.668z"/>
		<path d="M121.3,65.684v-1.819h1.582v1.819H121.3z M121.3,76.749v-9.334h1.582v9.334H121.3z"/>
		<path d="M125.255,76.749V63.864h1.582v12.885H125.255z"/>
		<path d="M59.653,108.231l1.705,0.431c-0.357,1.4-1.001,2.468-1.93,3.204s-2.063,1.103-3.405,1.103
			c-1.389,0-2.519-0.283-3.388-0.848c-0.871-0.565-1.533-1.384-1.986-2.457c-0.455-1.072-0.682-2.224-0.682-3.454
			c0-1.342,0.256-2.512,0.77-3.511c0.512-0.999,1.241-1.758,2.188-2.276s1.988-0.778,3.125-0.778c1.289,0,2.373,0.328,3.252,0.984
			s1.491,1.579,1.837,2.769l-1.679,0.396c-0.299-0.938-0.732-1.62-1.301-2.048s-1.283-0.642-2.145-0.642
			c-0.99,0-1.818,0.237-2.482,0.712c-0.666,0.475-1.133,1.112-1.402,1.912s-0.404,1.625-0.404,2.474c0,1.096,0.159,2.052,0.479,2.87
			s0.816,1.428,1.49,1.833s1.403,0.606,2.188,0.606c0.955,0,1.764-0.275,2.426-0.826S59.419,109.315,59.653,108.231z"/>
		<path d="M63.257,112.749V99.864h1.582v4.623c0.738-0.855,1.67-1.283,2.795-1.283c0.691,0,1.292,0.136,1.802,0.409
			s0.874,0.649,1.095,1.129c0.219,0.48,0.329,1.178,0.329,2.092v5.915h-1.582v-5.915c0-0.791-0.171-1.367-0.515-1.727
			c-0.342-0.36-0.827-0.541-1.454-0.541c-0.469,0-0.909,0.122-1.323,0.365c-0.412,0.243-0.707,0.573-0.883,0.989
			s-0.264,0.99-0.264,1.723v5.106H63.257z"/>
		<path d="M79.358,111.598c-0.586,0.498-1.15,0.85-1.691,1.055c-0.543,0.205-1.124,0.308-1.745,0.308
			c-1.025,0-1.813-0.25-2.364-0.751s-0.826-1.141-0.826-1.92c0-0.457,0.104-0.875,0.313-1.252c0.207-0.378,0.479-0.681,0.816-0.91
			s0.717-0.401,1.139-0.519c0.311-0.082,0.779-0.161,1.406-0.237c1.277-0.152,2.218-0.334,2.821-0.545
			c0.006-0.217,0.009-0.354,0.009-0.413c0-0.645-0.149-1.099-0.448-1.362c-0.404-0.357-1.005-0.536-1.802-0.536
			c-0.744,0-1.294,0.13-1.648,0.391s-0.616,0.722-0.786,1.384l-1.547-0.211c0.141-0.662,0.372-1.197,0.694-1.604
			s0.788-0.721,1.397-0.94s1.315-0.33,2.118-0.33c0.797,0,1.444,0.094,1.942,0.281s0.864,0.423,1.099,0.708s0.398,0.643,0.492,1.077
			c0.053,0.27,0.079,0.756,0.079,1.459v2.109c0,1.471,0.033,2.401,0.101,2.791s0.201,0.763,0.4,1.121h-1.652
			C79.511,112.421,79.405,112.037,79.358,111.598z M79.227,108.064c-0.574,0.234-1.436,0.434-2.584,0.598
			c-0.65,0.094-1.11,0.199-1.38,0.316s-0.478,0.289-0.624,0.514s-0.22,0.476-0.22,0.751c0,0.422,0.159,0.773,0.479,1.055
			s0.787,0.422,1.402,0.422c0.609,0,1.151-0.133,1.626-0.4s0.823-0.631,1.046-1.094c0.17-0.357,0.255-0.885,0.255-1.582V108.064z"/>
		<path d="M83.278,112.749v-9.334h1.424v1.327c0.686-1.025,1.676-1.538,2.971-1.538c0.563,0,1.079,0.101,1.551,0.303
			s0.825,0.467,1.06,0.795s0.398,0.718,0.492,1.169c0.059,0.293,0.088,0.806,0.088,1.538v5.739h-1.582v-5.678
			c0-0.645-0.062-1.126-0.185-1.446s-0.342-0.574-0.654-0.765c-0.314-0.19-0.682-0.286-1.104-0.286
			c-0.674,0-1.256,0.214-1.744,0.642c-0.49,0.428-0.734,1.239-0.734,2.435v5.098H83.278z"/>
		<path d="M92.999,113.522l1.538,0.229c0.064,0.475,0.243,0.82,0.536,1.037c0.393,0.293,0.929,0.439,1.608,0.439
			c0.732,0,1.298-0.146,1.696-0.439s0.668-0.703,0.809-1.23c0.082-0.322,0.12-0.999,0.114-2.03
			c-0.691,0.814-1.553,1.222-2.584,1.222c-1.283,0-2.276-0.463-2.979-1.389s-1.055-2.036-1.055-3.331
			c0-0.891,0.161-1.712,0.483-2.465s0.789-1.334,1.401-1.745s1.332-0.615,2.158-0.615c1.102,0,2.01,0.445,2.725,1.336v-1.125h1.459
			v8.068c0,1.453-0.148,2.483-0.443,3.089c-0.297,0.606-0.766,1.085-1.406,1.437c-0.643,0.352-1.432,0.527-2.369,0.527
			c-1.113,0-2.013-0.25-2.698-0.751S92.976,114.53,92.999,113.522z M94.309,107.915c0,1.225,0.243,2.118,0.729,2.681
			s1.096,0.844,1.828,0.844c0.727,0,1.336-0.28,1.828-0.839s0.738-1.437,0.738-2.632c0-1.143-0.254-2.004-0.76-2.584
			c-0.508-0.58-1.118-0.87-1.833-0.87c-0.703,0-1.301,0.286-1.793,0.857S94.309,106.79,94.309,107.915z"/>
		<path d="M109.689,109.743l1.635,0.202c-0.258,0.955-0.735,1.696-1.433,2.224s-1.588,0.791-2.672,0.791
			c-1.365,0-2.447-0.42-3.248-1.261c-0.799-0.841-1.199-2.02-1.199-3.538c0-1.57,0.404-2.789,1.213-3.656s1.857-1.301,3.146-1.301
			c1.248,0,2.268,0.425,3.059,1.274s1.187,2.045,1.187,3.586c0,0.094-0.003,0.234-0.009,0.422h-6.961
			c0.059,1.025,0.349,1.811,0.87,2.355s1.172,0.817,1.951,0.817c0.58,0,1.075-0.152,1.485-0.457S109.449,110.411,109.689,109.743z
			 M104.495,107.186h5.212c-0.07-0.785-0.27-1.374-0.598-1.767c-0.504-0.609-1.157-0.914-1.96-0.914
			c-0.727,0-1.338,0.243-1.832,0.729C104.821,105.721,104.548,106.371,104.495,107.186z"/>
		<path d="M113.293,112.749v-9.334h1.424v1.415c0.363-0.662,0.698-1.099,1.007-1.31c0.307-0.211,0.646-0.316,1.015-0.316
			c0.533,0,1.075,0.17,1.626,0.51l-0.545,1.468c-0.387-0.229-0.773-0.343-1.16-0.343c-0.346,0-0.656,0.104-0.932,0.312
			s-0.472,0.497-0.589,0.866c-0.176,0.563-0.264,1.178-0.264,1.846v4.887H113.293z"/>
		<path d="M130.361,112.749v-1.178c-0.592,0.926-1.462,1.389-2.61,1.389c-0.744,0-1.428-0.205-2.053-0.615
			c-0.623-0.41-1.107-0.983-1.449-1.718c-0.344-0.735-0.515-1.581-0.515-2.536c0-0.932,0.155-1.777,0.466-2.536
			s0.776-1.34,1.397-1.745s1.315-0.606,2.083-0.606c0.563,0,1.063,0.119,1.503,0.356s0.797,0.546,1.072,0.927v-4.623h1.573v12.885
			H130.361z M125.36,108.091c0,1.195,0.252,2.089,0.756,2.681s1.099,0.888,1.784,0.888c0.691,0,1.278-0.283,1.763-0.848
			c0.482-0.565,0.725-1.428,0.725-2.588c0-1.277-0.246-2.215-0.738-2.813s-1.099-0.896-1.819-0.896
			c-0.703,0-1.291,0.287-1.763,0.861S125.36,106.854,125.36,108.091z"/>
		<path d="M134.325,104.426l-0.404-2.408v-2.153h1.802v2.153l-0.422,2.408H134.325z"/>
		<path d="M144.143,109.743l1.635,0.202c-0.258,0.955-0.735,1.696-1.433,2.224s-1.588,0.791-2.672,0.791
			c-1.365,0-2.447-0.42-3.248-1.261c-0.799-0.841-1.199-2.02-1.199-3.538c0-1.57,0.404-2.789,1.213-3.656s1.857-1.301,3.146-1.301
			c1.248,0,2.268,0.425,3.059,1.274s1.187,2.045,1.187,3.586c0,0.094-0.003,0.234-0.009,0.422h-6.961
			c0.059,1.025,0.349,1.811,0.87,2.355s1.172,0.817,1.951,0.817c0.58,0,1.075-0.152,1.485-0.457S143.902,110.411,144.143,109.743z
			 M138.948,107.186h5.212c-0.07-0.785-0.27-1.374-0.598-1.767c-0.504-0.609-1.157-0.914-1.96-0.914
			c-0.727,0-1.338,0.243-1.832,0.729C139.274,105.721,139.001,106.371,138.948,107.186z"/>
		<path d="M147.764,112.749v-9.334h1.424v1.327c0.686-1.025,1.676-1.538,2.971-1.538c0.563,0,1.079,0.101,1.552,0.303
			c0.471,0.202,0.824,0.467,1.059,0.795s0.398,0.718,0.492,1.169c0.059,0.293,0.088,0.806,0.088,1.538v5.739h-1.582v-5.678
			c0-0.645-0.062-1.126-0.185-1.446s-0.342-0.574-0.655-0.765s-0.681-0.286-1.103-0.286c-0.674,0-1.256,0.214-1.745,0.642
			s-0.733,1.239-0.733,2.435v5.098H147.764z"/>
		<path d="M161.229,111.334l0.229,1.397c-0.445,0.094-0.844,0.141-1.195,0.141c-0.574,0-1.02-0.091-1.336-0.272
			s-0.539-0.42-0.668-0.716s-0.193-0.918-0.193-1.868v-5.37h-1.16v-1.23h1.16v-2.312l1.573-0.949v3.261h1.591v1.23h-1.591v5.458
			c0,0.451,0.027,0.741,0.084,0.87c0.055,0.129,0.146,0.231,0.271,0.308s0.307,0.114,0.541,0.114
			C160.71,111.396,160.941,111.375,161.229,111.334z"/>
		<path d="M162.758,112.749v-9.334h1.424v1.415c0.363-0.662,0.698-1.099,1.007-1.31c0.307-0.211,0.646-0.316,1.015-0.316
			c0.533,0,1.075,0.17,1.626,0.51l-0.545,1.468c-0.387-0.229-0.773-0.343-1.16-0.343c-0.346,0-0.656,0.104-0.932,0.312
			s-0.472,0.497-0.589,0.866c-0.176,0.563-0.264,1.178-0.264,1.846v4.887H162.758z"/>
		<path d="M175.159,109.743l1.635,0.202c-0.258,0.955-0.735,1.696-1.433,2.224s-1.588,0.791-2.672,0.791
			c-1.365,0-2.448-0.42-3.247-1.261c-0.801-0.841-1.2-2.02-1.2-3.538c0-1.57,0.404-2.789,1.213-3.656s1.857-1.301,3.146-1.301
			c1.248,0,2.268,0.425,3.059,1.274s1.187,2.045,1.187,3.586c0,0.094-0.003,0.234-0.009,0.422h-6.961
			c0.059,1.025,0.349,1.811,0.87,2.355s1.172,0.817,1.951,0.817c0.58,0,1.075-0.152,1.485-0.457S174.919,110.411,175.159,109.743z
			 M169.965,107.186h5.212c-0.07-0.785-0.27-1.374-0.598-1.767c-0.504-0.609-1.157-0.914-1.96-0.914
			c-0.727,0-1.338,0.243-1.833,0.729S170.018,106.371,169.965,107.186z"/>
		<path d="M178.78,116.326v-12.911h1.441v1.213c0.34-0.475,0.724-0.831,1.151-1.068s0.946-0.356,1.556-0.356
			c0.797,0,1.5,0.205,2.109,0.615s1.069,0.989,1.38,1.736s0.466,1.566,0.466,2.457c0,0.955-0.172,1.815-0.514,2.58
			c-0.344,0.765-0.842,1.351-1.494,1.758c-0.654,0.407-1.341,0.611-2.062,0.611c-0.527,0-1.001-0.111-1.419-0.334
			c-0.42-0.223-0.764-0.504-1.033-0.844v4.544H178.78z M180.213,108.135c0,1.201,0.243,2.089,0.729,2.663s1.075,0.861,1.767,0.861
			c0.703,0,1.306-0.297,1.806-0.892c0.502-0.595,0.752-1.516,0.752-2.764c0-1.189-0.245-2.08-0.734-2.672s-1.073-0.888-1.753-0.888
			c-0.674,0-1.271,0.315-1.788,0.945C180.472,106.018,180.213,106.934,180.213,108.135z"/>
		<path d="M188.773,112.749v-9.334h1.424v1.415c0.363-0.662,0.698-1.099,1.007-1.31c0.307-0.211,0.646-0.316,1.015-0.316
			c0.533,0,1.075,0.17,1.626,0.51l-0.545,1.468c-0.387-0.229-0.773-0.343-1.16-0.343c-0.346,0-0.656,0.104-0.932,0.312
			s-0.472,0.497-0.589,0.866c-0.176,0.563-0.264,1.178-0.264,1.846v4.887H188.773z"/>
		<path d="M194.794,101.684v-1.819h1.582v1.819H194.794z M194.794,112.749v-9.334h1.582v9.334H194.794z"/>
		<path d="M198.151,109.963l1.564-0.246c0.088,0.627,0.332,1.107,0.734,1.441c0.4,0.334,0.962,0.501,1.683,0.501
			c0.727,0,1.266-0.148,1.617-0.444s0.527-0.643,0.527-1.042c0-0.357-0.155-0.639-0.466-0.844c-0.217-0.141-0.756-0.319-1.617-0.536
			c-1.16-0.293-1.965-0.546-2.412-0.76c-0.449-0.214-0.789-0.51-1.02-0.888c-0.232-0.378-0.348-0.795-0.348-1.252
			c0-0.416,0.095-0.801,0.285-1.156s0.45-0.649,0.778-0.883c0.246-0.182,0.581-0.335,1.007-0.461
			c0.424-0.126,0.88-0.189,1.366-0.189c0.732,0,1.376,0.105,1.929,0.316c0.555,0.211,0.963,0.497,1.227,0.857
			s0.445,0.842,0.545,1.446l-1.547,0.211c-0.07-0.48-0.274-0.855-0.611-1.125s-0.813-0.404-1.428-0.404
			c-0.727,0-1.245,0.12-1.556,0.36s-0.466,0.521-0.466,0.844c0,0.205,0.064,0.39,0.193,0.554c0.129,0.17,0.331,0.311,0.606,0.422
			c0.158,0.059,0.624,0.193,1.397,0.404c1.119,0.299,1.899,0.543,2.342,0.734s0.79,0.467,1.042,0.831s0.378,0.814,0.378,1.354
			c0,0.527-0.154,1.024-0.461,1.49c-0.309,0.466-0.752,0.826-1.332,1.081s-1.236,0.382-1.969,0.382
			c-1.213,0-2.138-0.252-2.773-0.756S198.327,110.953,198.151,109.963z"/>
		<path d="M214.174,109.743l1.635,0.202c-0.258,0.955-0.735,1.696-1.433,2.224s-1.588,0.791-2.672,0.791
			c-1.365,0-2.447-0.42-3.248-1.261c-0.799-0.841-1.199-2.02-1.199-3.538c0-1.57,0.404-2.789,1.213-3.656s1.857-1.301,3.146-1.301
			c1.248,0,2.268,0.425,3.059,1.274s1.187,2.045,1.187,3.586c0,0.094-0.003,0.234-0.009,0.422h-6.961
			c0.059,1.025,0.349,1.811,0.87,2.355s1.172,0.817,1.951,0.817c0.58,0,1.075-0.152,1.485-0.457S213.934,110.411,214.174,109.743z
			 M208.979,107.186h5.212c-0.07-0.785-0.27-1.374-0.598-1.767c-0.504-0.609-1.157-0.914-1.96-0.914
			c-0.727,0-1.338,0.243-1.832,0.729C209.306,105.721,209.032,106.371,208.979,107.186z"/>
		<path d="M49.88,144.609l1.608-0.141c0.076,0.645,0.253,1.173,0.532,1.586c0.277,0.413,0.71,0.747,1.296,1.002
			s1.245,0.382,1.978,0.382c0.65,0,1.225-0.097,1.723-0.29s0.868-0.458,1.111-0.795s0.365-0.705,0.365-1.103
			c0-0.404-0.117-0.757-0.352-1.059s-0.621-0.555-1.16-0.76c-0.346-0.135-1.11-0.344-2.294-0.628s-2.013-0.552-2.487-0.804
			c-0.615-0.322-1.074-0.722-1.375-1.2c-0.303-0.478-0.453-1.012-0.453-1.604c0-0.65,0.185-1.258,0.554-1.824
			s0.908-0.995,1.617-1.288s1.497-0.439,2.364-0.439c0.955,0,1.797,0.154,2.527,0.461c0.729,0.308,1.29,0.76,1.683,1.358
			s0.604,1.274,0.633,2.03l-1.635,0.123c-0.088-0.814-0.386-1.43-0.892-1.846c-0.508-0.416-1.256-0.624-2.246-0.624
			c-1.031,0-1.783,0.189-2.254,0.567c-0.473,0.378-0.708,0.833-0.708,1.367c0,0.463,0.167,0.844,0.501,1.143
			c0.328,0.299,1.185,0.605,2.57,0.918s2.337,0.587,2.853,0.822c0.75,0.346,1.304,0.784,1.661,1.314s0.536,1.141,0.536,1.833
			c0,0.686-0.196,1.332-0.589,1.938s-0.957,1.078-1.691,1.415c-0.736,0.337-1.563,0.505-2.483,0.505c-1.166,0-2.144-0.17-2.931-0.51
			c-0.789-0.34-1.406-0.851-1.855-1.534C50.14,146.243,49.903,145.471,49.88,144.609z"/>
		<path d="M68.653,145.743l1.635,0.202c-0.258,0.955-0.735,1.696-1.433,2.224s-1.588,0.791-2.672,0.791
			c-1.365,0-2.448-0.42-3.247-1.261c-0.801-0.841-1.2-2.02-1.2-3.538c0-1.57,0.404-2.789,1.213-3.656s1.857-1.301,3.146-1.301
			c1.248,0,2.268,0.425,3.059,1.274s1.187,2.045,1.187,3.586c0,0.094-0.003,0.234-0.009,0.422h-6.961
			c0.059,1.025,0.349,1.811,0.87,2.355s1.172,0.817,1.951,0.817c0.58,0,1.075-0.152,1.485-0.457S68.413,146.411,68.653,145.743z
			 M63.459,143.186h5.212c-0.07-0.785-0.27-1.374-0.598-1.767c-0.504-0.609-1.157-0.914-1.96-0.914
			c-0.727,0-1.338,0.243-1.833,0.729S63.512,142.371,63.459,143.186z"/>
		<path d="M83.331,148.749v-1.178c-0.592,0.926-1.462,1.389-2.61,1.389c-0.744,0-1.429-0.205-2.052-0.615
			c-0.625-0.41-1.107-0.983-1.451-1.718c-0.342-0.735-0.514-1.581-0.514-2.536c0-0.932,0.155-1.777,0.466-2.536
			s0.776-1.34,1.397-1.745s1.315-0.606,2.083-0.606c0.563,0,1.063,0.119,1.503,0.356s0.797,0.546,1.072,0.927v-4.623h1.573v12.885
			H83.331z M78.33,144.091c0,1.195,0.252,2.089,0.756,2.681s1.099,0.888,1.784,0.888c0.691,0,1.279-0.283,1.762-0.848
			c0.484-0.565,0.726-1.428,0.726-2.588c0-1.277-0.246-2.215-0.738-2.813s-1.099-0.896-1.819-0.896
			c-0.703,0-1.291,0.287-1.762,0.861C78.565,141.949,78.33,142.854,78.33,144.091z"/>
		<path d="M93.676,145.743l1.635,0.202c-0.258,0.955-0.735,1.696-1.433,2.224s-1.588,0.791-2.672,0.791
			c-1.365,0-2.447-0.42-3.248-1.261c-0.799-0.841-1.199-2.02-1.199-3.538c0-1.57,0.404-2.789,1.213-3.656s1.857-1.301,3.146-1.301
			c1.248,0,2.268,0.425,3.059,1.274s1.187,2.045,1.187,3.586c0,0.094-0.003,0.234-0.009,0.422h-6.961
			c0.059,1.025,0.349,1.811,0.87,2.355s1.172,0.817,1.951,0.817c0.58,0,1.075-0.152,1.485-0.457S93.436,146.411,93.676,145.743z
			 M88.481,143.186h5.212c-0.07-0.785-0.27-1.374-0.598-1.767c-0.504-0.609-1.157-0.914-1.96-0.914
			c-0.727,0-1.338,0.243-1.832,0.729C88.808,141.721,88.534,142.371,88.481,143.186z M90.187,138.255l1.169-2.461h2.074
			l-1.934,2.461H90.187z"/>
		<path d="M103.388,145.33l1.556,0.202c-0.17,1.072-0.605,1.912-1.306,2.518s-1.56,0.91-2.579,0.91
			c-1.277,0-2.305-0.417-3.081-1.252s-1.164-2.032-1.164-3.59c0-1.008,0.167-1.89,0.501-2.646s0.842-1.323,1.524-1.701
			s1.426-0.567,2.229-0.567c1.014,0,1.843,0.256,2.487,0.769s1.058,1.241,1.239,2.184l-1.538,0.237
			c-0.146-0.627-0.406-1.099-0.778-1.415s-0.821-0.475-1.349-0.475c-0.797,0-1.444,0.286-1.942,0.857s-0.747,1.475-0.747,2.711
			c0,1.254,0.24,2.165,0.721,2.733s1.107,0.853,1.881,0.853c0.621,0,1.14-0.19,1.556-0.571S103.276,146.121,103.388,145.33z"/>
		<path d="M105.708,144.082c0-1.729,0.48-3.009,1.441-3.841c0.803-0.691,1.781-1.037,2.936-1.037c1.283,0,2.332,0.42,3.146,1.261
			s1.222,2.002,1.222,3.485c0,1.201-0.181,2.146-0.54,2.834c-0.361,0.688-0.886,1.223-1.574,1.604s-1.439,0.571-2.254,0.571
			c-1.307,0-2.363-0.419-3.168-1.257C106.11,146.865,105.708,145.658,105.708,144.082z M107.334,144.082
			c0,1.195,0.261,2.09,0.782,2.685s1.178,0.892,1.969,0.892c0.785,0,1.438-0.299,1.96-0.896s0.782-1.509,0.782-2.733
			c0-1.154-0.263-2.029-0.787-2.624s-1.176-0.892-1.955-0.892c-0.791,0-1.447,0.296-1.969,0.888S107.334,142.887,107.334,144.082z"
			/>
		<path d="M116.308,148.749v-9.334h1.424v1.327c0.686-1.025,1.676-1.538,2.971-1.538c0.563,0,1.079,0.101,1.551,0.303
			s0.825,0.467,1.06,0.795s0.398,0.718,0.492,1.169c0.059,0.293,0.088,0.806,0.088,1.538v5.739h-1.582v-5.678
			c0-0.645-0.062-1.126-0.185-1.446s-0.342-0.574-0.654-0.765c-0.314-0.19-0.682-0.286-1.104-0.286
			c-0.674,0-1.256,0.214-1.744,0.642c-0.49,0.428-0.734,1.239-0.734,2.435v5.098H116.308z"/>
		<path d="M126.318,148.749v-9.334h1.424v1.327c0.686-1.025,1.676-1.538,2.971-1.538c0.563,0,1.079,0.101,1.552,0.303
			c0.471,0.202,0.824,0.467,1.059,0.795s0.398,0.718,0.492,1.169c0.059,0.293,0.088,0.806,0.088,1.538v5.739h-1.582v-5.678
			c0-0.645-0.062-1.126-0.185-1.446s-0.342-0.574-0.655-0.765s-0.681-0.286-1.103-0.286c-0.674,0-1.256,0.214-1.745,0.642
			s-0.733,1.239-0.733,2.435v5.098H126.318z"/>
		<path d="M142.719,145.743l1.635,0.202c-0.258,0.955-0.735,1.696-1.433,2.224s-1.588,0.791-2.672,0.791
			c-1.365,0-2.447-0.42-3.248-1.261c-0.799-0.841-1.199-2.02-1.199-3.538c0-1.57,0.404-2.789,1.213-3.656s1.857-1.301,3.146-1.301
			c1.248,0,2.268,0.425,3.059,1.274s1.187,2.045,1.187,3.586c0,0.094-0.003,0.234-0.009,0.422h-6.961
			c0.059,1.025,0.349,1.811,0.87,2.355s1.172,0.817,1.951,0.817c0.58,0,1.075-0.152,1.485-0.457S142.479,146.411,142.719,145.743z
			 M137.524,143.186h5.212c-0.07-0.785-0.27-1.374-0.598-1.767c-0.504-0.609-1.157-0.914-1.96-0.914
			c-0.727,0-1.338,0.243-1.832,0.729C137.851,141.721,137.577,142.371,137.524,143.186z"/>
		<path d="M152.431,145.33l1.556,0.202c-0.17,1.072-0.605,1.912-1.306,2.518s-1.56,0.91-2.579,0.91
			c-1.277,0-2.305-0.417-3.081-1.252s-1.164-2.032-1.164-3.59c0-1.008,0.167-1.89,0.501-2.646s0.842-1.323,1.524-1.701
			s1.426-0.567,2.229-0.567c1.014,0,1.843,0.256,2.487,0.769s1.058,1.241,1.239,2.184l-1.538,0.237
			c-0.146-0.627-0.406-1.099-0.778-1.415s-0.821-0.475-1.349-0.475c-0.797,0-1.444,0.286-1.942,0.857s-0.747,1.475-0.747,2.711
			c0,1.254,0.24,2.165,0.721,2.733s1.107,0.853,1.881,0.853c0.621,0,1.14-0.19,1.556-0.571S152.319,146.121,152.431,145.33z"/>
		<path d="M158.794,147.334l0.229,1.397c-0.445,0.094-0.844,0.141-1.195,0.141c-0.574,0-1.02-0.091-1.336-0.272
			s-0.539-0.42-0.668-0.716s-0.193-0.918-0.193-1.868v-5.37h-1.16v-1.23h1.16v-2.312l1.573-0.949v3.261h1.591v1.23h-1.591v5.458
			c0,0.451,0.027,0.741,0.083,0.87s0.146,0.231,0.273,0.308c0.125,0.076,0.306,0.114,0.54,0.114
			C158.275,147.396,158.507,147.375,158.794,147.334z"/>
		<path d="M166.73,145.743l1.635,0.202c-0.258,0.955-0.735,1.696-1.433,2.224s-1.588,0.791-2.672,0.791
			c-1.365,0-2.447-0.42-3.248-1.261c-0.799-0.841-1.199-2.02-1.199-3.538c0-1.57,0.404-2.789,1.213-3.656s1.857-1.301,3.146-1.301
			c1.248,0,2.268,0.425,3.059,1.274s1.187,2.045,1.187,3.586c0,0.094-0.003,0.234-0.009,0.422h-6.961
			c0.059,1.025,0.349,1.811,0.87,2.355s1.172,0.817,1.951,0.817c0.58,0,1.075-0.152,1.485-0.457S166.49,146.411,166.73,145.743z
			 M161.536,143.186h5.212c-0.07-0.785-0.27-1.374-0.598-1.767c-0.504-0.609-1.157-0.914-1.96-0.914
			c-0.727,0-1.338,0.243-1.832,0.729C161.862,141.721,161.589,142.371,161.536,143.186z"/>
		<path d="M170.334,148.749v-9.334h1.424v1.415c0.363-0.662,0.698-1.099,1.007-1.31c0.307-0.211,0.646-0.316,1.015-0.316
			c0.533,0,1.075,0.17,1.626,0.51l-0.545,1.468c-0.387-0.229-0.773-0.343-1.16-0.343c-0.346,0-0.656,0.104-0.932,0.312
			s-0.472,0.497-0.589,0.866c-0.176,0.563-0.264,1.178-0.264,1.846v4.887H170.334z"/>
	</g>
	<g>
		<path fill="#E4E6E6" d="M231.246,164.271H29.125c-1.839,0-3.335-1.496-3.335-3.334V55.498c0-1.839,1.496-3.334,3.335-3.334
			h202.121c1.839,0,3.335,1.496,3.335,3.334v105.438C234.581,162.775,233.085,164.271,231.246,164.271z M29.125,53.164
			c-1.287,0-2.335,1.047-2.335,2.334v105.438c0,1.287,1.048,2.334,2.335,2.334h202.121c1.287,0,2.335-1.047,2.335-2.334V55.498
			c0-1.287-1.048-2.334-2.335-2.334H29.125z"/>
	</g>
	<g>
		<g>
			<path fill="#FFFFFF" d="M118.542,141.806c-0.223-0.823,0.052-1.421,0.822-1.792c0.34-0.129,0.684-0.126,1.034,0.002l20.686,8.017
				c0.363,0.167,0.616,0.439,0.755,0.818c0.206,0.783-0.055,1.356-0.783,1.713l-6.7,2.488l5.586,5.293
				c0.396,0.368,0.602,0.807,0.619,1.322c0.015,0.508-0.151,0.98-0.507,1.415c-0.385,0.359-0.83,0.545-1.343,0.563
				c-0.511,0.02-0.982-0.149-1.415-0.506l-5.74-5.361l-2.652,7.123c-0.167,0.368-0.438,0.616-0.817,0.757
				c-0.783,0.208-1.357-0.054-1.712-0.783L118.542,141.806l7.828,21.067L118.542,141.806z"/>
			<path fill="#010101" d="M139.543,162.044c-0.257,0.095-0.529,0.147-0.817,0.156c-0.649,0.021-1.248-0.19-1.787-0.632l-5.16-4.82
				l-2.36,6.348c-0.246,0.534-0.625,0.885-1.146,1.08c-1.098,0.292-1.93-0.09-2.403-1.062l-7.848-21.118
				c-0.305-1.13,0.091-1.995,1.1-2.481c0.005-0.002,0.009-0.002,0.011-0.006c0.511-0.186,0.984-0.186,1.456-0.014l20.693,8.021
				c0.532,0.247,0.883,0.624,1.075,1.145c0.291,1.095-0.093,1.93-1.063,2.402l-5.916,2.202l4.939,4.68
				c0.501,0.467,0.77,1.045,0.791,1.707c0.02,0.645-0.192,1.248-0.634,1.785C140.162,161.737,139.865,161.923,139.543,162.044z
				 M131.322,154.805l6.348,5.933c0.301,0.242,0.645,0.37,1.021,0.359c0.373-0.013,0.695-0.149,0.982-0.416
				c0.217-0.277,0.343-0.619,0.329-0.995c-0.011-0.359-0.156-0.666-0.445-0.935l-6.23-5.906l7.535-2.8
				c0.441-0.221,0.582-0.519,0.441-1.056c-0.072-0.186-0.221-0.346-0.453-0.454l-20.652-8.003c-0.218-0.082-0.424-0.082-0.643,0
				c-0.47,0.23-0.625,0.556-0.486,1.104l7.816,21.042c0.223,0.443,0.521,0.582,1.054,0.439c0.188-0.072,0.348-0.221,0.454-0.448
				L131.322,154.805z"/>
		</g>
	</g>
</g>
</svg>
