<?xml version="1.0" encoding="utf-8"?>
<!-- Generator: Adobe Illustrator 15.1.0, SVG Export Plug-In . SVG Version: 6.00 Build 0)  -->
<!DOCTYPE svg PUBLIC "-//W3C//DTD SVG 1.1//EN" "http://www.w3.org/Graphics/SVG/1.1/DTD/svg11.dtd">
<svg version="1.1" id="Layer_1" xmlns="http://www.w3.org/2000/svg" xmlns:xlink="http://www.w3.org/1999/xlink" x="0px" y="0px"
	 width="19.41px" height="19.41px" viewBox="0 0 19.41 19.41" enable-background="new 0 0 19.41 19.41" xml:space="preserve">
<g>
	<path fill="#62BFB6" d="M9.705,0C4.345,0,0,4.345,0,9.705c0,5.359,4.345,9.705,9.705,9.705s9.705-4.346,9.705-9.705
		C19.41,4.345,15.065,0,9.705,0z M5.056,11.322c-0.894,0-1.618-0.724-1.618-1.618c0-0.894,0.725-1.618,1.618-1.618
		s1.618,0.725,1.618,1.618C6.674,10.599,5.949,11.322,5.056,11.322z M9.706,11.322c-0.895,0-1.619-0.724-1.619-1.618
		c0-0.894,0.725-1.618,1.619-1.618c0.893,0,1.617,0.725,1.617,1.618C11.323,10.599,10.599,11.322,9.706,11.322z M14.355,11.322
		c-0.894,0-1.618-0.724-1.618-1.618c0-0.894,0.725-1.618,1.618-1.618s1.618,0.725,1.618,1.618
		C15.974,10.599,15.249,11.322,14.355,11.322z"/>
</g>
</svg>
