<?xml version="1.0" encoding="utf-8"?>
<!-- Generator: Adobe Illustrator 15.1.0, SVG Export Plug-In . SVG Version: 6.00 Build 0)  -->
<!DOCTYPE svg PUBLIC "-//W3C//DTD SVG 1.1//EN" "http://www.w3.org/Graphics/SVG/1.1/DTD/svg11.dtd">
<svg version="1.1" id="Layer_1" xmlns="http://www.w3.org/2000/svg" xmlns:xlink="http://www.w3.org/1999/xlink" x="0px" y="0px"
	 width="18.25px" height="22.5px" viewBox="0 0 18.25 22.5" enable-background="new 0 0 18.25 22.5" xml:space="preserve">
<g>
	<path fill="#62BFB6" d="M14.628,12.723v-2.43H11v-1.6h3.625v-2.39l3.625,3.342l-3.624,3.077L14.628,12.723z M14.056,18.728
		c-0.059,0-0.117-0.003-0.176-0.011v-4.988h0.778v4.36c0,0.005,0,0.479-0.228,0.575C14.31,18.709,14.185,18.73,14.056,18.728z
		 M7.072,12.028c-0.27,0.033-0.489,0.156-0.658,0.368c-0.17,0.212-0.241,0.453-0.215,0.723c-0.026,0.27,0.045,0.511,0.215,0.723
		c0.169,0.212,0.389,0.334,0.658,0.368c0.27-0.033,0.488-0.156,0.658-0.368s0.241-0.453,0.214-0.723
		c0.027-0.27-0.044-0.511-0.214-0.723S7.342,12.062,7.072,12.028z M8.382,22.5l-7.417-2.731c-0.009,0-0.873-0.393-0.873-0.865
		L0,0.876c0.001-0.229,0.08-0.427,0.238-0.594s0.352-0.256,0.581-0.27L0.799,0h11.989c0.197,0.006,0.387,0.049,0.567,0.13
		s0.34,0.193,0.476,0.336c0.137,0.144,0.24,0.308,0.313,0.492c0.071,0.185,0.104,0.376,0.101,0.574v3.75H13.41v-3.75
		c0.006-0.178-0.052-0.332-0.174-0.462c-0.122-0.13-0.271-0.198-0.45-0.204H2.739l5.692,2.609c0.008,0,0.873,0.393,0.873,0.865
		l-0.05,17.293c-0.001,0.24-0.087,0.445-0.257,0.614C8.827,22.417,8.622,22.501,8.382,22.5z"/>
</g>
</svg>
