<?xml version="1.0" encoding="utf-8"?>
<!-- Generator: Adobe Illustrator 15.1.0, SVG Export Plug-In . SVG Version: 6.00 Build 0)  -->
<!DOCTYPE svg PUBLIC "-//W3C//DTD SVG 1.1//EN" "http://www.w3.org/Graphics/SVG/1.1/DTD/svg11.dtd">
<svg version="1.1" id="Layer_1" xmlns="http://www.w3.org/2000/svg" xmlns:xlink="http://www.w3.org/1999/xlink" x="0px" y="0px"
	 width="17.943px" height="18.425px" viewBox="0 0 17.943 18.425" enable-background="new 0 0 17.943 18.425" xml:space="preserve">
<path id="Dimona" fill="#173860" d="M0.001,9.863c0.041-4.75,3.921-8.572,8.674-8.542c0.94-0.001,1.872,0.15,2.762,0.445
	c-0.113,0.359-0.171,0.734-0.171,1.111c0.019,2.057,1.695,3.713,3.753,3.701c0.523,0,1.039-0.107,1.521-0.316
	c0.534,1.125,0.808,2.357,0.807,3.602c-0.063,4.793-3.997,8.623-8.786,8.563C3.856,18.363,0.06,14.566,0.001,9.863L0.001,9.863z
	 M8.006,4.607v5.916c0.005,0.365,0.303,0.657,0.668,0.654h4.001c0.363,0,0.659-0.292,0.659-0.654c0-0.363-0.296-0.66-0.659-0.66
	H9.34V4.607C9.336,4.238,9.032,3.943,8.664,3.949C8.302,3.953,8.01,4.244,8.006,4.607z M12.956,4.914
	c-1.125-1.102-1.145-2.903-0.043-4.027c0.015-0.014,0.028-0.028,0.043-0.043c1.146-1.125,2.981-1.125,4.131,0
	c1.124,1.1,1.144,2.902,0.044,4.025c-0.014,0.016-0.029,0.029-0.044,0.045C15.937,6.037,14.102,6.037,12.956,4.914z M13.398,2.551
	c-0.096,0.056-0.127,0.179-0.069,0.274c0,0.003,0,0.005,0.004,0.008l0.731,1.162l0.114,0.181l2.717-1.826
	c0.045-0.031,0.078-0.078,0.089-0.132c0.01-0.054-0.003-0.108-0.033-0.152c-0.04-0.056-0.105-0.089-0.174-0.089
	c-0.041,0-0.08,0.012-0.116,0.036l-2.358,1.584l-0.619-0.981c-0.038-0.06-0.105-0.098-0.178-0.096
	C13.468,2.52,13.429,2.53,13.398,2.551L13.398,2.551z"/>
</svg>
