<?xml version="1.0" encoding="utf-8"?>
<!-- Generator: Adobe Illustrator 15.1.0, SVG Export Plug-In . SVG Version: 6.00 Build 0)  -->
<!DOCTYPE svg PUBLIC "-//W3C//DTD SVG 1.1//EN" "http://www.w3.org/Graphics/SVG/1.1/DTD/svg11.dtd">
<svg version="1.1" id="Layer_1" xmlns="http://www.w3.org/2000/svg" xmlns:xlink="http://www.w3.org/1999/xlink" x="0px" y="0px"
	 width="17.943px" height="18.425px" viewBox="5.647 5.803 17.943 18.425" enable-background="new 5.647 5.803 17.943 18.425"
	 xml:space="preserve">
<path id="Dimona" fill="#1D1D1B" d="M5.648,15.666c0.041-4.751,3.921-8.573,8.674-8.543c0.94-0.001,1.872,0.15,2.762,0.445
	c-0.114,0.359-0.171,0.734-0.171,1.111c0.018,2.057,1.695,3.713,3.753,3.701c0.523,0,1.039-0.107,1.52-0.316
	c0.534,1.125,0.808,2.357,0.807,3.602c-0.063,4.792-3.997,8.623-8.786,8.562C9.504,24.165,5.708,20.369,5.648,15.666L5.648,15.666z
	 M13.653,10.409v5.917c0.005,0.365,0.303,0.657,0.668,0.654h4.001c0.363,0,0.659-0.292,0.659-0.655c0-0.362-0.296-0.659-0.659-0.659
	h-3.335v-5.257c-0.004-0.368-0.308-0.664-0.676-0.658C13.95,9.755,13.658,10.047,13.653,10.409z M18.603,10.716
	c-1.125-1.101-1.144-2.903-0.043-4.027c0.015-0.014,0.029-0.028,0.043-0.043c1.147-1.125,2.982-1.125,4.131,0
	c1.124,1.1,1.144,2.902,0.044,4.026c-0.014,0.015-0.029,0.029-0.044,0.044C21.585,11.84,19.75,11.84,18.603,10.716z M19.046,8.354
	c-0.096,0.056-0.127,0.179-0.07,0.274c0,0.003,0,0.005,0.004,0.008l0.732,1.162l0.114,0.181l2.717-1.826
	c0.045-0.031,0.078-0.078,0.089-0.132c0.009-0.054-0.003-0.108-0.034-0.152c-0.04-0.056-0.105-0.089-0.173-0.089
	c-0.041,0-0.081,0.012-0.117,0.036L19.95,9.4l-0.619-0.981c-0.038-0.06-0.106-0.098-0.178-0.096
	C19.115,8.323,19.077,8.333,19.046,8.354L19.046,8.354z"/>
</svg>
