<?xml version="1.0" encoding="utf-8"?>
<!-- Generator: Adobe Illustrator 15.1.0, SVG Export Plug-In . SVG Version: 6.00 Build 0)  -->
<!DOCTYPE svg PUBLIC "-//W3C//DTD SVG 1.1//EN" "http://www.w3.org/Graphics/SVG/1.1/DTD/svg11.dtd">
<svg version="1.1" id="Layer_1" xmlns="http://www.w3.org/2000/svg" xmlns:xlink="http://www.w3.org/1999/xlink" x="0px" y="0px"
	 width="72.524px" height="18.538px" viewBox="0 0 72.524 18.538" enable-background="new 0 0 72.524 18.538" xml:space="preserve">
<g>
	<path fill="#62BFB6" d="M68.493,17.971c0,0.313-0.254,0.567-0.567,0.567H0.567C0.254,18.538,0,18.284,0,17.971V4.227
		C0,3.914,0.254,3.66,0.567,3.66h67.358c0.313,0,0.567,0.254,0.567,0.567V17.971z"/>
	<g>
		<path fill="#FFFFFF" d="M13.618,14.259h-1.786l-0.71-1.847h-3.25l-0.671,1.847H5.459l3.167-8.131h1.736L13.618,14.259z
			 M10.595,11.042l-1.12-3.017l-1.098,3.017H10.595z"/>
		<path fill="#FFFFFF" d="M14.433,8.369h1.453v0.865c0.188-0.295,0.443-0.536,0.765-0.721c0.322-0.185,0.679-0.277,1.07-0.277
			c0.684,0,1.265,0.268,1.742,0.804s0.715,1.283,0.715,2.241c0,0.983-0.24,1.748-0.721,2.293c-0.481,0.545-1.063,0.818-1.747,0.818
			c-0.326,0-0.621-0.064-0.885-0.194c-0.265-0.129-0.542-0.352-0.835-0.666V16.5h-1.558V8.369z M15.975,11.214
			c0,0.662,0.131,1.151,0.394,1.467c0.262,0.316,0.583,0.474,0.959,0.474c0.362,0,0.664-0.145,0.904-0.436
			c0.241-0.29,0.361-0.766,0.361-1.428c0-0.618-0.124-1.076-0.372-1.375c-0.248-0.3-0.555-0.45-0.921-0.45
			c-0.381,0-0.697,0.147-0.948,0.441S15.975,10.637,15.975,11.214z"/>
		<path fill="#FFFFFF" d="M21.371,8.369h1.453v0.865c0.189-0.295,0.444-0.536,0.766-0.721c0.322-0.185,0.679-0.277,1.07-0.277
			c0.684,0,1.265,0.268,1.742,0.804s0.715,1.283,0.715,2.241c0,0.983-0.24,1.748-0.721,2.293c-0.481,0.545-1.063,0.818-1.747,0.818
			c-0.326,0-0.621-0.064-0.885-0.194c-0.265-0.129-0.542-0.352-0.835-0.666V16.5h-1.559V8.369z M22.913,11.214
			c0,0.662,0.131,1.151,0.394,1.467c0.262,0.316,0.582,0.474,0.959,0.474c0.362,0,0.664-0.145,0.904-0.436
			c0.241-0.29,0.361-0.766,0.361-1.428c0-0.618-0.124-1.076-0.372-1.375c-0.248-0.3-0.555-0.45-0.921-0.45
			c-0.381,0-0.697,0.147-0.948,0.441S22.913,10.637,22.913,11.214z"/>
		<path fill="#FFFFFF" d="M29.846,14.259h-1.559v-5.89h1.448v0.838c0.248-0.396,0.47-0.657,0.668-0.782
			c0.198-0.125,0.423-0.188,0.674-0.188c0.355,0,0.697,0.098,1.026,0.294l-0.482,1.359c-0.263-0.17-0.507-0.255-0.732-0.255
			c-0.218,0-0.403,0.06-0.555,0.18c-0.151,0.12-0.271,0.337-0.357,0.652s-0.13,0.973-0.13,1.975V14.259z"/>
		<path fill="#FFFFFF" d="M32.414,11.231c0-0.518,0.127-1.019,0.383-1.503c0.255-0.484,0.616-0.854,1.084-1.109
			c0.468-0.255,0.99-0.383,1.567-0.383c0.891,0,1.622,0.289,2.191,0.868c0.569,0.579,0.854,1.31,0.854,2.194
			c0,0.891-0.288,1.629-0.862,2.216c-0.575,0.586-1.299,0.879-2.171,0.879c-0.54,0-1.055-0.122-1.545-0.366
			c-0.49-0.244-0.862-0.602-1.117-1.073C32.542,12.481,32.414,11.907,32.414,11.231z M34.011,11.314
			c0,0.584,0.139,1.032,0.416,1.342s0.62,0.466,1.026,0.466s0.748-0.155,1.023-0.466s0.413-0.762,0.413-1.354
			c0-0.577-0.138-1.021-0.413-1.331s-0.616-0.466-1.023-0.466s-0.749,0.155-1.026,0.466S34.011,10.729,34.011,11.314z"/>
		<path fill="#FFFFFF" d="M43.59,14.259v-0.882c-0.214,0.314-0.497,0.563-0.846,0.744c-0.35,0.181-0.718,0.271-1.106,0.271
			c-0.396,0-0.751-0.087-1.065-0.261c-0.314-0.174-0.542-0.417-0.682-0.732c-0.141-0.314-0.211-0.749-0.211-1.303V8.369h1.559v2.707
			c0,0.828,0.028,1.335,0.086,1.522c0.057,0.187,0.162,0.334,0.313,0.443c0.151,0.109,0.344,0.164,0.577,0.164
			c0.266,0,0.505-0.073,0.715-0.219c0.211-0.146,0.355-0.327,0.433-0.544c0.078-0.216,0.117-0.746,0.117-1.589V8.369h1.559v5.89
			H43.59z"/>
		<path fill="#FFFFFF" d="M48.271,14.259l-2.374-5.89h1.636l1.109,3.006l0.322,1.004c0.085-0.255,0.139-0.423,0.161-0.505
			c0.052-0.167,0.107-0.333,0.167-0.499l1.121-3.006h1.603l-2.34,5.89H48.271z"/>
		<path fill="#FFFFFF" d="M56.38,12.384l1.553,0.261c-0.2,0.569-0.515,1.003-0.945,1.301c-0.431,0.297-0.97,0.446-1.617,0.446
			c-1.024,0-1.782-0.334-2.274-1.004c-0.388-0.536-0.582-1.213-0.582-2.03c0-0.976,0.255-1.741,0.766-2.293
			c0.51-0.553,1.155-0.829,1.936-0.829c0.876,0,1.567,0.289,2.074,0.868c0.507,0.579,0.749,1.465,0.727,2.66h-3.904
			c0.011,0.462,0.137,0.822,0.377,1.079c0.24,0.257,0.54,0.386,0.898,0.386c0.244,0,0.449-0.066,0.615-0.2
			C56.169,12.895,56.295,12.68,56.38,12.384z M56.469,10.809c-0.012-0.451-0.128-0.794-0.35-1.029s-0.492-0.352-0.81-0.352
			c-0.341,0-0.622,0.124-0.844,0.372s-0.331,0.584-0.327,1.009H56.469z"/>
		<path fill="#FFFFFF" d="M60.777,14.259H59.22v-5.89h1.447v0.838c0.248-0.396,0.471-0.657,0.668-0.782
			c0.198-0.125,0.423-0.188,0.674-0.188c0.355,0,0.697,0.098,1.026,0.294l-0.482,1.359c-0.263-0.17-0.507-0.255-0.732-0.255
			c-0.218,0-0.402,0.06-0.555,0.18c-0.151,0.12-0.271,0.337-0.357,0.652s-0.131,0.973-0.131,1.975V14.259z"/>
	</g>
	<g>
		<circle fill="#E30613" cx="67.494" cy="5.031" r="5.031"/>
		<g>
			<path fill="#FFFFFF" d="M68.438,8.406h-1.288V3.55c-0.472,0.44-1.026,0.766-1.665,0.977V3.357
				c0.336-0.11,0.701-0.319,1.096-0.626s0.665-0.666,0.812-1.075h1.046V8.406z"/>
		</g>
	</g>
</g>
</svg>
