<?xml version="1.0" encoding="utf-8"?>
<!-- Generator: Adobe Illustrator 15.1.0, SVG Export Plug-In . SVG Version: 6.00 Build 0)  -->
<!DOCTYPE svg PUBLIC "-//W3C//DTD SVG 1.1//EN" "http://www.w3.org/Graphics/SVG/1.1/DTD/svg11.dtd">
<svg version="1.1" id="Layer_1" xmlns="http://www.w3.org/2000/svg" xmlns:xlink="http://www.w3.org/1999/xlink" x="0px" y="0px"
	 width="37.579px" height="42.52px" viewBox="0 0 37.579 42.52" enable-background="new 0 0 37.579 42.52" xml:space="preserve">
<g>
	<path fill="#183860" d="M37.579,34.896l-4.837-4.837V14.861V4.686C32.741,2.102,30.639,0,28.056,0H4.686C2.102,0,0,2.102,0,4.686
		v33.148c0,2.584,2.102,4.686,4.686,4.686h23.37c1.769,0,3.312-0.986,4.109-2.437L37.579,34.896z"/>
	<g>
		<path fill="#FFFFFF" d="M22.181,33.133c-2.584,0-4.904-1.132-6.508-2.919H6.29v-2.142h7.965c-0.448-0.958-0.727-2.007-0.799-3.114
			H6.29v-2.142h7.283c0.204-1.128,0.625-2.18,1.218-3.114H6.29v-2.142H16.7c1.501-1.21,3.407-1.938,5.481-1.938
			c3.708,0,6.877,2.321,8.151,5.583V4.686c0-1.257-1.019-2.276-2.276-2.276H4.686c-1.257,0-2.276,1.019-2.276,2.276v33.148
			c0,1.258,1.02,2.277,2.276,2.277h23.37c1.257,0,2.276-1.019,2.276-2.277v-1.477l-4.182-4.183
			C24.921,32.804,23.565,33.133,22.181,33.133z M6.29,7.049h20.161v2.142H6.29V7.049z M6.29,12.305h20.161v2.142H6.29V12.305z
			 M26.451,35.47H6.29v-2.142h20.161V35.47z"/>
		<path fill="#FFFFFF" d="M30.332,29.542v-1.99c-0.181,0.459-0.397,0.906-0.656,1.334L30.332,29.542z"/>
		<path fill="#FFFFFF" d="M28.292,29.017c0.982-1.291,1.573-2.896,1.573-4.639c0-4.237-3.447-7.685-7.684-7.685
			c-4.237,0-7.685,3.447-7.685,7.685c0,4.237,3.447,7.684,7.685,7.684c1.527,0,2.948-0.453,4.146-1.225l5.952,5.952l1.893-1.893
			L28.292,29.017z M22.181,29.385c-2.761,0-5.007-2.247-5.007-5.007c0-2.761,2.246-5.007,5.007-5.007s5.007,2.246,5.007,5.007
			C27.188,27.139,24.942,29.385,22.181,29.385z"/>
	</g>
</g>
</svg>
