<?xml version="1.0" encoding="utf-8"?>
<!-- Generator: Adobe Illustrator 15.1.0, SVG Export Plug-In . SVG Version: 6.00 Build 0)  -->
<!DOCTYPE svg PUBLIC "-//W3C//DTD SVG 1.1//EN" "http://www.w3.org/Graphics/SVG/1.1/DTD/svg11.dtd">
<svg version="1.1" id="Layer_1" xmlns="http://www.w3.org/2000/svg" xmlns:xlink="http://www.w3.org/1999/xlink" x="0px" y="0px"
	 width="45.346px" height="13.503px" viewBox="5.622 -19.761 45.346 13.503" enable-background="new 5.622 -19.761 45.346 13.503"
	 xml:space="preserve">
<g>
	<path fill="#FFFFFF" stroke="#62BFB6" stroke-width="0.5" stroke-miterlimit="10" d="M50.718-7.925
		c0,0.783-0.635,1.417-1.417,1.417H7.289c-0.783,0-1.417-0.635-1.417-1.417v-10.168c0-0.783,0.635-1.417,1.417-1.417h42.012
		c0.782,0,1.417,0.635,1.417,1.417V-7.925z"/>
	<g>
		<path fill="#757679" d="M13.506-12.368l0.758,0.191c-0.159,0.623-0.445,1.097-0.857,1.424s-0.917,0.49-1.514,0.49
			c-0.617,0-1.119-0.125-1.506-0.377s-0.681-0.615-0.883-1.092s-0.303-0.988-0.303-1.535c0-0.596,0.114-1.117,0.342-1.561
			s0.552-0.781,0.973-1.012s0.883-0.346,1.389-0.346c0.573,0,1.055,0.146,1.445,0.438s0.663,0.702,0.816,1.23l-0.746,0.176
			c-0.133-0.417-0.326-0.72-0.578-0.91s-0.57-0.285-0.953-0.285c-0.44,0-0.808,0.105-1.104,0.316s-0.503,0.494-0.623,0.85
			s-0.18,0.722-0.18,1.1c0,0.487,0.071,0.912,0.213,1.275s0.363,0.635,0.662,0.814s0.624,0.27,0.973,0.27
			c0.424,0,0.784-0.123,1.078-0.367S13.402-11.886,13.506-12.368z"/>
		<path fill="#757679" d="M15.107-10.36v-5.727h0.703v2.055c0.328-0.38,0.742-0.57,1.242-0.57c0.307,0,0.574,0.061,0.801,0.182
			s0.389,0.289,0.486,0.502s0.146,0.523,0.146,0.93v2.629h-0.703v-2.629c0-0.352-0.076-0.607-0.229-0.768s-0.368-0.24-0.646-0.24
			c-0.208,0-0.404,0.054-0.588,0.162s-0.314,0.254-0.393,0.439s-0.117,0.44-0.117,0.766v2.27H15.107z"/>
		<path fill="#757679" d="M19.295-12.435c0-0.768,0.213-1.337,0.641-1.707c0.357-0.307,0.792-0.461,1.305-0.461
			c0.57,0,1.037,0.187,1.398,0.561s0.543,0.89,0.543,1.549c0,0.534-0.08,0.954-0.24,1.26s-0.393,0.543-0.699,0.713
			s-0.64,0.254-1.002,0.254c-0.581,0-1.05-0.186-1.408-0.559S19.295-11.734,19.295-12.435z M20.017-12.435
			c0,0.531,0.116,0.929,0.348,1.193s0.523,0.396,0.875,0.396c0.349,0,0.639-0.133,0.871-0.398s0.348-0.67,0.348-1.215
			c0-0.513-0.117-0.902-0.35-1.166s-0.523-0.396-0.869-0.396c-0.352,0-0.643,0.131-0.875,0.395S20.017-12.966,20.017-12.435z"/>
		<path fill="#757679" d="M24.01-15.278v-0.809h0.703v0.809H24.01z M24.01-10.36v-4.148h0.703v4.148H24.01z"/>
		<path fill="#757679" d="M25.502-11.599l0.695-0.109c0.039,0.279,0.148,0.492,0.326,0.641s0.428,0.223,0.748,0.223
			c0.323,0,0.563-0.066,0.719-0.197s0.234-0.286,0.234-0.463c0-0.159-0.069-0.284-0.207-0.375c-0.096-0.063-0.336-0.142-0.719-0.238
			c-0.516-0.13-0.873-0.243-1.072-0.338s-0.35-0.227-0.453-0.395s-0.154-0.354-0.154-0.557c0-0.185,0.042-0.356,0.127-0.514
			s0.2-0.289,0.346-0.393c0.109-0.081,0.258-0.149,0.447-0.205s0.391-0.084,0.607-0.084c0.326,0,0.611,0.047,0.857,0.141
			s0.428,0.221,0.545,0.381s0.198,0.375,0.242,0.643l-0.688,0.094c-0.031-0.213-0.122-0.38-0.271-0.5s-0.361-0.18-0.635-0.18
			c-0.323,0-0.553,0.053-0.691,0.16s-0.207,0.232-0.207,0.375c0,0.091,0.029,0.173,0.086,0.246c0.057,0.076,0.147,0.138,0.27,0.188
			c0.07,0.026,0.277,0.086,0.621,0.18c0.498,0.133,0.844,0.242,1.041,0.326s0.351,0.208,0.463,0.369s0.168,0.362,0.168,0.602
			c0,0.234-0.068,0.455-0.205,0.662s-0.334,0.367-0.592,0.48s-0.549,0.17-0.875,0.17c-0.539,0-0.95-0.112-1.232-0.336
			S25.58-11.159,25.502-11.599z"/>
		<path fill="#757679" d="M29.787-15.278v-0.809h0.703v0.809H29.787z M29.787-10.36v-4.148h0.703v4.148H29.787z"/>
		<path fill="#757679" d="M31.552-10.36v-4.148h0.633v0.629c0.162-0.294,0.311-0.488,0.447-0.582s0.287-0.141,0.451-0.141
			c0.237,0,0.478,0.076,0.723,0.227l-0.242,0.652c-0.172-0.102-0.344-0.152-0.516-0.152c-0.154,0-0.292,0.046-0.414,0.139
			s-0.209,0.221-0.262,0.385c-0.078,0.25-0.117,0.523-0.117,0.82v2.172H31.552z"/>
		<path fill="#231F20" d="M43.505-11.501l-2.5-2.5c-0.094-0.104-0.141-0.224-0.141-0.359c0-0.135,0.047-0.255,0.141-0.359
			c0.104-0.094,0.225-0.141,0.359-0.141c0.136,0,0.256,0.047,0.359,0.141l2.141,2.156l2.141-2.156
			c0.104-0.094,0.225-0.141,0.359-0.141c0.136,0,0.256,0.047,0.359,0.141c0.094,0.104,0.141,0.224,0.141,0.359
			c0,0.136-0.047,0.255-0.141,0.359l-2.5,2.5C44.12-11.407,44-11.36,43.865-11.36C43.73-11.36,43.61-11.407,43.505-11.501z"/>
	</g>
	<line fill="none" stroke="#B6B8BA" stroke-width="0.25" stroke-miterlimit="10" x1="37.2" y1="-17.103" x2="37.2" y2="-9.236"/>
</g>
</svg>
