<?xml version="1.0" encoding="utf-8"?>
<!-- Generator: Adobe Illustrator 15.1.0, SVG Export Plug-In . SVG Version: 6.00 Build 0)  -->
<!DOCTYPE svg PUBLIC "-//W3C//DTD SVG 1.1//EN" "http://www.w3.org/Graphics/SVG/1.1/DTD/svg11.dtd">
<svg version="1.1" id="Layer_1" xmlns="http://www.w3.org/2000/svg" xmlns:xlink="http://www.w3.org/1999/xlink" x="0px" y="0px"
	 width="36.748px" height="35.564px" viewBox="0 0 36.748 35.564" enable-background="new 0 0 36.748 35.564" xml:space="preserve">
<path fill="#173860" d="M12.852,4.84l5.9-4.84l5.671,4.84H12.852z M0.247,15.166l5.611-4.602v7.703L0.247,15.166z M30.89,10.36
	l5.622,4.794l-5.622,3.113V10.36z M13.983,13.255c0.003,0.18,0.068,0.333,0.197,0.458c0.129,0.126,0.283,0.188,0.464,0.186h3.602
	v3.574c0,0.183,0.064,0.338,0.193,0.467s0.285,0.193,0.467,0.193c0.183,0,0.339-0.064,0.468-0.193s0.193-0.284,0.193-0.467v-3.574
	h3.717c0.179,0.001,0.33-0.063,0.456-0.188c0.127-0.126,0.189-0.278,0.189-0.456c0-0.179-0.063-0.33-0.188-0.456
	c-0.127-0.126-0.278-0.189-0.457-0.188h-3.717V9.033c0-0.183-0.064-0.338-0.193-0.468c-0.129-0.129-0.285-0.193-0.468-0.193
	c-0.182,0-0.338,0.064-0.467,0.193c-0.129,0.13-0.193,0.285-0.193,0.468v3.571h-3.602c-0.182-0.002-0.337,0.061-0.466,0.188
	S13.984,13.073,13.983,13.255z M18.359,25.065L6.521,18.708V5.484h23.679v13.224l-11.84,6.359V25.065z M0,35.564V15.77
	l18.376,10.149L36.748,15.77v19.795H0z"/>
</svg>
