<?xml version="1.0" encoding="utf-8"?>
<!-- Generator: Adobe Illustrator 15.1.0, SVG Export Plug-In . SVG Version: 6.00 Build 0)  -->
<!DOCTYPE svg PUBLIC "-//W3C//DTD SVG 1.1//EN" "http://www.w3.org/Graphics/SVG/1.1/DTD/svg11.dtd">
<svg version="1.1" id="Layer_1" xmlns="http://www.w3.org/2000/svg" xmlns:xlink="http://www.w3.org/1999/xlink" x="0px" y="0px"
	 width="26.25px" height="24.609px" viewBox="0 0 26.25 24.609" enable-background="new 0 0 26.25 24.609" xml:space="preserve">
<g>
	<g>
		<path fill="#62BFB6" d="M5.741,5.742V0.82C5.74,0.594,5.819,0.4,5.98,0.24C6.141,0.081,6.335,0,6.561,0s0.42,0.081,0.581,0.24
			C7.3,0.4,7.38,0.594,7.381,0.82v4.922C7.38,5.969,7.3,6.163,7.14,6.322c-0.159,0.161-0.353,0.24-0.579,0.24s-0.42-0.08-0.581-0.24
			C5.819,6.163,5.74,5.969,5.741,5.742z M18.867,5.742V0.82c-0.002-0.227,0.079-0.42,0.239-0.58C19.267,0.081,19.461,0,19.687,0
			s0.42,0.081,0.579,0.24c0.16,0.16,0.239,0.354,0.241,0.58v4.922c-0.002,0.227-0.081,0.42-0.241,0.58
			c-0.159,0.161-0.354,0.24-0.579,0.24s-0.42-0.08-0.581-0.24C18.946,6.163,18.865,5.969,18.867,5.742z M4.92,11.485h1.641V9.844
			H4.92V11.485z M9.842,11.485h1.641V9.844H9.842V11.485z M14.764,11.485h1.641V9.844h-1.641V11.485z M19.687,11.485h1.641V9.844
			h-1.641V11.485z M4.92,15.585h1.641v-1.642H4.92V15.585z M9.842,15.585h1.641v-1.642H9.842V15.585z M14.764,15.585h1.641v-1.642
			h-1.641V15.585z M19.687,15.585h1.641v-1.642h-1.641V15.585z M4.92,19.686h1.641v-1.641H4.92V19.686z M9.842,19.686h1.641v-1.641
			H9.842V19.686z M14.764,19.686h1.641v-1.641h-1.641V19.686z M19.687,19.686h1.641v-1.641h-1.641V19.686z M1.433,24.608
			c-0.194-0.002-0.38-0.043-0.557-0.12c-0.178-0.077-0.334-0.185-0.469-0.323c-0.135-0.14-0.237-0.3-0.307-0.479
			s-0.104-0.366-0.1-0.56V4.767c-0.005-0.197,0.031-0.388,0.103-0.571C0.177,4.012,0.285,3.85,0.422,3.71
			c0.14-0.14,0.301-0.248,0.484-0.322c0.182-0.074,0.373-0.11,0.571-0.107h3.278v2.461C4.753,5.98,4.799,6.21,4.891,6.432
			c0.092,0.222,0.224,0.417,0.393,0.586c0.168,0.169,0.363,0.3,0.584,0.392c0.222,0.092,0.454,0.137,0.694,0.138
			c0.239,0,0.469-0.046,0.69-0.138c0.22-0.092,0.417-0.223,0.586-0.392c0.17-0.169,0.3-0.364,0.392-0.586S8.366,5.98,8.367,5.741
			V3.28h9.558v2.461c0,0.239,0.045,0.469,0.137,0.691s0.223,0.417,0.393,0.586c0.168,0.169,0.362,0.3,0.584,0.392
			c0.223,0.091,0.453,0.137,0.693,0.137c0.239,0,0.467-0.046,0.688-0.138c0.222-0.091,0.417-0.222,0.587-0.391
			c0.168-0.169,0.299-0.364,0.391-0.586s0.137-0.452,0.139-0.691V3.28h3.279c0.192,0.003,0.379,0.043,0.557,0.121
			c0.178,0.077,0.334,0.185,0.469,0.324s0.238,0.299,0.309,0.48c0.072,0.181,0.105,0.368,0.102,0.561v18.359
			c0.004,0.194-0.029,0.381-0.102,0.562s-0.174,0.341-0.309,0.479c-0.137,0.139-0.293,0.247-0.469,0.323
			c-0.18,0.077-0.365,0.116-0.557,0.119L1.433,24.608z"/>
	</g>
</g>
</svg>
