<?xml version="1.0" encoding="utf-8"?>
<!-- Generator: Adobe Illustrator 15.1.0, SVG Export Plug-In . SVG Version: 6.00 Build 0)  -->
<!DOCTYPE svg PUBLIC "-//W3C//DTD SVG 1.1//EN" "http://www.w3.org/Graphics/SVG/1.1/DTD/svg11.dtd">
<svg version="1.1" id="Layer_1" xmlns="http://www.w3.org/2000/svg" xmlns:xlink="http://www.w3.org/1999/xlink" x="0px" y="0px"
	 width="527.243px" height="527.243px" viewBox="0 0 527.243 527.243" enable-background="new 0 0 527.243 527.243"
	 xml:space="preserve">
<g>
	<rect fill="#D3ECE4" width="527.243" height="527.243"/>
	<rect x="13.624" y="13.624" fill="#FFFFFF" width="500" height="500"/>
	<g>
		<polygon fill="#1D1D1B" points="44.624,272.624 63.624,272.624 63.624,253.624 82.624,253.624 101.624,253.624 101.624,272.624 
			120.624,272.624 120.624,253.624 139.624,253.624 139.624,234.624 158.624,234.624 158.624,215.624 139.624,215.624 
			139.624,196.624 120.624,196.624 120.624,177.624 101.624,177.624 82.624,177.624 82.624,196.624 101.624,196.624 
			101.624,215.624 82.624,215.624 82.624,234.624 63.624,234.624 63.624,215.624 44.624,215.624 25.624,215.624 25.624,234.624 
			44.624,234.624 44.624,253.624 25.624,253.624 25.624,272.624 25.624,291.624 25.624,310.624 44.624,310.624 63.624,310.624 
			63.624,291.624 44.624,291.624 		"/>
		<rect x="44.624" y="177.624" fill="#1D1D1B" width="19" height="19"/>
		<polygon fill="#1D1D1B" points="82.624,272.624 63.624,272.624 63.624,291.624 82.624,291.624 101.624,291.624 101.624,272.624 		
			"/>
		<polygon fill="#1D1D1B" points="82.624,329.624 82.624,348.624 101.624,348.624 101.624,329.624 101.624,310.624 82.624,310.624 
					"/>
		<polygon fill="#1D1D1B" points="120.624,291.624 101.624,291.624 101.624,310.624 120.624,310.624 139.624,310.624 
			158.624,310.624 158.624,291.624 139.624,291.624 		"/>
		<rect x="139.624" y="253.624" fill="#1D1D1B" width="19" height="19"/>
		<rect x="139.624" y="329.624" fill="#1D1D1B" width="19" height="19"/>
		<polygon fill="#1D1D1B" points="177.624,196.624 177.624,215.624 196.624,215.624 215.624,215.624 215.624,196.624 
			196.624,196.624 196.624,177.624 177.624,177.624 158.624,177.624 139.624,177.624 139.624,196.624 158.624,196.624 		"/>
		<polygon fill="#1D1D1B" points="215.624,367.624 215.624,348.624 196.624,348.624 196.624,329.624 177.624,329.624 
			177.624,348.624 177.624,367.624 177.624,386.624 196.624,386.624 196.624,367.624 		"/>
		<polygon fill="#1D1D1B" points="234.624,44.624 253.624,44.624 272.624,44.624 272.624,63.624 272.624,82.624 291.624,82.624 
			291.624,101.624 310.624,101.624 310.624,120.624 329.624,120.624 329.624,139.624 329.624,158.624 348.624,158.624 
			348.624,139.624 348.624,120.624 348.624,101.624 329.624,101.624 329.624,82.624 310.624,82.624 310.624,63.624 310.624,44.624 
			329.624,44.624 348.624,44.624 348.624,25.624 329.624,25.624 310.624,25.624 291.624,25.624 272.624,25.624 253.624,25.624 
			234.624,25.624 215.624,25.624 196.624,25.624 196.624,44.624 177.624,44.624 177.624,63.624 196.624,63.624 215.624,63.624 
			215.624,44.624 		"/>
		<polygon fill="#1D1D1B" points="234.624,120.624 234.624,101.624 215.624,101.624 196.624,101.624 196.624,82.624 177.624,82.624 
			177.624,101.624 177.624,120.624 177.624,139.624 177.624,158.624 196.624,158.624 196.624,139.624 215.624,139.624 
			215.624,120.624 		"/>
		<rect x="215.624" y="139.624" fill="#1D1D1B" width="19" height="19"/>
		<rect x="234.624" y="120.624" fill="#1D1D1B" width="19" height="19"/>
		<polygon fill="#1D1D1B" points="253.624,196.624 253.624,177.624 234.624,177.624 215.624,177.624 215.624,196.624 
			234.624,196.624 		"/>
		<polygon fill="#1D1D1B" points="253.624,462.624 253.624,443.624 253.624,424.624 234.624,424.624 215.624,424.624 
			215.624,405.624 234.624,405.624 253.624,405.624 253.624,386.624 234.624,386.624 234.624,367.624 215.624,367.624 
			215.624,386.624 196.624,386.624 196.624,405.624 177.624,405.624 177.624,424.624 177.624,443.624 196.624,443.624 
			196.624,462.624 177.624,462.624 177.624,481.624 196.624,481.624 215.624,481.624 215.624,462.624 215.624,443.624 
			234.624,443.624 234.624,462.624 234.624,481.624 215.624,481.624 215.624,500.624 234.624,500.624 253.624,500.624 
			272.624,500.624 272.624,481.624 253.624,481.624 		"/>
		<polygon fill="#1D1D1B" points="253.624,120.624 272.624,120.624 272.624,101.624 272.624,82.624 253.624,82.624 253.624,63.624 
			234.624,63.624 215.624,63.624 215.624,82.624 234.624,82.624 234.624,101.624 253.624,101.624 		"/>
		<rect x="253.624" y="139.624" fill="#1D1D1B" width="19" height="19"/>
		<polygon fill="#1D1D1B" points="310.624,158.624 310.624,139.624 310.624,120.624 291.624,120.624 272.624,120.624 
			272.624,139.624 291.624,139.624 291.624,158.624 272.624,158.624 272.624,177.624 291.624,177.624 310.624,177.624 
			329.624,177.624 329.624,158.624 		"/>
		<path fill="#1D1D1B" d="M348.624,215.624v-19h19v-19h-19h-19v19h-19v19h19v19h-19v-19h-19v-19h-19h-19v19h-19h-19v19h19h19h19h19
			v19h-19h-19h-19h-19v19h-19v-19v-19h-19v19v19h-19v19h19h19v19v19h19v19h19h19v19v19h19v-19v-19h19v19h19v-19v-19v-19h-19v-19h-19
			v19v19h-19h-19v-19h-19v-19h19h19h19v-19h19h19v-19h19v19h19h19v19h19v19v19h-19h-19v-19v-19h-19h-19v19h19v19v19v19v19h-19v19
			h-19h-19v19h19v19v19h-19v19h19v19h19h19v-19h-19v-19h19v19h19h19v-19h-19v-19h-19h-19v-19h19h19h19v19h19v-19h19v19h19h19v-19
			h-19v-19h19v19h19h19v-19v-19h-19h-19v-19h19h19v-19h-19v-19h-19v19h-19v-19v-19h-19v-19v-19h19v19v19h19h19h19h19v-19v-19v-19
			h-19v19v19h-19v-19v-19h-19h-19h-19h-19h-19v-19h-19V215.624z M405.624,367.624v19v19h-19h-19h-19v-19v-19v-19h19h19h19V367.624z"
			/>
		<rect x="367.624" y="367.624" fill="#1D1D1B" width="19" height="19"/>
		<rect x="367.624" y="481.624" fill="#1D1D1B" width="19" height="19"/>
		<rect x="386.624" y="462.624" fill="#1D1D1B" width="19" height="19"/>
		<polygon fill="#1D1D1B" points="443.624,443.624 443.624,462.624 424.624,462.624 424.624,481.624 405.624,481.624 
			405.624,500.624 424.624,500.624 443.624,500.624 462.624,500.624 481.624,500.624 500.624,500.624 500.624,481.624 
			481.624,481.624 481.624,462.624 481.624,443.624 462.624,443.624 		"/>
		<rect x="462.624" y="177.624" fill="#1D1D1B" width="19" height="19"/>
		<polygon fill="#1D1D1B" points="481.624,215.624 462.624,215.624 462.624,196.624 443.624,196.624 443.624,177.624 
			424.624,177.624 405.624,177.624 386.624,177.624 386.624,196.624 405.624,196.624 424.624,196.624 424.624,215.624 
			405.624,215.624 386.624,215.624 386.624,196.624 367.624,196.624 367.624,215.624 367.624,234.624 386.624,234.624 
			405.624,234.624 424.624,234.624 443.624,234.624 462.624,234.624 481.624,234.624 500.624,234.624 500.624,215.624 
			500.624,196.624 481.624,196.624 		"/>
		<rect x="481.624" y="329.624" fill="#1D1D1B" width="19" height="19"/>
		<rect x="481.624" y="367.624" fill="#1D1D1B" width="19" height="19"/>
		<rect x="481.624" y="424.624" fill="#1D1D1B" width="19" height="19"/>
		<path fill="#1D1D1B" d="M158.624,25.624h-133v133h133V25.624z M139.624,139.624h-95v-95h95V139.624z"/>
		<rect x="63.624" y="63.624" fill="#1D1D1B" width="57" height="57"/>
		<path fill="#1D1D1B" d="M367.624,25.624v133h133v-133H367.624z M481.624,139.624h-95v-95h95V139.624z"/>
		<rect x="405.624" y="63.624" fill="#1D1D1B" width="57" height="57"/>
		<path fill="#1D1D1B" d="M25.624,500.624h133v-133h-133V500.624z M44.624,386.624h95v95h-95V386.624z"/>
		<rect x="63.624" y="405.624" fill="#1D1D1B" width="57" height="57"/>
	</g>
</g>
</svg>
