<?xml version="1.0" encoding="utf-8"?>
<!-- Generator: Adobe Illustrator 15.1.0, SVG Export Plug-In . SVG Version: 6.00 Build 0)  -->
<!DOCTYPE svg PUBLIC "-//W3C//DTD SVG 1.1//EN" "http://www.w3.org/Graphics/SVG/1.1/DTD/svg11.dtd">
<svg version="1.1" id="Layer_1" xmlns="http://www.w3.org/2000/svg" xmlns:xlink="http://www.w3.org/1999/xlink" x="0px" y="0px"
	 width="87.874px" height="87.875px" viewBox="0 0 87.874 87.875" enable-background="new 0 0 87.874 87.875" xml:space="preserve">
<g>
	<g>
		<path opacity="0.5" fill="#CCCCCC" d="M87.874,43.938C87.874,19.672,68.205,0,43.937,0C19.672,0,0,19.672,0,43.938
			c0,3.532,0.428,6.963,1.215,10.254h85.442C87.445,50.901,87.874,47.47,87.874,43.938z"/>
		<path fill="#B1D9C3" d="M43.937,87.875c20.735,0,38.102-14.365,42.721-33.684H1.215C5.836,73.51,23.204,87.875,43.937,87.875z"/>
	</g>
	<circle fill="#FFFFFF" cx="43.938" cy="43.938" r="39.685"/>
	<circle fill="#62BFB6" cx="43.938" cy="43.938" r="33.725"/>
	<g>
		<g>
			<path fill="#DBEDE2" d="M55.806,37.494H32.069c-0.553,0-1,0.448-1,1s0.447,1,1,1h23.737c0.553,0,1-0.448,1-1
				S56.359,37.494,55.806,37.494z"/>
			<path fill="#DBEDE2" d="M33.605,35.52c0.553,0,1-0.448,1-1V29.2h5.32c0.553,0,1-0.448,1-1s-0.447-1-1-1h-6.32
				c-0.552,0-1,0.448-1,1v6.32C32.605,35.072,33.053,35.52,33.605,35.52z"/>
			<path fill="#DBEDE2" d="M47.873,29.2h5.32v5.32c0,0.552,0.447,1,1,1s1-0.448,1-1V28.2c0-0.552-0.447-1-1-1h-6.32
				c-0.553,0-1,0.448-1,1S47.32,29.2,47.873,29.2z"/>
			<path fill="#DBEDE2" d="M54.193,41.467c-0.553,0-1,0.448-1,1v5.32h-5.32c-0.553,0-1,0.448-1,1c0,0.553,0.447,1.001,1,1.001h6.32
				c0.553,0,1-0.448,1-1.001v-6.32C55.193,41.915,54.746,41.467,54.193,41.467z"/>
			<path fill="#DBEDE2" d="M39.925,47.788h-5.32v-5.32c0-0.552-0.447-1-1-1c-0.552,0-1,0.448-1,1v6.32c0,0.553,0.448,1.001,1,1.001
				h6.32c0.553,0,1-0.448,1-1.001C40.925,48.235,40.478,47.788,39.925,47.788z"/>
		</g>
		<g>
			<path fill="#DBEDE2" d="M32.027,58.013l0.983-0.086c0.046,0.395,0.154,0.718,0.325,0.97c0.17,0.253,0.434,0.457,0.792,0.612
				c0.357,0.156,0.761,0.234,1.208,0.234c0.397,0,0.749-0.06,1.053-0.178c0.305-0.118,0.531-0.28,0.68-0.486
				s0.223-0.431,0.223-0.674c0-0.247-0.071-0.463-0.215-0.647c-0.143-0.185-0.379-0.339-0.709-0.464
				c-0.211-0.083-0.679-0.211-1.401-0.385c-0.724-0.174-1.23-0.337-1.521-0.491c-0.376-0.197-0.656-0.441-0.84-0.733
				c-0.185-0.292-0.277-0.618-0.277-0.98c0-0.396,0.113-0.769,0.339-1.114s0.555-0.607,0.988-0.786
				c0.433-0.18,0.915-0.27,1.444-0.27c0.584,0,1.099,0.095,1.545,0.282c0.445,0.188,0.788,0.465,1.028,0.83
				c0.239,0.365,0.368,0.778,0.387,1.241l-0.999,0.074c-0.054-0.497-0.235-0.873-0.545-1.127c-0.311-0.255-0.768-0.382-1.373-0.382
				c-0.63,0-1.089,0.115-1.377,0.347c-0.289,0.23-0.433,0.509-0.433,0.835c0,0.283,0.102,0.516,0.306,0.698
				c0.201,0.183,0.725,0.37,1.571,0.562s1.428,0.358,1.743,0.502c0.458,0.211,0.797,0.479,1.015,0.803
				c0.219,0.324,0.328,0.697,0.328,1.12c0,0.419-0.12,0.813-0.36,1.185c-0.239,0.37-0.584,0.658-1.033,0.864
				c-0.45,0.206-0.956,0.309-1.518,0.309c-0.713,0-1.31-0.104-1.791-0.311c-0.482-0.208-0.859-0.521-1.134-0.938
				C32.186,59.012,32.042,58.541,32.027,58.013z"/>
			<path fill="#DBEDE2" d="M43.317,58.455l0.951,0.123c-0.104,0.655-0.37,1.168-0.798,1.539c-0.428,0.37-0.953,0.556-1.576,0.556
				c-0.781,0-1.408-0.255-1.883-0.766c-0.475-0.51-0.712-1.241-0.712-2.194c0-0.615,0.103-1.154,0.307-1.616
				s0.515-0.809,0.932-1.039c0.417-0.231,0.871-0.347,1.361-0.347c0.62,0,1.126,0.156,1.521,0.47
				c0.394,0.313,0.646,0.759,0.757,1.335l-0.939,0.145c-0.09-0.383-0.248-0.671-0.476-0.864s-0.502-0.29-0.824-0.29
				c-0.487,0-0.883,0.175-1.188,0.523c-0.304,0.35-0.456,0.901-0.456,1.657c0,0.767,0.146,1.323,0.44,1.671
				c0.293,0.347,0.677,0.521,1.149,0.521c0.379,0,0.696-0.116,0.95-0.349C43.088,59.295,43.25,58.937,43.317,58.455z"/>
			<path fill="#DBEDE2" d="M48.817,59.839c-0.357,0.305-0.702,0.52-1.033,0.645c-0.331,0.126-0.687,0.188-1.066,0.188
				c-0.627,0-1.108-0.153-1.445-0.459c-0.336-0.307-0.505-0.697-0.505-1.174c0-0.279,0.063-0.534,0.191-0.766
				c0.127-0.23,0.293-0.416,0.499-0.556s0.438-0.245,0.695-0.316c0.19-0.051,0.477-0.099,0.859-0.146
				c0.781-0.093,1.355-0.204,1.725-0.333c0.004-0.133,0.006-0.217,0.006-0.252c0-0.395-0.092-0.672-0.274-0.833
				c-0.247-0.219-0.614-0.327-1.101-0.327c-0.455,0-0.791,0.079-1.008,0.238s-0.377,0.441-0.48,0.846l-0.945-0.129
				c0.086-0.404,0.228-0.73,0.424-0.979c0.197-0.249,0.482-0.44,0.854-0.575c0.372-0.134,0.804-0.201,1.294-0.201
				c0.487,0,0.883,0.058,1.188,0.172s0.528,0.259,0.672,0.433c0.143,0.174,0.243,0.393,0.301,0.657
				c0.031,0.165,0.048,0.463,0.048,0.893v1.289c0,0.898,0.021,1.467,0.062,1.705s0.123,0.466,0.244,0.685h-1.01
				C48.911,60.343,48.846,60.109,48.817,59.839z M48.737,57.681c-0.351,0.143-0.877,0.265-1.579,0.365
				c-0.397,0.057-0.679,0.121-0.843,0.193c-0.165,0.071-0.292,0.176-0.382,0.313s-0.134,0.291-0.134,0.46
				c0,0.258,0.097,0.473,0.292,0.645s0.481,0.258,0.856,0.258c0.373,0,0.704-0.082,0.994-0.245s0.503-0.386,0.639-0.669
				c0.104-0.218,0.156-0.54,0.156-0.967V57.681z"/>
			<path fill="#DBEDE2" d="M51.213,60.543v-5.704h0.869v0.811c0.42-0.626,1.024-0.939,1.816-0.939c0.344,0,0.659,0.062,0.947,0.186
				c0.288,0.123,0.504,0.285,0.647,0.486c0.144,0.2,0.243,0.438,0.301,0.714c0.036,0.179,0.054,0.492,0.054,0.94v3.507h-0.967v-3.47
				c0-0.394-0.037-0.688-0.113-0.884c-0.074-0.195-0.208-0.351-0.399-0.467s-0.417-0.175-0.675-0.175
				c-0.411,0-0.767,0.131-1.065,0.393c-0.299,0.261-0.448,0.757-0.448,1.487v3.115H51.213z"/>
		</g>
	</g>
</g>
</svg>
