<?xml version="1.0" encoding="utf-8"?>
<!-- Generator: Adobe Illustrator 15.1.0, SVG Export Plug-In . SVG Version: 6.00 Build 0)  -->
<!DOCTYPE svg PUBLIC "-//W3C//DTD SVG 1.1//EN" "http://www.w3.org/Graphics/SVG/1.1/DTD/svg11.dtd">
<svg version="1.1" id="Layer_1" xmlns="http://www.w3.org/2000/svg" xmlns:xlink="http://www.w3.org/1999/xlink" x="0px" y="0px"
	 width="15.75px" height="15.75px" viewBox="0 0 15.75 15.75" enable-background="new 0 0 15.75 15.75" xml:space="preserve">
<g>
	<path fill="#62BFB6" d="M15.082,15.082c-0.422,0.422-0.949,0.645-1.582,0.668H2.25c-0.633-0.023-1.16-0.246-1.582-0.668
		S0.023,14.133,0,13.5V2.25c0.023-0.633,0.246-1.16,0.668-1.582S1.617,0.023,2.25,0H13.5c0.633,0.023,1.16,0.246,1.582,0.668
		s0.646,0.949,0.668,1.582V13.5C15.728,14.133,15.504,14.66,15.082,15.082z M10.969,7.242L7.031,3.586
		C6.773,3.352,6.469,3.305,6.117,3.445C5.813,3.609,5.648,3.867,5.625,4.219v7.313c0.023,0.352,0.188,0.61,0.492,0.773
		c0.352,0.141,0.656,0.094,0.914-0.141l3.938-3.656c0.188-0.188,0.281-0.398,0.281-0.633C11.25,7.641,11.157,7.43,10.969,7.242z"/>
</g>
</svg>
