<?xml version="1.0" encoding="utf-8"?>
<!-- Generator: Adobe Illustrator 15.1.0, SVG Export Plug-In . SVG Version: 6.00 Build 0)  -->
<!DOCTYPE svg PUBLIC "-//W3C//DTD SVG 1.1//EN" "http://www.w3.org/Graphics/SVG/1.1/DTD/svg11.dtd">
<svg version="1.1" id="Layer_1" xmlns="http://www.w3.org/2000/svg" xmlns:xlink="http://www.w3.org/1999/xlink" x="0px" y="0px"
	 width="87.874px" height="87.875px" viewBox="0 0 87.874 87.875" enable-background="new 0 0 87.874 87.875" xml:space="preserve">
<g>
	<g>
		<path opacity="0.5" fill="#CCCCCC" d="M87.874,43.938C87.874,19.672,68.205,0,43.937,0C19.672,0,0,19.672,0,43.938
			c0,3.532,0.428,6.963,1.215,10.254h85.442C87.445,50.901,87.874,47.47,87.874,43.938z"/>
		<path fill="#B1D9C3" d="M43.937,87.875c20.735,0,38.102-14.365,42.721-33.684H1.215C5.836,73.51,23.204,87.875,43.937,87.875z"/>
	</g>
	<circle fill="#FFFFFF" cx="43.938" cy="43.938" r="39.685"/>
	<circle fill="#62BFB6" cx="43.938" cy="43.938" r="33.725"/>
	<g>
		<g>
			<path fill="#DBEDE2" d="M55.806,37.494H32.069c-0.553,0-1,0.448-1,1s0.447,1,1,1h23.737c0.553,0,1-0.448,1-1
				S56.359,37.494,55.806,37.494z"/>
			<path fill="#DBEDE2" d="M33.605,35.52c0.553,0,1-0.448,1-1V29.2h5.32c0.553,0,1-0.448,1-1s-0.447-1-1-1h-6.32
				c-0.552,0-1,0.448-1,1v6.32C32.605,35.072,33.053,35.52,33.605,35.52z"/>
			<path fill="#DBEDE2" d="M47.873,29.2h5.32v5.32c0,0.552,0.447,1,1,1s1-0.448,1-1V28.2c0-0.552-0.447-1-1-1h-6.32
				c-0.553,0-1,0.448-1,1S47.32,29.2,47.873,29.2z"/>
			<path fill="#DBEDE2" d="M54.193,41.467c-0.553,0-1,0.448-1,1v5.32h-5.32c-0.553,0-1,0.448-1,1c0,0.553,0.447,1.001,1,1.001h6.32
				c0.553,0,1-0.448,1-1.001v-6.32C55.193,41.915,54.746,41.467,54.193,41.467z"/>
			<path fill="#DBEDE2" d="M39.925,47.788h-5.32v-5.32c0-0.552-0.447-1-1-1c-0.552,0-1,0.448-1,1v6.32c0,0.553,0.448,1.001,1,1.001
				h6.32c0.553,0,1-0.448,1-1.001C40.925,48.235,40.478,47.788,39.925,47.788z"/>
		</g>
	</g>
</g>
<g>
	<path fill="#DBEDE2" d="M20.199,59.139l0.983-0.086c0.046,0.394,0.155,0.717,0.325,0.969c0.17,0.252,0.435,0.457,0.792,0.613
		c0.358,0.154,0.761,0.232,1.208,0.232c0.397,0,0.749-0.059,1.053-0.177s0.531-0.28,0.68-0.485c0.148-0.207,0.223-0.432,0.223-0.675
		c0-0.247-0.072-0.463-0.215-0.647c-0.143-0.184-0.379-0.339-0.709-0.465c-0.211-0.082-0.679-0.21-1.402-0.383
		c-0.723-0.174-1.23-0.338-1.52-0.492c-0.376-0.197-0.656-0.441-0.841-0.732c-0.184-0.293-0.276-0.619-0.276-0.98
		c0-0.398,0.113-0.77,0.338-1.115s0.555-0.607,0.988-0.787c0.433-0.179,0.915-0.268,1.445-0.268c0.583,0,1.099,0.094,1.544,0.281
		c0.446,0.188,0.789,0.465,1.029,0.83s0.369,0.779,0.387,1.24l-0.999,0.076c-0.054-0.498-0.235-0.874-0.545-1.129
		c-0.31-0.254-0.767-0.381-1.372-0.381c-0.63,0-1.089,0.115-1.378,0.346c-0.288,0.232-0.432,0.51-0.432,0.836
		c0,0.283,0.102,0.516,0.306,0.698c0.201,0.183,0.724,0.37,1.571,0.562c0.847,0.191,1.428,0.359,1.743,0.502
		c0.458,0.211,0.797,0.479,1.015,0.803s0.328,0.697,0.328,1.12c0,0.419-0.12,0.813-0.36,1.185s-0.584,0.658-1.034,0.865
		c-0.449,0.205-0.955,0.309-1.517,0.309c-0.712,0-1.31-0.104-1.792-0.313c-0.481-0.207-0.859-0.52-1.133-0.938
		C20.357,60.137,20.213,59.665,20.199,59.139z"/>
	<path fill="#DBEDE2" d="M29.877,60.803l0.14,0.854c-0.272,0.058-0.516,0.086-0.73,0.086c-0.351,0-0.623-0.056-0.816-0.167
		c-0.193-0.11-0.33-0.256-0.408-0.438c-0.079-0.181-0.118-0.561-0.118-1.141v-3.282h-0.709v-0.752h0.709v-1.413l0.961-0.58v1.993
		h0.972v0.752h-0.972v3.335c0,0.276,0.017,0.453,0.051,0.532c0.034,0.079,0.089,0.142,0.166,0.188
		c0.077,0.046,0.188,0.069,0.331,0.069C29.561,60.841,29.702,60.829,29.877,60.803z"/>
	<path fill="#DBEDE2" d="M34.545,60.965c-0.358,0.304-0.703,0.519-1.034,0.645c-0.332,0.125-0.687,0.188-1.066,0.188
		c-0.626,0-1.108-0.152-1.445-0.459s-0.505-0.697-0.505-1.174c0-0.279,0.063-0.535,0.191-0.766c0.127-0.23,0.293-0.416,0.499-0.556
		c0.206-0.14,0.438-0.245,0.696-0.317c0.19-0.05,0.476-0.098,0.859-0.145c0.781-0.094,1.355-0.204,1.724-0.333
		c0.003-0.132,0.005-0.217,0.005-0.253c0-0.394-0.091-0.671-0.274-0.832c-0.247-0.219-0.614-0.328-1.101-0.328
		c-0.455,0-0.791,0.08-1.007,0.24c-0.216,0.158-0.376,0.44-0.48,0.846l-0.945-0.129c0.086-0.405,0.228-0.732,0.424-0.98
		c0.197-0.249,0.481-0.441,0.854-0.574c0.373-0.135,0.804-0.202,1.294-0.202c0.487,0,0.883,0.058,1.187,0.172
		s0.528,0.259,0.671,0.433s0.244,0.393,0.301,0.658c0.032,0.164,0.048,0.461,0.048,0.891v1.289c0,0.899,0.021,1.468,0.062,1.705
		c0.042,0.238,0.123,0.467,0.245,0.686h-1.01C34.638,61.467,34.574,61.233,34.545,60.965z M34.464,58.805
		c-0.351,0.144-0.877,0.266-1.579,0.365c-0.397,0.058-0.679,0.122-0.843,0.193c-0.165,0.072-0.292,0.177-0.381,0.314
		c-0.089,0.139-0.134,0.291-0.134,0.459c0,0.258,0.098,0.473,0.292,0.645c0.195,0.172,0.481,0.258,0.857,0.258
		c0.373,0,0.704-0.081,0.994-0.244c0.29-0.162,0.503-0.386,0.639-0.668c0.104-0.219,0.156-0.541,0.156-0.967V58.805z"/>
	<path fill="#DBEDE2" d="M36.93,61.668v-5.704h0.87v0.864c0.222-0.404,0.427-0.671,0.615-0.8c0.188-0.129,0.395-0.193,0.621-0.193
		c0.326,0,0.657,0.104,0.994,0.312l-0.333,0.896c-0.236-0.139-0.473-0.209-0.709-0.209c-0.211,0-0.401,0.063-0.569,0.191
		c-0.168,0.127-0.288,0.303-0.36,0.528c-0.107,0.344-0.161,0.72-0.161,1.128v2.986H36.93z"/>
	<path fill="#DBEDE2" d="M42.714,60.803l0.14,0.854c-0.272,0.058-0.516,0.086-0.73,0.086c-0.351,0-0.623-0.056-0.816-0.167
		c-0.193-0.11-0.329-0.256-0.408-0.438c-0.079-0.181-0.118-0.561-0.118-1.141v-3.282h-0.709v-0.752h0.709v-1.413l0.961-0.58v1.993
		h0.973v0.752h-0.973v3.335c0,0.276,0.018,0.453,0.052,0.532s0.089,0.142,0.166,0.188c0.077,0.046,0.188,0.069,0.331,0.069
		C42.398,60.841,42.539,60.829,42.714,60.803z"/>
	<path fill="#DBEDE2" d="M42.935,61.803l2.282-8.143h0.773l-2.277,8.143H42.935z"/>
	<path fill="#DBEDE2" d="M46.485,59.139l0.983-0.086c0.046,0.394,0.154,0.717,0.324,0.969s0.435,0.457,0.793,0.613
		c0.357,0.154,0.76,0.232,1.208,0.232c0.397,0,0.749-0.059,1.053-0.177s0.53-0.28,0.68-0.485c0.148-0.207,0.223-0.432,0.223-0.675
		c0-0.247-0.071-0.463-0.215-0.647c-0.144-0.184-0.38-0.339-0.709-0.465c-0.212-0.082-0.679-0.21-1.401-0.383
		c-0.724-0.174-1.23-0.338-1.521-0.492c-0.376-0.197-0.656-0.441-0.841-0.732c-0.184-0.293-0.276-0.619-0.276-0.98
		c0-0.398,0.112-0.77,0.339-1.115c0.225-0.346,0.555-0.607,0.988-0.787c0.433-0.179,0.914-0.268,1.444-0.268
		c0.583,0,1.099,0.094,1.544,0.281c0.446,0.188,0.789,0.465,1.029,0.83c0.239,0.365,0.368,0.779,0.387,1.24l-1,0.076
		c-0.053-0.498-0.234-0.874-0.545-1.129c-0.31-0.254-0.768-0.381-1.372-0.381c-0.63,0-1.089,0.115-1.378,0.346
		c-0.288,0.232-0.432,0.51-0.432,0.836c0,0.283,0.102,0.516,0.306,0.698c0.2,0.183,0.724,0.37,1.571,0.562
		c0.847,0.191,1.428,0.359,1.742,0.502c0.459,0.211,0.797,0.479,1.016,0.803s0.328,0.697,0.328,1.12c0,0.419-0.121,0.813-0.36,1.185
		s-0.585,0.658-1.034,0.865c-0.449,0.205-0.955,0.309-1.518,0.309c-0.712,0-1.309-0.104-1.791-0.313
		c-0.481-0.207-0.859-0.52-1.133-0.938C46.643,60.137,46.5,59.665,46.485,59.139z"/>
	<path fill="#DBEDE2" d="M56.164,60.803l0.14,0.854c-0.272,0.058-0.516,0.086-0.73,0.086c-0.351,0-0.623-0.056-0.816-0.167
		c-0.193-0.11-0.329-0.256-0.408-0.438c-0.079-0.181-0.118-0.561-0.118-1.141v-3.282h-0.709v-0.752h0.709v-1.413l0.961-0.58v1.993
		h0.973v0.752h-0.973v3.335c0,0.276,0.018,0.453,0.052,0.532s0.089,0.142,0.166,0.188c0.077,0.046,0.188,0.069,0.331,0.069
		C55.847,60.841,55.988,60.829,56.164,60.803z"/>
	<path fill="#DBEDE2" d="M56.75,58.817c0-1.057,0.293-1.84,0.881-2.348c0.49-0.422,1.088-0.634,1.793-0.634
		c0.785,0,1.426,0.257,1.924,0.771c0.497,0.514,0.746,1.225,0.746,2.13c0,0.733-0.11,1.312-0.33,1.731
		c-0.221,0.422-0.541,0.748-0.962,0.98c-0.421,0.233-0.88,0.35-1.378,0.35c-0.798,0-1.443-0.256-1.936-0.768
		C56.996,60.517,56.75,59.78,56.75,58.817z M57.743,58.817c0,0.73,0.159,1.277,0.478,1.641c0.319,0.363,0.721,0.545,1.203,0.545
		c0.48,0,0.879-0.183,1.198-0.548s0.478-0.922,0.478-1.671c0-0.705-0.16-1.239-0.48-1.604c-0.32-0.363-0.719-0.545-1.195-0.545
		c-0.482,0-0.884,0.182-1.203,0.543C57.902,57.54,57.743,58.086,57.743,58.817z"/>
	<path fill="#DBEDE2" d="M63.226,63.854v-7.89h0.881v0.741c0.208-0.29,0.443-0.508,0.704-0.652s0.578-0.218,0.95-0.218
		c0.487,0,0.917,0.126,1.289,0.376c0.373,0.25,0.654,0.604,0.844,1.061s0.285,0.957,0.285,1.502c0,0.583-0.105,1.109-0.314,1.576
		c-0.21,0.467-0.514,0.825-0.913,1.074c-0.399,0.248-0.819,0.373-1.26,0.373c-0.322,0-0.611-0.068-0.867-0.204
		c-0.257-0.136-0.467-0.308-0.632-0.516v2.776H63.226z M64.102,58.848c0,0.734,0.148,1.277,0.446,1.628
		c0.297,0.351,0.656,0.526,1.079,0.526c0.43,0,0.798-0.182,1.104-0.545c0.307-0.363,0.46-0.927,0.46-1.689
		c0-0.727-0.15-1.271-0.449-1.633s-0.656-0.543-1.071-0.543c-0.411,0-0.776,0.193-1.093,0.578
		C64.26,57.555,64.102,58.115,64.102,58.848z"/>
</g>
</svg>
