<?xml version="1.0" encoding="utf-8"?>
<!-- Generator: Adobe Illustrator 15.1.0, SVG Export Plug-In . SVG Version: 6.00 Build 0)  -->
<!DOCTYPE svg PUBLIC "-//W3C//DTD SVG 1.1//EN" "http://www.w3.org/Graphics/SVG/1.1/DTD/svg11.dtd">
<svg version="1.1" id="Layer_1" xmlns="http://www.w3.org/2000/svg" xmlns:xlink="http://www.w3.org/1999/xlink" x="0px" y="0px"
	 width="18px" height="18px" viewBox="0 0 18 18" enable-background="new 0 0 18 18" xml:space="preserve">
<g>
	<path fill="#62BFB6" d="M9,18c-1.641-0.023-3.142-0.422-4.5-1.195c-1.359-0.797-2.461-1.898-3.305-3.305C0.398,12.071,0,10.57,0,9
		c0-1.57,0.398-3.07,1.195-4.5C2.039,3.094,3.141,1.992,4.5,1.195C5.858,0.422,7.359,0.023,9,0c1.64,0.023,3.141,0.422,4.5,1.195
		c1.358,0.797,2.461,1.898,3.305,3.305C17.601,5.93,18,7.43,18,9c0,1.57-0.399,3.071-1.195,4.5
		c-0.844,1.406-1.946,2.508-3.305,3.305C12.141,17.578,10.64,17.977,9,18z M9,5.625c-0.61,0-1.173,0.153-1.688,0.457
		c-0.516,0.305-0.927,0.715-1.23,1.23C5.777,7.852,5.625,8.415,5.625,9c0,0.586,0.152,1.148,0.457,1.688
		c0.304,0.516,0.715,0.927,1.23,1.23C7.827,12.223,8.39,12.375,9,12.375c0.609,0,1.172-0.152,1.688-0.457
		c0.515-0.304,0.926-0.715,1.23-1.23c0.304-0.539,0.457-1.102,0.457-1.688c0-0.585-0.153-1.148-0.457-1.688
		c-0.305-0.515-0.716-0.926-1.23-1.23C10.172,5.778,9.609,5.625,9,5.625z"/>
</g>
</svg>
