<?xml version="1.0" encoding="utf-8"?>
<!-- Generator: Adobe Illustrator 15.1.0, SVG Export Plug-In . SVG Version: 6.00 Build 0)  -->
<!DOCTYPE svg PUBLIC "-//W3C//DTD SVG 1.1//EN" "http://www.w3.org/Graphics/SVG/1.1/DTD/svg11.dtd">
<svg version="1.1" id="Layer_1" xmlns="http://www.w3.org/2000/svg" xmlns:xlink="http://www.w3.org/1999/xlink" x="0px" y="0px"
	 width="110.219px" height="24.644px" viewBox="23 0 110.219 24.644" enable-background="new 23 0 110.219 24.644"
	 xml:space="preserve">
<g>
	<path fill="#62BFB6" d="M25.668,19.115H23V0.319h2.668V19.115z"/>
	<path fill="#62BFB6" d="M49.505,19.115h-2.668V9.729c0-1.93-0.688-3.599-2.063-4.94c-1.344-1.375-2.987-2.063-4.916-2.063
		c-1.93,0-3.591,0.688-4.966,2.063c-1.355,1.342-2.044,3.011-2.044,4.94v9.386H30.18V9.729c0-2.667,0.956-4.94,2.834-6.819
		c1.879-1.904,4.177-2.853,6.845-2.853c2.667,0,4.947,0.948,6.826,2.853c1.878,1.878,2.819,4.151,2.819,6.819V19.115z"/>
	<path fill="#62BFB6" d="M54.097,19.115V0.319h9.358c2.617,0,4.848,0.923,6.66,2.75c1.827,1.821,2.75,4.043,2.75,6.66
		c0,2.592-0.923,4.813-2.75,6.635c-1.813,1.828-4.043,2.751-6.66,2.751H54.097z M56.778,2.986v13.461h6.679
		c1.859,0,3.438-0.663,4.764-1.961c1.323-1.318,1.979-2.903,1.979-4.757s-0.656-3.438-1.979-4.756
		c-1.325-1.325-2.903-1.987-4.764-1.987H56.778z"/>
	<path fill="#62BFB6" d="M79.281,19.115h-2.667V0.319h2.667V19.115z"/>
	<path fill="#62BFB6" d="M86.863,19.115h-2.668V0.319h2.668V19.115z"/>
	<path d="M89.745,8.195V5.871h2.565V4.789c0-1.299,0.471-2.433,1.395-3.362C94.66,0.478,95.799,0,97.125,0
		c0.872,0,1.693,0.21,2.451,0.663v2.643c-0.185-0.159-0.554-0.291-1.108-0.421c-0.554-0.134-1.006-0.21-1.343-0.21
		c-1.19,0-2.165,0.948-2.165,2.114v1.083h3.878v2.324H94.96v10.92H92.31V8.195H89.745z"/>
	<path d="M108.194,8.462c-1.189,0-2.215,0.37-3.036,1.133c-0.822,0.771-1.241,1.72-1.241,2.885c0,1.19,0.419,2.196,1.241,3.037
		c0.821,0.82,1.847,1.248,3.036,1.248c1.242,0,2.28-0.452,3.089-1.351v3.222c-0.942,0.504-1.979,0.746-3.089,0.746
		c-1.929,0-3.539-0.662-4.896-2.012c-1.343-1.35-1.998-2.961-1.998-4.89c0-1.904,0.655-3.489,1.979-4.756
		c1.343-1.3,2.986-1.931,4.915-1.931h7.349v13.32h-2.668V8.462H108.194z"/>
	<path d="M130.552,8.513h-4.68c-1.189,0-2.216,0.368-3.037,1.14c-0.82,0.764-1.241,1.719-1.241,2.903
		c0,1.19,0.421,2.196,1.241,3.019c0.84,0.814,1.848,1.242,3.037,1.242c1.241,0,2.279-0.453,3.103-1.325v3.229
		c-0.956,0.502-1.994,0.737-3.103,0.737c-1.929,0-3.54-0.663-4.883-2.006c-1.357-1.35-2.013-2.967-2.013-4.896
		c0-1.904,0.654-3.489,1.979-4.757c1.343-1.292,2.987-1.929,4.916-1.929h7.348v18.771h-2.668L130.552,8.513L130.552,8.513z"/>
</g>
</svg>
