<?xml version="1.0" encoding="utf-8"?>
<!-- Generator: Adobe Illustrator 15.1.0, SVG Export Plug-In . SVG Version: 6.00 Build 0)  -->
<!DOCTYPE svg PUBLIC "-//W3C//DTD SVG 1.1//EN" "http://www.w3.org/Graphics/SVG/1.1/DTD/svg11.dtd">
<svg version="1.1" id="Layer_1" xmlns="http://www.w3.org/2000/svg" xmlns:xlink="http://www.w3.org/1999/xlink" x="0px" y="0px"
	 width="26.246px" height="23.814px" viewBox="0 0 26.246 23.814" enable-background="new 0 0 26.246 23.814" xml:space="preserve">
<g>
	<path fill="#62BFB6" d="M7.295,15.905h2.068c0.106,0,0.197,0.037,0.271,0.112c0.075,0.075,0.113,0.166,0.113,0.271v2.027
		c0,0.105-0.038,0.196-0.113,0.271C9.561,18.662,9.47,18.7,9.364,18.7h-2.03c-0.106,0-0.197-0.038-0.271-0.112
		c-0.075-0.075-0.113-0.166-0.113-0.271v-2.023c0-0.1,0.033-0.186,0.1-0.26c0.066-0.073,0.149-0.115,0.248-0.124L7.295,15.905z
		 M2.823,15.905h2.065c0.106,0,0.197,0.037,0.271,0.112c0.075,0.075,0.113,0.166,0.113,0.271v2.027c0,0.105-0.038,0.196-0.113,0.271
		C5.084,18.662,4.994,18.7,4.888,18.7H2.861c-0.107,0.001-0.199-0.036-0.275-0.11c-0.076-0.076-0.114-0.167-0.114-0.273v-2.023
		c0-0.1,0.033-0.187,0.101-0.261c0.067-0.073,0.151-0.114,0.25-0.123L2.823,15.905z M20.14,13.867
		c0.108-0.002,0.202,0.035,0.279,0.112s0.115,0.171,0.112,0.28v4.203c0,0.106-0.038,0.198-0.114,0.273s-0.168,0.111-0.275,0.11
		h-3.525c-0.107,0-0.198-0.038-0.273-0.113c-0.076-0.075-0.113-0.167-0.113-0.273s0.037-0.198,0.113-0.273
		c0.075-0.075,0.166-0.113,0.273-0.113h3.141V14.26c-0.002-0.1,0.029-0.188,0.096-0.262c0.065-0.074,0.147-0.117,0.246-0.128
		c0.014,0,0.026,0,0.039-0.004L20.14,13.867z M7.295,11.978h2.068c0.106,0,0.197,0.037,0.271,0.112
		c0.075,0.075,0.113,0.166,0.113,0.271v2.027c0,0.105-0.038,0.196-0.113,0.271c-0.075,0.074-0.166,0.112-0.271,0.112h-2.03
		c-0.106,0-0.197-0.038-0.271-0.112c-0.075-0.075-0.113-0.166-0.113-0.271v-2.025c-0.001-0.099,0.032-0.186,0.098-0.26
		c0.066-0.074,0.148-0.116,0.247-0.126H7.295z M2.823,11.978h2.065c0.106,0,0.197,0.037,0.271,0.112
		c0.075,0.075,0.113,0.166,0.113,0.271v2.027c0,0.105-0.038,0.196-0.113,0.271c-0.075,0.074-0.166,0.112-0.271,0.112H2.861
		c-0.107,0.001-0.199-0.036-0.275-0.11c-0.076-0.076-0.114-0.167-0.114-0.273v-2.025c0-0.1,0.033-0.187,0.101-0.26
		s0.151-0.115,0.25-0.124L2.823,11.978z M19.507,10.328c-0.443,0-0.881,0.043-1.316,0.129c-0.434,0.086-0.855,0.214-1.265,0.383
		c-0.409,0.169-0.798,0.377-1.167,0.623c-0.367,0.246-0.709,0.525-1.021,0.838c-0.313,0.313-0.593,0.653-0.839,1.021
		s-0.454,0.757-0.624,1.166c-0.17,0.408-0.298,0.83-0.384,1.265c-0.087,0.435-0.13,0.872-0.13,1.315
		c0,0.443,0.043,0.881,0.129,1.315c0.086,0.435,0.214,0.856,0.383,1.266c0.169,0.409,0.377,0.798,0.623,1.166
		c0.246,0.368,0.526,0.709,0.838,1.022c0.313,0.313,0.653,0.593,1.021,0.839s0.757,0.454,1.166,0.623
		c0.408,0.17,0.83,0.298,1.265,0.384c0.435,0.087,0.872,0.131,1.315,0.131s0.881-0.043,1.316-0.13
		c0.434-0.086,0.855-0.214,1.265-0.384c0.409-0.169,0.798-0.377,1.166-0.622c0.368-0.246,0.709-0.526,1.022-0.839
		c0.313-0.313,0.592-0.653,0.838-1.021s0.454-0.757,0.624-1.166c0.169-0.409,0.298-0.83,0.384-1.265s0.129-0.873,0.129-1.315
		c0-0.443-0.043-0.881-0.13-1.315c-0.087-0.434-0.214-0.855-0.384-1.264c-0.17-0.409-0.377-0.798-0.623-1.165
		c-0.246-0.368-0.525-0.709-0.838-1.021c-0.313-0.313-0.653-0.593-1.021-0.839c-0.367-0.246-0.756-0.454-1.164-0.624
		c-0.409-0.17-0.83-0.298-1.264-0.385C20.387,10.373,19.949,10.329,19.507,10.328L19.507,10.328z M11.74,8.046h2.026
		c0.107,0,0.198,0.038,0.273,0.114c0.075,0.077,0.112,0.168,0.11,0.275v2.027c0,0.106-0.038,0.197-0.112,0.272
		c-0.075,0.075-0.166,0.112-0.271,0.112h-2.028c-0.106,0-0.197-0.038-0.271-0.112c-0.075-0.075-0.112-0.166-0.112-0.272V8.436
		c-0.002-0.107,0.035-0.199,0.11-0.275c0.075-0.076,0.167-0.114,0.273-0.114H11.74z M7.333,8.046h2.031
		c0.107,0,0.198,0.038,0.273,0.114c0.075,0.077,0.112,0.168,0.11,0.275v2.027c0,0.106-0.037,0.197-0.112,0.272
		c-0.075,0.075-0.166,0.112-0.271,0.112H7.333c-0.106,0-0.196-0.038-0.271-0.112c-0.075-0.075-0.112-0.166-0.112-0.272V8.436
		C6.947,8.329,6.984,8.237,7.059,8.16C7.134,8.084,7.226,8.046,7.333,8.046z M2.86,8.046h2.027c0.107,0,0.198,0.038,0.273,0.114
		c0.075,0.077,0.112,0.168,0.11,0.275v2.027c0,0.106-0.038,0.197-0.112,0.272c-0.075,0.075-0.166,0.112-0.271,0.112H2.86
		c-0.107,0.001-0.199-0.036-0.275-0.111s-0.114-0.167-0.114-0.273V8.436c-0.001-0.108,0.036-0.2,0.112-0.277
		C2.66,8.082,2.752,8.044,2.86,8.046L2.86,8.046z M0,7.06V18.98c0.001,0.187,0.038,0.366,0.109,0.538s0.173,0.323,0.305,0.456
		c0.132,0.131,0.284,0.233,0.456,0.305c0.172,0.072,0.351,0.108,0.538,0.109h11.249c-0.515-1.046-0.772-2.152-0.774-3.318
		c0.001-0.5,0.051-0.995,0.149-1.485c0.098-0.491,0.244-0.967,0.436-1.429s0.427-0.9,0.705-1.316c0.278-0.416,0.594-0.8,0.947-1.154
		c0.354-0.354,0.739-0.669,1.155-0.948c0.415-0.278,0.854-0.513,1.315-0.705s0.938-0.337,1.429-0.436s0.985-0.148,1.485-0.149
		c1.007,0,1.976,0.193,2.904,0.58V7.059L0,7.06z M18.691,1.628h0.768V0.392c0.003-0.109-0.034-0.202-0.111-0.28
		C19.27,0.035,19.177-0.002,19.068,0c-0.014,0-0.026,0.002-0.039,0.004c-0.1,0.011-0.181,0.054-0.246,0.129
		s-0.097,0.162-0.095,0.261L18.691,1.628z M14.753,1.628h0.775V0.392c0.002-0.109-0.035-0.203-0.112-0.28S15.246-0.002,15.136,0
		c-0.013,0-0.025,0.002-0.039,0.004c-0.1,0.011-0.182,0.053-0.248,0.128c-0.065,0.075-0.098,0.162-0.096,0.262V1.628z M10.819,1.628
		h0.771V0.392c0.002-0.109-0.035-0.203-0.113-0.28S11.307-0.003,11.197,0c-0.013,0-0.025,0.002-0.039,0.004
		c-0.098,0.011-0.18,0.054-0.246,0.129c-0.065,0.075-0.097,0.162-0.095,0.261L10.819,1.628z M6.884,1.628h0.772V0.392
		c0.002-0.109-0.035-0.202-0.112-0.28C7.467,0.035,7.374-0.002,7.265,0C7.251,0,7.239,0.002,7.226,0.004
		C7.127,0.015,7.045,0.058,6.979,0.132S6.882,0.294,6.885,0.394L6.884,1.628z M3.722,1.628v2.387
		c0.006,0.111-0.029,0.208-0.105,0.289C3.54,4.384,3.446,4.425,3.334,4.425S3.129,4.384,3.053,4.303
		C2.976,4.222,2.941,4.126,2.947,4.015V1.628H1.411C1.225,1.629,1.046,1.666,0.874,1.737C0.702,1.809,0.55,1.911,0.418,2.043
		C0.286,2.174,0.185,2.326,0.112,2.499C0.041,2.67,0.004,2.85,0.003,3.036v3.247h22.411V3.039c-0.001-0.187-0.037-0.366-0.108-0.538
		C22.234,2.329,22.132,2.177,22,2.045c-0.131-0.132-0.283-0.234-0.455-0.306s-0.352-0.108-0.537-0.109H19.47v2.386
		c0.001,0.106-0.037,0.197-0.111,0.272c-0.075,0.076-0.166,0.113-0.271,0.113c-0.107,0-0.197-0.038-0.273-0.113
		c-0.074-0.075-0.111-0.166-0.111-0.272V1.628h-3.162v2.387c0.006,0.111-0.029,0.208-0.105,0.289s-0.17,0.122-0.281,0.122
		s-0.206-0.041-0.283-0.122c-0.076-0.081-0.111-0.177-0.104-0.289V1.628H11.59v2.387c0,0.106-0.038,0.197-0.113,0.273
		C11.402,4.363,11.311,4.4,11.205,4.4s-0.198-0.038-0.273-0.113c-0.075-0.076-0.113-0.167-0.113-0.273V1.628H7.655v2.387
		c0,0.106-0.038,0.197-0.113,0.273C7.467,4.363,7.376,4.4,7.269,4.4c-0.106,0-0.197-0.038-0.273-0.113
		C6.921,4.212,6.883,4.121,6.883,4.015V1.628H3.722z M3.33,0C3.316,0,3.304,0.002,3.291,0.004c-0.099,0.01-0.182,0.053-0.248,0.128
		C2.977,0.207,2.945,0.294,2.947,0.394v1.236h0.775V0.393C3.725,0.284,3.688,0.19,3.61,0.113C3.533,0.036,3.439-0.002,3.33,0L3.33,0
		z"/>
</g>
</svg>
