<?xml version="1.0" encoding="utf-8"?>
<!-- Generator: Adobe Illustrator 15.1.0, SVG Export Plug-In . SVG Version: 6.00 Build 0)  -->
<!DOCTYPE svg PUBLIC "-//W3C//DTD SVG 1.1//EN" "http://www.w3.org/Graphics/SVG/1.1/DTD/svg11.dtd">
<svg version="1.1" id="Layer_1" xmlns="http://www.w3.org/2000/svg" xmlns:xlink="http://www.w3.org/1999/xlink" x="0px" y="0px"
	 width="60.84px" height="34.396px" viewBox="0 0 60.84 34.396" enable-background="new 0 0 60.84 34.396" xml:space="preserve">
<g>
	<rect fill="#62BFB6" width="60.84" height="34.396"/>
	<g>
		<g>
			<path fill="#DBEDE2" d="M40.778,13.673H36.56c-0.143-0.211-0.291-0.42-0.476-0.609c-0.839-0.82-1.878-1.249-3.117-1.285h-5.195
				c-1.24,0.037-2.279,0.465-3.117,1.285c-0.82,0.839-1.249,1.878-1.285,3.117c0,0.237,0.082,0.438,0.246,0.602
				s0.364,0.246,0.602,0.246h6.818v2.495c0,0.413,0.336,0.75,0.75,0.75h8.993c0.414,0,0.75-0.336,0.75-0.75v-5.101
				C41.528,14.01,41.191,13.673,40.778,13.673z M40.528,19.273h-8.493v-2.244v-2.355h5.046h3.447V19.273z"/>
			<rect x="34.465" y="16.473" fill="#DBEDE2" width="3.632" height="1"/>
			<path fill="#DBEDE2" d="M28.4,10.384c0.602,0.347,1.258,0.52,1.969,0.52s1.367-0.173,1.969-0.52
				c0.602-0.346,1.084-0.829,1.449-1.449c0.346-0.62,0.52-1.276,0.52-1.969c0-0.692-0.173-1.349-0.52-1.969
				c-0.365-0.62-0.848-1.103-1.449-1.449c-0.602-0.346-1.258-0.52-1.969-0.52s-1.367,0.173-1.969,0.52
				c-0.602,0.347-1.085,0.83-1.449,1.449c-0.347,0.62-0.52,1.276-0.52,1.969c0,0.693,0.173,1.349,0.52,1.969
				C27.315,9.555,27.798,10.038,28.4,10.384z"/>
		</g>
		<g>
			<path fill="#DBEDE2" d="M11.191,29.473v-6.442h4.658v0.76h-3.806v1.973h3.564v0.756h-3.564v2.193h3.955v0.76H11.191z"/>
			<path fill="#DBEDE2" d="M17.076,29.473v-4.667h0.708v0.655c0.146-0.229,0.341-0.412,0.584-0.551s0.52-0.209,0.831-0.209
				c0.346,0,0.629,0.072,0.851,0.215c0.221,0.144,0.377,0.344,0.468,0.602c0.369-0.545,0.85-0.817,1.441-0.817
				c0.463,0,0.819,0.128,1.068,0.385s0.374,0.651,0.374,1.184v3.204h-0.787v-2.94c0-0.316-0.026-0.544-0.077-0.683
				c-0.052-0.139-0.145-0.251-0.279-0.336s-0.293-0.127-0.475-0.127c-0.328,0-0.601,0.109-0.817,0.327
				c-0.217,0.219-0.325,0.568-0.325,1.048v2.711h-0.791v-3.032c0-0.352-0.064-0.615-0.193-0.791s-0.34-0.264-0.633-0.264
				c-0.223,0-0.429,0.059-0.617,0.176c-0.189,0.117-0.326,0.289-0.411,0.514s-0.127,0.551-0.127,0.976v2.421H17.076z"/>
			<path fill="#DBEDE2" d="M24.573,31.262v-6.456h0.721v0.606c0.17-0.237,0.362-0.415,0.576-0.534
				c0.214-0.118,0.473-0.178,0.778-0.178c0.398,0,0.75,0.103,1.055,0.308s0.535,0.494,0.69,0.868
				c0.155,0.373,0.233,0.783,0.233,1.228c0,0.478-0.085,0.908-0.257,1.29c-0.171,0.383-0.42,0.676-0.747,0.879
				c-0.327,0.204-0.67,0.306-1.03,0.306c-0.264,0-0.5-0.056-0.71-0.167s-0.381-0.252-0.516-0.422v2.272H24.573z M25.289,27.166
				c0,0.601,0.122,1.044,0.365,1.332s0.538,0.431,0.883,0.431c0.352,0,0.652-0.148,0.903-0.446c0.25-0.297,0.375-0.758,0.375-1.382
				c0-0.595-0.123-1.04-0.367-1.336c-0.245-0.296-0.537-0.444-0.877-0.444c-0.337,0-0.635,0.158-0.895,0.472
				C25.419,26.108,25.289,26.565,25.289,27.166z"/>
			<path fill="#DBEDE2" d="M29.561,29.473v-6.442h0.791v6.442H29.561z"/>
			<path fill="#DBEDE2" d="M31.283,27.14c0-0.864,0.24-1.504,0.721-1.92c0.401-0.346,0.891-0.519,1.468-0.519
				c0.642,0,1.166,0.21,1.573,0.631s0.611,1.001,0.611,1.742c0,0.601-0.09,1.073-0.27,1.417c-0.181,0.345-0.443,0.612-0.787,0.802
				s-0.72,0.286-1.127,0.286c-0.653,0-1.182-0.209-1.584-0.628C31.484,28.531,31.283,27.928,31.283,27.14z M32.096,27.14
				c0,0.598,0.13,1.045,0.391,1.342c0.261,0.298,0.589,0.446,0.984,0.446c0.393,0,0.719-0.149,0.98-0.448s0.391-0.754,0.391-1.367
				c0-0.577-0.131-1.014-0.394-1.312c-0.262-0.297-0.588-0.446-0.978-0.446c-0.396,0-0.724,0.148-0.984,0.444
				S32.096,26.542,32.096,27.14z"/>
			<path fill="#DBEDE2" d="M36.548,31.271l-0.088-0.743c0.173,0.047,0.324,0.07,0.453,0.07c0.176,0,0.316-0.029,0.422-0.088
				s0.192-0.141,0.259-0.246c0.05-0.079,0.13-0.275,0.242-0.589c0.015-0.044,0.038-0.108,0.07-0.193l-1.771-4.676h0.853l0.971,2.703
				c0.126,0.343,0.239,0.703,0.338,1.081c0.091-0.363,0.199-0.718,0.325-1.063l0.998-2.72h0.791l-1.775,4.746
				c-0.19,0.513-0.338,0.866-0.444,1.059c-0.141,0.261-0.302,0.452-0.483,0.574c-0.182,0.121-0.398,0.182-0.65,0.182
				C36.905,31.367,36.735,31.335,36.548,31.271z"/>
			<path fill="#DBEDE2" d="M44.278,27.97l0.817,0.101c-0.129,0.478-0.368,0.848-0.716,1.112s-0.794,0.396-1.336,0.396
				c-0.683,0-1.224-0.21-1.624-0.631c-0.399-0.42-0.6-1.01-0.6-1.769c0-0.785,0.202-1.395,0.606-1.828s0.929-0.65,1.573-0.65
				c0.624,0,1.134,0.212,1.529,0.637s0.593,1.022,0.593,1.793c0,0.047-0.001,0.117-0.004,0.211h-3.48
				c0.029,0.513,0.174,0.905,0.435,1.178s0.586,0.409,0.976,0.409c0.29,0,0.538-0.076,0.743-0.229S44.158,28.304,44.278,27.97z
				 M41.681,26.691h2.606c-0.035-0.393-0.135-0.687-0.299-0.883c-0.252-0.305-0.579-0.457-0.98-0.457
				c-0.363,0-0.669,0.122-0.916,0.365C41.844,25.959,41.707,26.284,41.681,26.691z M42.533,24.226l0.584-1.23h1.037l-0.967,1.23
				H42.533z"/>
			<path fill="#DBEDE2" d="M45.772,28.08l0.782-0.123c0.044,0.313,0.166,0.554,0.367,0.721s0.481,0.25,0.842,0.25
				c0.363,0,0.633-0.074,0.809-0.222s0.264-0.322,0.264-0.521c0-0.179-0.078-0.319-0.233-0.422c-0.108-0.07-0.378-0.16-0.809-0.268
				c-0.58-0.146-0.982-0.273-1.207-0.38c-0.224-0.107-0.394-0.255-0.51-0.444c-0.116-0.188-0.173-0.397-0.173-0.626
				c0-0.208,0.047-0.4,0.143-0.578c0.095-0.177,0.225-0.324,0.389-0.441c0.123-0.091,0.291-0.167,0.503-0.23s0.44-0.095,0.684-0.095
				c0.366,0,0.688,0.053,0.965,0.158c0.276,0.105,0.481,0.248,0.613,0.429c0.132,0.18,0.223,0.421,0.272,0.723l-0.773,0.105
				c-0.035-0.24-0.137-0.428-0.305-0.563c-0.169-0.135-0.407-0.202-0.714-0.202c-0.363,0-0.623,0.06-0.778,0.18
				s-0.233,0.261-0.233,0.422c0,0.103,0.032,0.195,0.097,0.277c0.064,0.085,0.166,0.155,0.303,0.211
				c0.079,0.029,0.312,0.097,0.699,0.202c0.56,0.149,0.95,0.272,1.171,0.367c0.221,0.095,0.395,0.233,0.521,0.415
				s0.189,0.407,0.189,0.677c0,0.264-0.077,0.512-0.231,0.745c-0.153,0.232-0.375,0.413-0.666,0.54
				c-0.29,0.128-0.618,0.191-0.984,0.191c-0.606,0-1.069-0.126-1.386-0.378C46.063,28.949,45.86,28.575,45.772,28.08z"/>
		</g>
	</g>
</g>
</svg>
