<?xml version="1.0" encoding="utf-8"?>
<!-- Generator: Adobe Illustrator 15.1.0, SVG Export Plug-In . SVG Version: 6.00 Build 0)  -->
<!DOCTYPE svg PUBLIC "-//W3C//DTD SVG 1.1//EN" "http://www.w3.org/Graphics/SVG/1.1/DTD/svg11.dtd">
<svg version="1.1" id="Layer_1" xmlns="http://www.w3.org/2000/svg" xmlns:xlink="http://www.w3.org/1999/xlink" x="0px" y="0px"
	 width="11.979px" height="11.979px" viewBox="0 0 11.979 11.979" enable-background="new 0 0 11.979 11.979" xml:space="preserve">
<g>
	<path fill="#62BFB6" d="M6.847,2.086l3.047,3.047l-5.484,5.484c-0.25,0.234-0.539,0.406-0.867,0.516l-2.813,0.82
		c-0.219,0.062-0.406,0.015-0.563-0.141c-0.156-0.156-0.203-0.344-0.141-0.563l0.82-2.813C0.956,8.094,1.136,7.805,1.386,7.57
		L6.847,2.086L1.386,7.57L6.847,2.086z M8.511,0.422C8.823,0.141,9.175,0,9.565,0c0.406,0,0.758,0.141,1.055,0.422l0.938,0.938
		c0.281,0.313,0.422,0.665,0.422,1.055c0,0.407-0.141,0.758-0.422,1.055l-1.148,1.148L7.362,1.57L8.511,0.422L7.362,1.57
		L8.511,0.422z"/>
</g>
</svg>
