<?xml version="1.0" encoding="utf-8"?>
<!-- Generator: Adobe Illustrator 15.1.0, SVG Export Plug-In . SVG Version: 6.00 Build 0)  -->
<!DOCTYPE svg PUBLIC "-//W3C//DTD SVG 1.1//EN" "http://www.w3.org/Graphics/SVG/1.1/DTD/svg11.dtd">
<svg version="1.1" id="Layer_1" xmlns="http://www.w3.org/2000/svg" xmlns:xlink="http://www.w3.org/1999/xlink" x="0px" y="0px"
	 width="14.174px" height="14.175px" viewBox="0 0 14.174 14.175" enable-background="new 0 0 14.174 14.175" xml:space="preserve">
<path fill="#62BFB6" d="M5.268,8.915c-2.017,0-3.646-1.629-3.646-3.647c0-2.017,1.63-3.646,3.646-3.646
	c2.018,0,3.647,1.629,3.647,3.646C8.915,7.286,7.285,8.915,5.268,8.915z M10.13,8.915H9.49L9.264,8.696
	c0.794-0.924,1.271-2.123,1.271-3.428C10.535,2.359,8.177,0,5.268,0C2.359,0,0,2.359,0,5.268c0,2.91,2.359,5.268,5.268,5.268
	c1.306,0,2.504-0.478,3.429-1.272L8.915,9.49v0.64l4.052,4.045l1.207-1.208L10.13,8.915z"/>
</svg>
